<svg xmlns="http://www.w3.org/2000/svg">
<defs>
<font id="GarnettLight-Regular" horiz-adv-x="620" >
  <font-face 
    font-family="Garnett Light"
    font-weight="300"
    font-stretch="normal"
    units-per-em="1000"
    panose-1="2 1 4 4 4 2 3 4 8 3"
    ascent="800"
    descent="-200"
    x-height="565"
    cap-height="774"
    bbox="-200 -271 1297 1010"
    underline-thickness="70"
    underline-position="-195"
    unicode-range="U+0020-FF3F"
  />
<missing-glyph horiz-adv-x="665" 
d="M442 139q-13 -7 -16.5 -9.5t-3.5 -4.5q-2 -9 -16.5 -28.5t-24.5 -18.5q-2 0 -4 0.5t-8 3.5q-7 3 -11 4t-7 1q-5 0 -12 -2.5t-8 -2.5h-8q-1 0 -3 0.5t-7 2.5q-3 1 -4 1.5t-2 0.5h-1q-1 -1 -2 -1.5t-2 0.5q-4 0 -8.5 1t-12.5 4q-12 4 -18 4t-12 -2q-13 6 -21 8t-17 3
q-6 0 -10 -1t-10 -4q-4 -2 -7 -2.5t-6 -0.5q-21 1 -27 33t-7 35l-44 91l2 5q-1 2 -1.5 3.5t-1.5 5.5q-2 3 -2.5 4.5t-1.5 3.5l-10 23q-1 2 -9 15t-7 29q1 6 0 9.5t-3 6.5q0 2 -2 5.5t-8 12.5q-17 27 -22.5 43t-5.5 29q0 2 0.5 4.5t1.5 6.5q1 3 1.5 5t0.5 4t0.5 5t2.5 9
l1.5 4.5t0.5 2.5q6 5 10.5 14t10.5 32q8 29 15 42t18 21q4 3 11.5 6.5t25.5 12.5t24.5 12.5t7.5 4.5q3 1 7 2.5t13 2.5q16 4 24 7t14 8q12 10 32.5 14.5t43.5 2.5l21 1q2 1 4.5 1h7.5l32 -2l11 5q3 0 6.5 -0.5t8.5 -1.5q7 0 10.5 -0.5t5.5 -0.5q7 -1 14.5 -3t20.5 -8
q8 -4 12 -5.5t7 -2.5l5 2q7 -2 42 -21.5t39 -25.5q30 -21 59 -66.5t28 -76.5q0 -4 0.5 -8t2.5 -15q4 -19 1.5 -40t-11.5 -45q-7 -18 -20.5 -44.5t-15.5 -32.5l-62 -78q-14 -18 -33 -33t-50 -33zM285 190q5 0 7 -0.5t4 -0.5q3 0 5.5 -0.5l7.5 -1.5t7 -1.5t4 -0.5q4 0 6.5 0.5
t3.5 0.5q-2 2 -4 3t-7 3q-6 2 -9 3.5t-4 4.5q3 0 23.5 -3.5t33.5 -4.5h10t21 1q30 2 43 1.5t19 -1.5l6 2v2q-6 1 -18 0.5t-15 -0.5q-2 0 -4.5 0.5t-9.5 1.5q-21 2 -29.5 4t-12.5 4v0.5v1.5q-1 0 -1 0.5v0.5q0 2 2.5 2.5t7.5 0.5q3 0 9 -1t15 -4q4 0 9 0.5t14 0.5
q14 0 20.5 0.5t12.5 1.5q-11 3 -23.5 4.5t-38.5 3.5q-29 2 -43 4t-26 6l1 3q5 1 10.5 1t17.5 -2q8 -1 12.5 -1.5t8.5 -0.5h29l4 3q-3 1 -22.5 4t-56.5 8l-3 3l1 4l7.5 1.5t5.5 0.5q30 -4 49 -7t23 -4l5 4q-7 1 -14.5 2t-23.5 3q-16 1 -23.5 2t-14.5 2l-6 5l6 4

<glyph glyph-name=".notdef" horiz-adv-x="665" 
d="M442 139q-13 -7 -16.5 -9.5t-3.5 -4.5q-2 -9 -16.5 -28.5t-24.5 -18.5q-2 0 -4 0.5t-8 3.5q-7 3 -11 4t-7 1q-5 0 -12 -2.5t-8 -2.5h-8q-1 0 -3 0.5t-7 2.5q-3 1 -4 1.5t-2 0.5h-1q-1 -1 -2 -1.5t-2 0.5q-4 0 -8.5 1t-12.5 4q-12 4 -18 4t-12 -2q-13 6 -21 8t-17 3
q-6 0 -10 -1t-10 -4q-4 -2 -7 -2.5t-6 -0.5q-21 1 -27 33t-7 35l-44 91l2 5q-1 2 -1.5 3.5t-1.5 5.5q-2 3 -2.5 4.5t-1.5 3.5l-10 23q-1 2 -9 15t-7 29q1 6 0 9.5t-3 6.5q0 2 -2 5.5t-8 12.5q-17 27 -22.5 43t-5.5 29q0 2 0.5 4.5t1.5 6.5q1 3 1.5 5t0.5 4t0.5 5t2.5 9
l1.5 4.5t0.5 2.5q6 5 10.5 14t10.5 32q8 29 15 42t18 21q4 3 11.5 6.5t25.5 12.5t24.5 12.5t7.5 4.5q3 1 7 2.5t13 2.5q16 4 24 7t14 8q12 10 32.5 14.5t43.5 2.5l21 1q2 1 4.5 1h7.5l32 -2l11 5q3 0 6.5 -0.5t8.5 -1.5q7 0 10.5 -0.5t5.5 -0.5q7 -1 14.5 -3t20.5 -8
q8 -4 12 -5.5t7 -2.5l5 2q7 -2 42 -21.5t39 -25.5q30 -21 59 -66.5t28 -76.5q0 -4 0.5 -8t2.5 -15q4 -19 1.5 -40t-11.5 -45q-7 -18 -20.5 -44.5t-15.5 -32.5l-62 -78q-14 -18 -33 -33t-50 -33zM285 190q5 0 7 -0.5t4 -0.5q3 0 5.5 -0.5l7.5 -1.5t7 -1.5t4 -0.5q4 0 6.5 0.5
t3.5 0.5q-2 2 -4 3t-7 3q-6 2 -9 3.5t-4 4.5q3 0 23.5 -3.5t33.5 -4.5h10t21 1q30 2 43 1.5t19 -1.5l6 2v2q-6 1 -18 0.5t-15 -0.5q-2 0 -4.5 0.5t-9.5 1.5q-21 2 -29.5 4t-12.5 4v0.5v1.5q-1 0 -1 0.5v0.5q0 2 2.5 2.5t7.5 0.5q3 0 9 -1t15 -4q4 0 9 0.5t14 0.5
q14 0 20.5 0.5t12.5 1.5q-11 3 -23.5 4.5t-38.5 3.5q-29 2 -43 4t-26 6l1 3q5 1 10.5 1t17.5 -2q8 -1 12.5 -1.5t8.5 -0.5h29l4 3q-3 1 -22.5 4t-56.5 8l-3 3l1 4l7.5 1.5t5.5 0.5q30 -4 49 -7t23 -4l5 4q-7 1 -14.5 2t-23.5 3q-16 1 -23.5 2t-14.5 2l-6 5l6 4
q16 -2 25 -3.5t10 -2.5q8 1 15.5 1h13.5q11 0 15.5 0.5t5.5 2.5q-3 1 -32 3t-39 2l-4 2l3 3q5 3 12.5 4.5t14.5 1.5l13 -2t26 -2q5 -1 18.5 -0.5t36.5 1.5v1q0 1 -5 1h-14q-21 0 -51.5 3.5t-38.5 7.5v1q8 2 17.5 3t22.5 0q7 0 20.5 -1.5t19.5 -1.5q42 0 48.5 1t9.5 2l-2 1
l-15 1q-11 0 -23 1t-36 4q-19 2 -29 3t-18 1l7 5h3.5t7.5 1h6.5h3.5q2 0 5 -0.5l9 -1.5q7 -1 10 -1.5t6 -0.5t6 -0.5t9 -2.5l6 -1.5t3 -0.5q5 0 20 2.5t18 3.5v3q-26 2 -41.5 3.5t-29.5 3.5l-5 3l5 3h15q5 0 11 -0.5t18 -2.5q13 -2 19 -2.5t12 -0.5h1.5t1.5 1h0.5h1.5v2
q-5 1 -9.5 1h-11.5t-25.5 3.5t-48.5 10.5l-7 4q4 2 9 2.5t8 -1.5l-2 2t-3 2l-3 1.5l-1 0.5l-4 6l5 4q55 -7 80.5 -10.5t46.5 -7.5l4 1v1q-17 6 -36 9.5t-45 4.5q-18 1 -26 2t-16 3l-4 4l3 4h3t5 1h3.5h2.5q2 0 4 -0.5l6 -1.5l10.5 -1.5t6.5 0.5q4 0 8 -0.5t12 -2.5
q7 -2 10 -2.5t5 -0.5q4 0 9 -1t14 -3q10 -3 13.5 -3.5t5.5 0.5q3 0 6.5 -1t10.5 -4q7 -2 10 -3t5 -1q3 0 5 1t4 4q-5 1 -12 3t-22 6q-34 9 -50 12.5t-26 3.5h-8t-12 -1q-6 -1 -9 -1h-5q-7 1 -12 4t-5 7v2t1 2t1 2v1q-2 3 -1.5 7t3.5 7q-1 2 -1.5 3.5t-0.5 2.5q2 3 6 4t11 1
q48 -5 87.5 -14t73.5 -21l2 2l-5 4q-9 2 -20 5t-33 10q-43 12 -63.5 16t-37.5 5q-12 0 -14.5 2t1.5 8q-3 1 -5 3t-2 4l0.5 1t2.5 3q1 2 2 3l1 1q-3 1 -5 3t-1 4q0 3 3 4.5t26 1.5h5v1l-6 2t-10 3q-7 1 -10.5 2t-6.5 2l-1 3l5 2q4 0 9 -1t15 -2l15 -3t10 -1h1.5t1.5 1h1.5
h0.5v2q-3 2 -7.5 3t-14.5 2q-8 1 -12 2t-7 2l-4 -1h-6h-2.5t-3.5 1h-3.5h-2.5l-8 6l1 4l4 1l19 -2l3 1l-2 3h-9.5t-12.5 1q-8 1 -12 4t-4 8h10q5 0 11.5 -1t19.5 -2q17 -3 25 -3.5t15 -0.5h9v3q-1 0 -13 2.5t-18 3.5q-5 0 -11 2l-6 2l1 4l6 2q22 -1 45 -5t38 -9
q8 -2 16 -4.5t22 -7.5q14 -4 20.5 -6t11.5 -3l4 3l-2 4q-43 12 -72.5 19.5t-49.5 10.5q-6 1 -15 1.5t-28 1.5q-35 2 -47.5 3.5t-16.5 2.5v6l9 2q4 -1 9 -1.5t15 -2.5q29 0 35.5 0.5t11.5 1.5v2q-12 4 -23 5.5t-35 1.5l-32 2l-3 3l4 4h6h9q10 0 15 0.5t9 1.5v1q-15 3 -25 3.5
t-23 -1.5l-6 5l1 6q7 1 18 1t17 -1h5t9 -1q8 -1 11.5 -1t5.5 1q10 -2 21.5 -3.5t20.5 -0.5q27 -8 38 -10.5t21 -3.5l5 3q-13 7 -55.5 13.5t-80.5 9.5q-9 1 -16.5 0.5t-15.5 -1.5q-3 -1 -4 -1h-2q-4 0 -6 2.5t-2 8.5q-5 3 -7 5.5t-2 3.5v3t1 2h43q50 -2 90 -9t84 -21l6 1
l-3 4q-32 14 -68 21.5t-76 8.5h-21t-30 -1h-12.5h-6.5q-9 1 -14.5 3t-8.5 7l6 2h10h9t15 2q10 1 14.5 1h8.5q5 0 14 -1.5t11 -1.5q1 -1 3 -1.5t6 -0.5q6 0 10.5 1t7.5 4q-4 0 -8.5 0.5t-13.5 0.5q-10 1 -15.5 1.5t-10.5 0.5h-13t-20 -1h-18.5h-9.5q-10 0 -15.5 2.5t-8.5 7.5
q4 2 15.5 3t30.5 1t30.5 -0.5t17.5 -0.5t12.5 -1t17.5 -2q5 -1 7 -1.5t4 -0.5q9 -5 25.5 -8.5t40.5 -6.5l1 2q-29 11 -62.5 17t-69.5 7h-21h-32q-14 -1 -21 -1h-13l-7 6l6 2h4h1.5h2.5q2 1 3.5 1h2.5q-2 1 -8 3t-7 2t-2.5 -0.5t-4.5 -2.5q-2 -1 -2.5 -1.5t-1.5 -0.5
q-3 0 -7 2.5t-5 4.5l8 4l2 -1q3 0 6 0.5t11 1.5q7 1 11 1.5t7 0.5v3q-7 -1 -12.5 -0.5t-8.5 1.5q-2 0 -11.5 -2t-15.5 -4q-7 -2 -13.5 -5.5t-13.5 -7.5q-16 -11 -33.5 -17.5t-31.5 -6.5q-6 1 -11 -1t-8 -6l-2 -7q7 -10 11 -12.5t14 -4.5q4 0 9 0.5t13 1.5l6 1.5t4 0.5
q2 1 4.5 2.5t6.5 5.5q5 5 8 6.5t6 2.5l1 -1q-7 -8 -11.5 -12.5t-7.5 -5.5h-2l-7.5 -3.5t-21.5 -10.5q4 -1 5.5 -2.5t1.5 -3.5q0 -4 -3 -5.5t-11 -0.5q-2 0 -8.5 1t-9.5 1q-5 0 -12.5 -0.5t-25.5 -2.5q-12 -1 -18 -2t-11 -1l-2 -2q1 0 1.5 -0.5t2.5 -0.5q3 -1 4.5 -1t3.5 -1
q5 0 11 0.5l18 1.5q17 2 25.5 2.5t15.5 0.5h0.5h1.5q1 -1 1.5 -1h1.5l4 -5l-6 -4h-2q-13 0 -44 -2t-36 -4v-2l13 -1h10.5t16.5 2q11 1 16.5 1h9.5h4l9 -4q-2 -4 -5.5 -5t-10.5 -2q-24 -2 -37.5 -3.5t-16.5 -1.5l-3 -4l4 -4h3h5q3 -1 5 -1h3h9t16 2q5 0 8 0.5t5 0.5l4 -1
l-1 -8l-8 -2h-8q-8 0 -22 -1.5t-16 -1.5l-5 -4l5 -1q3 0 6.5 0.5t10.5 0.5q9 1 13 1.5t7 -0.5q5 0 7.5 -1t2.5 -4q0 -5 -3 -7t-27 0q-14 0 -32.5 -2.5t-26.5 -5.5q4 -3 7.5 -4t6.5 -1q2 0 4.5 0.5t8.5 1.5q7 2 11.5 2.5t7.5 0.5q13 0 24 -2.5t11 -6.5q-1 -4 -16 -2t-19 2
q-6 0 -15 -1t-38 -7q2 -2 7 -2.5t13 -0.5q5 0 12.5 0.5t9.5 0.5q1 0 2 -0.5t3 -0.5q5 0 7 -0.5t4 -1.5l2 -3l-3 -1q-15 -3 -28 -4.5t-26 -1.5l-7 -1v-4l5 -4q3 0 7.5 1t12.5 2q10 3 14.5 3.5t8.5 0.5q13 -1 35 -7t29 -11l5 -3q4 -3 11.5 -8.5t9.5 -6.5v-7q-30 -18 -48.5 -23
t-58.5 -3h-1l-5 -3l5 -3q8 -2 13 -4t7 -4q-2 -1 -5 -1.5t-9 -0.5q1 -4 3.5 -5.5t9.5 -1.5q7 -1 8.5 -2t2.5 -3q-2 -1 -5 -2t-8 -2l-3 -4q0 -5 3 -8t9 -3q4 -1 11 -0.5t8 0.5l5 -2l-3 -4h-3.5h-4.5q-4 0 -5.5 -0.5t-2.5 -0.5l-6 -3q0 -5 3 -14.5t8 -23.5l8 -4h23
q1 0 2.5 -0.5t3.5 -2.5l-1 -6q-4 -1 -7 -1t-8 1q-4 1 -5.5 1h-3.5q-3 0 -4.5 -1t-1.5 -4t1.5 -4.5t5.5 -1.5q2 0 6 0.5t5 0.5h5l3 -5l-6 -5q-2 2 -4.5 2.5t-5.5 0.5l-3 -3l2 -3q11 -3 13 -5.5t0 -8.5l1 -10q1 -1 1 -2v-3t-1 -4t-3 -4q1 0 2.5 0.5l4.5 1.5q6 2 9 2.5t5 0.5
q1 0 1.5 -0.5l1.5 -1.5l-12 -7l1 -2q3 -1 10 -1.5t11 -0.5q7 -1 11.5 -3t6.5 -5q4 -5 13.5 -9t14.5 -3q1 0 2.5 -0.5t4.5 -0.5t4.5 -0.5t2.5 -0.5q2 3 11.5 5.5t16.5 2.5q4 -2 8.5 -3t13.5 -1zM389 650v1q-10 2 -21.5 3t-19.5 1q-10 0 -18 -1t-24 -6l10 -1q49 0 59.5 1
t13.5 2zM403 646l5 2l-10 3q1 -2 2.5 -3.5t2.5 -1.5zM426 643l5 2l-16 2q6 -3 7.5 -3.5t3.5 -0.5zM241 626q3 -4 0.5 -7t-9.5 -3q4 4 5.5 6t3.5 4zM292 615q2 -1 3 -1h1q1 -2 1 -4v-6h-9q-4 1 -7 1.5t-5 1.5q-6 2 -7.5 4t0.5 5q1 3 4 2.5t4 -0.5h5.5t3.5 -1q1 0 2 -0.5
t4 -1.5zM493 605q-10 3 -13.5 4t-4.5 2q-7 1 -13.5 2.5t-13.5 3.5l-4 -3l2 -3q6 -3 14.5 -5t26.5 -5q11 -2 16 -3t9 -2l1 2q-2 1 -6 2.5t-14 4.5zM130 606q-4 -2 -8 -4.5t-11 -9.5v-1l19 -2h8l3 2q-3 7 -6 11t-5 4zM303 597q3 0 5 -0.5t6 -5.5h-13l-25.5 1.5t-15.5 0.5
q-1 1 -2 1h-2q0 1 0.5 2t1.5 2q4 2 6.5 2.5t3.5 -0.5q2 -1 4 -1t14 2h1.5t1.5 -1q1 0 3 -0.5t5 -1.5q2 0 3.5 -0.5t2.5 -0.5zM536 591h-0.5h-0.5l10 -6q-2 5 -3.5 6t-2.5 1h-1.5t-1.5 -1zM354 585v-2q3 1 5.5 1.5t4.5 0.5t6 -0.5t12 -2.5q18 -3 25.5 -3.5t10.5 0.5h2
q8 0 18 -1t29 -4t29 -4t18 -1l2 -1q1 0 1.5 -0.5l1.5 -1.5l3 -1.5t2 -0.5h2t2 1t2 1h1q-6 3 -26.5 7.5t-29.5 4.5q-1 0 -2.5 0.5t-5.5 1.5q-7 2 -12.5 3t-11.5 1q-5 0 -12 0.5t-22 2.5q-10 1 -14.5 1.5t-7.5 0.5q-8 0 -14.5 -0.5t-18.5 -3.5zM326 573l-0.5 -0.5l-1.5 -1.5
l-10 2.5t-3 1.5q-2 0 -4.5 0.5t-7.5 0.5l-10.5 1.5t-6.5 -0.5h-13q-5 -1 -10.5 -1h-17.5l-1 0.5t-2 0.5q-3 1 -3.5 2.5t1.5 4.5h3q1 0 13.5 1.5t20.5 -0.5q2 -1 4.5 -1.5t8.5 -0.5l7.5 -1.5t5.5 -0.5q14 -3 16.5 -3.5t5.5 -0.5q1 0 2 -1zM164 578h-11v-2q1 1 2 1t3 -1
q3 -1 4 -0.5t2 2.5zM555 556l-15 8l-1 -2l15 -8zM253 533q2 0 5 -2t4 -2q-2 -2 -6.5 -3t-11.5 0q-2 0 -5 0.5l-9 1.5t-9 2t-6 1q-1 0 -2.5 0.5l-4.5 1.5q-3 0 -4.5 0.5t-2.5 0.5h-15h-7.5t-4.5 1v3.5v2.5t3 2.5t4 1.5q1 1 13 8t20 10h2q3 -1 7 -1.5t11 1.5q3 1 4.5 1h2.5h22
q2 -5 8.5 -5t8.5 -1q4 -3 7.5 -4.5t7.5 -2.5q2 0 5.5 0.5t8.5 1.5t11.5 1.5t11.5 0.5h5.5t2.5 -1l3.5 -3.5t1.5 -2.5q-2 -1 -4 -1.5t-3 -0.5q-6 0 -12 -0.5t-13 -0.5h-15.5t-15.5 1q-1 0 -3 1t-5 2q-4 2 -6 2.5t-4 1.5q-3 1 -6.5 2t-6.5 1q-7 -1 -17 -2.5t-11 -1.5
q-3 0 -6 -0.5l-9 -1.5t-9 -1t-6 -1q-1 0 -2.5 -0.5t-1.5 -1.5q-1 0 -1 -1t1 -1q1 -1 2 -1.5t2 -0.5q10 0 16 -0.5t13 -2.5q8 -1 16 -2.5t15 -3.5zM574 550l-14 6v-2l7.5 -4.5t3.5 -1.5zM458 552h-14q12 -5 18.5 -6.5t12.5 -1.5q7 0 10 0.5t5 1.5q-5 2 -11.5 3.5t-20.5 2.5z
M543 550l-11 1v-3l11 -1v3zM552 543l35 -10h1l-3 3l-29 9h-3zM560 527h7t4 1q-7 4 -16.5 7t-29.5 7q1 -1 13.5 -8t21.5 -7zM540 521q-3 5 -11 9t-17 5q-4 0 -7 -1t-6 -4l16 -4v-3q11 0 16 -0.5t9 -1.5zM171 523l1 2q8 3 16.5 3t16.5 -2q3 -1 6 -1h10q3 0 5 -0.5t3 -1.5
q5 -2 7.5 -2t4.5 1h2.5t5.5 -1q1 -1 1 -2t-1 -1q-1 -2 -2.5 -3t-2.5 -1h-26q-20 3 -26 4t-12 1q-4 1 -5.5 2t-3.5 2zM443 518l0.5 -0.5t0.5 -1.5q-1 -1 -2.5 -2t-2.5 -1q-9 -2 -11.5 -2h-4.5h-2.5h-5.5q-3 1 -5 1h-4h-3h-4t-1 1q-1 0 -1 1t-1 4q4 3 7 3t7 -1q1 -1 2 -1h3h17
t11 -1zM232 506q3 -1 4.5 -1h2.5q-2 -6 -8 -6.5t-7 -0.5h-6t-9 1q-7 1 -10 1h-6q-5 0 -11 0.5t-11 1.5q-2 0 -3.5 1.5t-2.5 3.5t0.5 2.5t4.5 0.5q8 1 11 1h7q3 -1 7.5 -2t14.5 -3q1 0 7 0.5t10 -0.5h2h3zM586 509h-11q5 -3 12.5 -5t15.5 -2q-2 3 -6.5 5t-10.5 2zM170 487
q-2 0 -3 -0.5t-2 -0.5l-5 5v0q0 1 0.5 1.5l0.5 0.5q1 1 2.5 1h4.5h3t2 -1q1 0 2 -0.5t2 -1.5h-0.5t-0.5 -1t-0.5 -1.5t-1.5 -0.5t-1.5 -0.5t-2.5 -0.5zM218 490q3 -1 5 -1h3q-3 -3 -8 -4t-7 1q0 2 0.5 3.5t1.5 1.5h2t3 -1zM575 480q-12 4 -18 5.5t-11 2.5v-2q1 0 2.5 -0.5
l4.5 -1.5q4 -3 6.5 -3.5t5.5 -0.5q4 0 8 -1.5t14 -4.5q11 -4 17 -5.5t11 -1.5v1l-3 3q-7 0 -14.5 2t-22.5 7zM452 486l14 -1q-7 1 -9.5 1h-4.5zM199 480q3 0 6 -0.5t13 -1.5q-2 -5 -3.5 -6t-4.5 -1q-17 1 -25.5 2t-15.5 2h-4l-2.5 2.5l-2.5 2.5l2.5 1.5t3.5 1.5
q8 -2 16.5 -3t16.5 0zM514 480l-7 1v-2q4 -1 8.5 -1.5t12.5 -2.5l12 -1.5t8 -1.5v4q-7 2 -15.5 3t-18.5 1zM555 472h-1q8 -5 18.5 -8.5t45.5 -9.5q-4 4 -28.5 10.5t-34.5 7.5zM189 467q1 0 2.5 -1t3.5 -4q-3 0 -5.5 -0.5l-7.5 -1.5t-7 -1.5t-4 -0.5v-2q1 -1 2.5 -1.5
t4.5 -0.5l4.5 -1.5t2.5 -1.5q1 0 1.5 -0.5l1.5 -1.5l-2 -2t-2 -1q-5 0 -6.5 -0.5t-3.5 -2.5q-4 -4 -9 -3.5t-7 4.5q-1 2 -0.5 4.5t2.5 4.5t2 4t-2 3q-2 3 0 6t8 3q2 0 7.5 -0.5t13.5 -1.5zM502 468h-7q4 -4 7 -5t6 0q6 -1 13.5 -2.5t22.5 -6.5q16 -5 23.5 -6.5t13.5 -1.5
q5 0 7 -1t3 -3h3q2 0 3.5 -0.5t5.5 -1.5q5 -1 7 -1.5t4 -0.5h4.5t2.5 1q-19 8 -59.5 18t-59.5 11zM201 462v2q1 1 3 2l2 1q0 -1 0.5 -2t0.5 -2h-1.5h-1.5q-1 -1 -1.5 -1h-1.5zM137 462v-2q-1 0 -1.5 -0.5t-2.5 -0.5q-1 -1 -1.5 -1h-0.5l-0.5 0.5t-1.5 0.5q-2 2 -3 2.5
t-2 0.5q3 1 5 1.5t3 0.5t2.5 -0.5t2.5 -1.5zM533 445h6q-4 4 -13 6t-16 2q-4 1 -8 0.5t-6 -2.5q3 0 6 -0.5t10 -2.5q9 -2 13 -2.5t8 -0.5zM460 446h-15v-2q7 -1 14 -1.5t14 -1.5q11 0 22 -2.5t23 -7.5l3 2l-3 3q-13 4 -28 6.5t-30 3.5zM283 433q5 2 8 3t7 1l10.5 -1.5
t5.5 -1.5q2 0 4 -0.5t3 -0.5q7 0 12.5 -2t9.5 -6q2 -2 4 -3.5t7 -4.5l6 -4.5t4 -2.5q3 -1 5.5 -3t4.5 -6q1 0 0.5 -2.5t-1.5 -2.5q-1 -1 -3 -1.5t-5 -2.5l-7.5 -3t-4.5 -2q-5 -2 -11 -3t-18 0q-7 0 -10 -0.5t-6 -0.5q-11 -1 -24 5l-13 6l-5 2.5t-10 5.5q-5 2 -7 3.5t-4 3.5
q-2 3 -1 4.5t5 3.5q2 1 6.5 3.5t5.5 2.5q10 3 14 5t8 5zM56 426l17 8l-1 2l-18 -6v-2zM529 429l18 -2l-1 2l-18 5l-3 -3zM593 430l-10 3v-2l8 -3zM453 432q-3 -1 -4 -1h-2l-1 -2l6 -2l4 1q4 0 8 -1t13 -2l12 -3t8 -1l111 -30q2 0 4.5 1.5t2.5 2.5v2q-73 22 -100.5 28.5
t-46.5 7.5q-4 0 -7 -0.5t-8 -0.5zM580 419l2 -3q6 -3 13 -5l21 -6l4 1l-1 4q-7 4 -16.5 6t-22.5 3zM489 394l9 -2v2l-9 2v-2zM510 394l-5 -1l9 -6l84 -18l4 1l-2 2q-20 6 -52.5 13.5t-37.5 8.5zM455 388q-12 0 -14.5 -1t-3.5 -3h28q2 0 5 -1l9 -3q7 -2 10 -3t6 -1h6t4 1
l-7 4q-18 4 -27 5.5t-16 1.5zM256 369q-1 1 -2.5 2t-4.5 4q-1 0 -1.5 1t0.5 2t1.5 1h1.5q3 1 7 -1t4 -5l-1.5 -1zM518 372l14 -2l1 1l-3 4q-3 1 -6 1.5t-6 0.5l-4 -1zM554 370l-1 -3q3 -1 9.5 -4t14.5 -4q6 0 10 -2t6 -6l3 -2v3q0 3 -8 7t-34 11zM241 369h15q1 -1 2.5 -1.5
t4.5 -0.5l4.5 -1.5t2.5 -1.5q5 -1 8.5 -3.5t6.5 -8.5h-4.5t-3.5 -1q7 -4 12.5 -6t8.5 -3q1 0 3 -0.5t7 -1.5q5 -2 7 -2.5t3 -0.5q7 -2 9 -3.5t3 -3.5q1 0 1.5 -1t0.5 -3q-2 -2 -3.5 -3t-2.5 -1q-4 0 -5.5 -0.5t-3.5 -1.5q-4 -2 -9 -2t-12 2l-4 2l-6 3q-3 2 -5 2.5t-3 1.5
q-3 2 -4 3.5t1 2.5q3 2 1 3.5t-8 4.5q-4 2 -7.5 4t-8.5 6h12t8 1q-2 1 -3.5 1.5t-2.5 0.5q-4 2 -11 4t-8 2t-3 2l-3 3v2zM209 324q0 1 0.5 1h0.5q0 5 0.5 9t1.5 6q1 1 1.5 3t3.5 7q2 4 2.5 6t1.5 3q1 3 2.5 4.5t6.5 4.5q1 0 1.5 -2t0.5 -3q2 -6 3.5 -13t2.5 -13q1 -4 1 -6.5
v-5.5t2 -11t6 -20q1 -1 1.5 -2.5t2.5 -4.5q2 -5 3.5 -7.5t3.5 -3.5t3 -3t3 -7q2 -3 3 -5t2 -3q1 -4 0.5 -7t-3.5 -6q-7 -7 -12.5 -8.5t-13.5 -0.5q-8 0 -11.5 -1t-6.5 -3q-3 -3 -9 -1.5t-10 6.5q-3 3 -7 6t-8 5q-5 2 -7 4.5t-1 6.5q1 2 1 4v4q0 6 3 12l3 6q1 1 1.5 2.5
t2.5 3.5l4.5 7.5t1.5 5.5l1.5 4t3.5 11q1 2 2.5 3t4.5 2zM529 326h6v2q-7 3 -40 8.5t-44 5.5q-3 1 -8 0.5l-5 -0.5v-3q2 -1 4.5 -1h10.5q6 0 13 -1t22 -5q17 -4 25.5 -5t15.5 -1zM557 338l22 -10l1.5 1.5t0.5 1.5q0 2 -3.5 4t-12.5 4q-4 1 -5 1.5t-2 0.5zM263 326q1 -1 3 -2
t3 -2q-4 -3 -6.5 -2.5t-6.5 5.5q2 1 3.5 1.5t3.5 -0.5zM128 317l0.5 -1t0.5 -2h-1.5h-1.5q-2 -1 -2.5 -1h-1.5l-1 0.5t-2 0.5q-2 0 -3 0.5t-2 1.5q-1 0 -2 0.5t-2 1.5h0.5t1.5 1h1.5h0.5h2h3q4 0 5.5 -0.5t3.5 -1.5zM568 313q2 0 3 1t2 3h-1.5t-2.5 1h-2.5h-1.5t-2 -1t-2 -3
q1 1 1.5 1t2.5 -1q1 -1 1.5 -1h1.5zM137 313v3h2h4q3 1 5 1h4q0 -1 0.5 -2t0.5 -2q-1 0 -2.5 -0.5t-4.5 -0.5t-4.5 -0.5t-2.5 -0.5t-1.5 0.5t-0.5 1.5zM305 309q-1 0 -1 -0.5v-0.5q-2 1 -4 1.5l-6 1.5q-3 1 -5 1.5t-3 0.5q5 4 11 3t8 -6v-0.5v-0.5zM567 296q4 0 7.5 1t6.5 2
l1 -2l3 4q0 3 -1.5 4.5t-10.5 3.5q-6 0 -14 -3t-10 -3l-3 -2l2 -2q5 -2 10 -2.5t9 -0.5zM283 295q0 1 -1 1.5t-2 0.5q3 2 5.5 3t3.5 1q2 0 4.5 -0.5l7.5 -1.5q5 -2 7.5 -2.5t4.5 -0.5h1.5t0.5 -1t0.5 -2t2.5 -3q0 -2 0.5 -2.5l0.5 -0.5q-3 -2 -5.5 -2t-6.5 2t-10 4t-14 4z
M118 297v3h1.5h2.5q2 1 3 1h2h15t9 -1q1 0 1.5 -0.5l1.5 -1.5l1.5 -1.5l0.5 -0.5l-2.5 -2.5t-1.5 -0.5q-4 -1 -9.5 -0.5t-6.5 0.5h-7.5t-4.5 1q-1 0 -3.5 1.5zM569 288l-16 3q1 -3 3 -4.5t5 -1.5zM562 277l-35 -1q0 -2 4.5 -3.5t14.5 -1.5h11l6 5zM510 277q-7 0 -12 -0.5
t-11 -2.5l33 -2q-1 2 -3.5 3.5t-6.5 1.5zM471 256q9 -1 19 -0.5t22 2.5q-3 2 -11 3t-20 1q-16 1 -25 0.5t-13 -2.5q11 -2 17 -3t11 -1zM476 241q12 0 19.5 0.5t11.5 2.5l-1 2h-0.5t-1.5 1h-1.5h-0.5h-37t-21 -1l-5 -2l4 -2q3 0 14.5 -0.5t18.5 -0.5zM438 232h-10v-3
q1 -1 3.5 -1.5t8.5 -2.5l7.5 -1.5t4.5 -1.5q13 4 31.5 1t20.5 -3q7 0 9 1.5t3 4.5l-2 4q-32 0 -47.5 0.5t-28.5 1.5zM161 184l2 -18l7 -5q0 -2 1 -8.5t1 -9.5q1 -6 3.5 -9t6.5 -4l4 3q3 18 5 22.5t5 5.5l2 2v4q0 3 1 6t3 5v4q-3 -2 -4.5 -2.5t-2.5 -0.5t-2 0.5l-3 1.5
q-2 0 -3 0.5t-2 0.5q-1 -5 -2 -9t-4 -9l-5 6q0 8 -2.5 11.5t-6.5 3.5q-1 1 -2 0.5t-2 -1.5zM339 149q15 2 19.5 2t7.5 -1l5 2q0 1 0.5 1.5t1.5 0.5t2 -0.5t4 -1.5q3 -2 5 -2.5t4 -0.5q5 0 7.5 2.5t2.5 8.5v2.5v4.5q-1 5 -1 8v5l-28 4l2 -9l-3 -5q-2 -1 -4 -1t-6 -1t-6 -1
t-4 -1l-5 -5q-2 -2 -3 -7zM224 167l-1 2l-14 2v-11l4 -3h2q4 -1 6.5 2t2.5 8zM244 153q2 1 3 1h2l2 -1l4 4v7l-2 4q-3 2 -5.5 2.5t-4.5 0.5q-4 0 -6 -3t-2 -9q-1 -3 -0.5 -5t2.5 -2h2.5t4.5 1zM420 157l4 -5q6 0 10 3.5t5 8.5q0 3 -1 4.5t-3 1.5h-2.5t-1.5 -1l-2 1l-9 -4v-9
zM327 146q2 3 2.5 4.5t0.5 2.5h-2l1 5q-2 6 -5.5 8.5t-8.5 2.5t-7.5 -2.5t-4.5 -15.5q-3 -3 -4 -5t-2 -7v-2.5t1 -4.5t1 -4.5v-2.5l2 -3q5 -2 10.5 -3t10.5 -2l0.5 0.5t1.5 0.5l1.5 1.5l0.5 0.5q0 1 -0.5 2.5l-1.5 4.5q0 3 -0.5 4t-0.5 2q0 2 1 5t3 8zM279 168
q-4 -1 -5.5 -1h-2.5q-6 1 -9.5 -3t-3.5 -11v-1.5v-0.5h1h2q15 -2 23 1.5t9 11.5q0 2 -1 3t-3 2h-4t-6 -1zM199 144q0 -6 2 -9.5t11 -10.5q3 1 6 6.5t3 9.5q0 3 -3.5 6t-6.5 3h-9l-0.5 -0.5t-0.5 -1.5l-1.5 -1.5t-0.5 -1.5zM246 128v7l1 1l-3 5l-5 1l1 -13l3 -3zM358 126
q0 6 -2.5 9t-9.5 3q-2 1 -5 0.5t-5 -2.5q-1 -3 -2 -5t-1 -3q0 -5 4 -7.5t11 -2.5q5 -1 7.5 1t2.5 7zM280 129q1 9 -6.5 9h-7.5l-6 -2q-1 -1 -2 -3.5l-1 -2.5q0 -3 3.5 -5.5t7.5 -2.5h6q3 0 4.5 1.5t1.5 5.5zM379 126l1 -10h8q6 0 10.5 3.5t5.5 8.5q0 4 -3 6t-10 2l-3 1
l-8 -8zM271 99v5l15 3v2q-29 6 -46 8.5t-22 2.5h-4t-6 -1h-6h-4t-4.5 1t-6.5 3q-2 2 -3 2.5t-2 0.5t-3.5 -4.5t-2.5 -5.5q0 -3 9.5 -5t35.5 -2q6 0 12.5 -1t14.5 -4q2 -2 3 -2.5t2 -0.5q5 2 7.5 2.5l2.5 0.5q1 0 2 -0.5t3 -2.5q1 -1 2 -1.5zM368 94q8 0 12.5 1.5t5.5 5.5
q-9 2 -18.5 2.5t-12.5 0.5q-9 0 -17 1.5t-10 4.5q-5 1 -13.5 0.5t-20.5 -1.5l-5 -2q1 -3 2.5 -4.5t4.5 -3.5l3 -2q8 1 16.5 1.5t18.5 -0.5q7 -1 18.5 -2.5t15.5 -1.5z" />
    <glyph glyph-name=".null" horiz-adv-x="0" 
 />
    <glyph glyph-name="nonmarkingreturn" horiz-adv-x="333" 
 />
    <glyph glyph-name="space" unicode=" " horiz-adv-x="195" 
 />
    <glyph glyph-name="exclam" unicode="!" horiz-adv-x="267" 
d="M98 537v237h71v-237l-21 -353h-29zM174 0h-81v106h81v-106z" />
    <glyph glyph-name="quotedbl" unicode="&#x22;" horiz-adv-x="388" 
d="M82 527zM95 527l-13 247h70l-11 -247h-46zM249 527l-13 247h70l-11 -247h-46z" />
    <glyph glyph-name="numbersign" unicode="#" horiz-adv-x="648" 
d="M134 250h-114v53h125l42 197h-127v53h138l38 180h58l-38 -180h212l38 180h58l-38 -180h112v-53h-123l-42 -197h125v-53h-136l-42 -201h-58l42 201h-212l-42 -201h-58zM245 500l-42 -197h212l42 197h-212z" />
    <glyph glyph-name="dollar" unicode="$" horiz-adv-x="636" 
d="M351 -11v-114h-59v114q-118 8 -188 67.5t-86 166.5l64 20q10 -87 63.5 -136.5t146.5 -58.5v318q-21 4 -42.5 9.5t-42.5 11.5q-36 11 -60.5 24t-40.5 29q-22 22 -34.5 55.5t-12.5 71.5q0 95 63 154t170 64v80h59v-81q96 -9 155 -63t80 -151l-63 -16q-15 75 -58.5 118
t-113.5 52v-306q44 -10 62 -14.5t33 -9.5q40 -12 61.5 -22t38.5 -24q27 -24 39.5 -56t12.5 -77q0 -98 -66 -158.5t-181 -67.5zM124 572q0 -57 34.5 -89t133.5 -53v297q-80 -5 -124 -45.5t-44 -109.5zM533 212q0 38 -14.5 63.5t-44.5 41.5q-18 10 -44 18t-79 19v-306
q86 5 134 48t48 116z" />
    <glyph glyph-name="percent" unicode="%" horiz-adv-x="985" 
d="M266 392q-76 0 -122 51.5t-46 139.5t47.5 143.5t122.5 55.5t121 -54.5t46 -143.5q0 -85 -47 -138.5t-122 -53.5zM733 774h70l-562 -774h-72zM268 730q-51 0 -80 -38.5t-29 -107.5q0 -65 29 -102.5t78 -37.5q52 0 80 36.5t28 103.5q0 69 -28 107.5t-78 38.5zM718 -8
q-76 0 -122 51.5t-46 139.5t47.5 143.5t122.5 55.5t121 -54.5t46 -143.5q0 -85 -47 -138.5t-122 -53.5zM718 44q52 0 80 36.5t28 103.5q0 69 -28 107.5t-78 38.5q-51 0 -80 -38.5t-29 -107.5q0 -65 29 -102.5t78 -37.5z" />
    <glyph glyph-name="ampersand" unicode="&#x26;" horiz-adv-x="778" 
d="M362 786q70 0 113 -42.5t43 -111.5q0 -71 -51 -123t-155 -88q15 -30 34.5 -60t43.5 -61q31 -42 68.5 -79.5t78.5 -67.5q37 56 58.5 145t21.5 186l65 -20q0 -80 -29 -182t-68 -162q56 -34 113.5 -52t111.5 -18h15l-10 -55h-10q-63 0 -127.5 20t-127.5 60q-44 -43 -102 -65
t-126 -22q-115 0 -182.5 58.5t-67.5 158.5q0 77 41 137.5t121 103.5q-24 56 -32 89.5t-8 69.5q0 81 46.5 131t121.5 50zM360 730q-46 0 -73.5 -34t-27.5 -92q0 -29 8 -64t24 -74q86 30 125.5 69t39.5 93q0 48 -25.5 75t-70.5 27zM256 399q-60 -35 -88 -81t-28 -110
q0 -78 49.5 -120.5t141.5 -42.5q56 0 97 14.5t75 46.5q-44 33 -83.5 72t-72.5 81q-29 39 -51.5 73t-39.5 67z" />
    <glyph glyph-name="quotesingle" unicode="'" horiz-adv-x="234" 
d="M95 527l-13 247h70l-11 -247h-46z" />
    <glyph glyph-name="parenleft" unicode="(" horiz-adv-x="301" 
d="M77 296q0 150 51.5 294.5t133.5 224.5h63q-86 -92 -132 -226t-46 -293q0 -157 46 -293t132 -234h-63q-83 88 -134 233t-51 294z" />
    <glyph glyph-name="parenright" unicode=")" horiz-adv-x="301" 
d="M224 288q0 -150 -51.5 -294.5t-133.5 -224.5h-63q86 92 132 226t46 293q0 157 -46 293t-132 234h63q83 -88 134 -233t51 -294z" />
    <glyph glyph-name="asterisk" unicode="*" horiz-adv-x="438" 
d="M219 539l-89 -137l-52 38l103 127l-157 42l19 61l152 -58l-8 162h64l-8 -162l152 58l19 -61l-157 -42l103 -127l-52 -38z" />
    <glyph glyph-name="plus" unicode="+" horiz-adv-x="596" 
d="M330 362v-192h-64v192h-173v54h173v193h64v-193h173v-54h-173z" />
    <glyph glyph-name="comma" unicode="," horiz-adv-x="153" 
d="M74 0h-38v106h81v-134q0 -52 -22.5 -74.5t-76.5 -24.5l-6 41q39 2 50.5 13t11.5 47v26z" />
    <glyph glyph-name="hyphen" unicode="-" horiz-adv-x="409" 
d="M361 295h-313v60h313v-60z" />
    <glyph glyph-name="period" unicode="." horiz-adv-x="153" 
d="M117 0h-81v106h81v-106z" />
    <glyph glyph-name="slash" unicode="/" horiz-adv-x="416" 
d="M111 -231h-68l262 1046h68z" />
    <glyph glyph-name="zero" unicode="0" horiz-adv-x="721" 
d="M360 -12q-145 0 -223 102.5t-78 293.5q0 190 81 296t224 106q141 0 219.5 -106t78.5 -296q0 -187 -80 -291.5t-222 -104.5zM360 47q116 0 174.5 84.5t58.5 252.5q0 166 -59.5 254.5t-169.5 88.5q-113 0 -174.5 -88t-61.5 -255q0 -165 60 -251t172 -86z" />
    <glyph glyph-name="one" unicode="1" horiz-adv-x="373" 
d="M12 616v54h111q48 0 62.5 11t16.5 54l2 39h55v-774h-68v616h-179z" />
    <glyph glyph-name="two" unicode="2" horiz-adv-x="650" 
d="M519 549q0 83 -45.5 130.5t-124.5 47.5q-98 0 -150.5 -64.5t-48.5 -180.5l-66 17q-1 133 70 210t193 77q110 0 174.5 -63t64.5 -169q0 -87 -50 -165t-161 -163l-216 -167h454v-59h-537v64l250 196q100 78 146.5 147.5t46.5 141.5z" />
    <glyph glyph-name="three" unicode="3" horiz-adv-x="636" 
d="M500 581q0 70 -44 108.5t-122 38.5q-85 0 -132.5 -45.5t-55.5 -134.5l-64 19q16 106 82 162.5t174 56.5q102 0 164.5 -53t62.5 -141q0 -66 -40 -113t-111 -67v-2q92 -18 140 -67t48 -125q0 -103 -73 -166.5t-190 -63.5q-124 0 -198 60.5t-92 176.5l65 20q9 -97 66 -147.5
t157 -50.5q92 0 145.5 47.5t53.5 130.5q0 76 -56 114.5t-166 38.5h-92v56h92q84 0 135 39.5t51 107.5z" />
    <glyph glyph-name="four" unicode="4" horiz-adv-x="648" 
d="M626 251v-60h-142v-191h-67v191h-383v65l373 518h77v-523h142zM417 694l-316 -443h316v443z" />
    <glyph glyph-name="five" unicode="5" horiz-adv-x="654" 
d="M363 511q107 0 174 -67.5t67 -178.5q0 -126 -73.5 -201t-195.5 -75q-115 0 -189.5 58t-98.5 165l63 23q21 -94 77.5 -141t147.5 -47q93 0 146.5 58t53.5 159q0 92 -51.5 144t-140.5 52q-64 0 -113 -25.5t-85 -77.5l-63 8l62 409h409v-60h-353l-47 -301h3q35 48 88 73
t119 25z" />
    <glyph glyph-name="six" unicode="6" horiz-adv-x="674" 
d="M362 -12q-144 0 -223 98t-79 279q0 191 89 306t238 115q73 0 134 -32.5t108 -97.5l-53 -41q-33 55 -82 84t-111 29q-119 0 -187.5 -99.5t-68.5 -271.5q0 -19 0.5 -27.5t1.5 -15.5h2q24 91 91 143t161 52q109 0 177 -69.5t68 -180.5q0 -122 -73 -196.5t-193 -74.5z
M369 455q-94 0 -156 -59.5t-62 -150.5q0 -87 60 -143t150 -56q91 0 144.5 56.5t53.5 152.5q0 95 -50 147.5t-140 52.5z" />
    <glyph glyph-name="seven" unicode="7" horiz-adv-x="570" 
d="M297 72v-72h-68v72q0 211 66 374.5t194 267.5h-455v60h523v-54q-130 -94 -195 -256t-65 -392z" />
    <glyph glyph-name="eight" unicode="8" horiz-adv-x="670" 
d="M621 212q0 -102 -77.5 -163.5t-206.5 -61.5q-132 0 -210 59t-78 160q0 76 45.5 128.5t130.5 75.5v2q-61 22 -96 67t-35 103q0 91 68.5 146t172.5 55q105 0 173 -53.5t68 -143.5q0 -58 -35.5 -104t-95.5 -69v-3q85 -23 130.5 -73.5t45.5 -124.5zM510 579q0 67 -48 106.5
t-126 39.5q-82 0 -129 -39.5t-47 -110.5q0 -67 48 -105t129 -38q78 0 125.5 39.5t47.5 107.5zM115 217q0 -80 60.5 -126t166.5 -46q99 0 156 48t57 129q0 76 -59.5 121t-158.5 45q-101 0 -161.5 -46t-60.5 -125z" />
    <glyph glyph-name="nine" unicode="9" horiz-adv-x="671" 
d="M315 787q138 0 217.5 -102t79.5 -276q0 -198 -81 -309.5t-228 -111.5q-86 0 -152 34.5t-107 100.5l54 38q32 -55 86 -84.5t121 -29.5q119 0 179.5 94t60.5 278q0 9 -0.5 18.5t-1.5 26.5h-3q-19 -86 -85.5 -139.5t-151.5 -53.5q-118 0 -188.5 69t-70.5 182q0 117 75.5 191
t195.5 74zM321 325q78 0 138.5 59t60.5 145q0 85 -57.5 142.5t-153.5 57.5q-87 0 -141.5 -56.5t-54.5 -143.5q0 -95 55.5 -149.5t152.5 -54.5z" />
    <glyph glyph-name="colon" unicode=":" horiz-adv-x="153" 
d="M36 0zM117 0h-81v106h81v-106zM117 418h-81v106h81v-106z" />
    <glyph glyph-name="semicolon" unicode=";" horiz-adv-x="153" 
d="M12 0zM74 0h-38v106h81v-134q0 -52 -22.5 -74.5t-76.5 -24.5l-6 41q39 2 50.5 13t11.5 47v26zM117 418h-81v106h81v-106z" />
    <glyph glyph-name="less" unicode="&#x3c;" horiz-adv-x="596" 
d="M503 100l-430 236v36l430 235v-65l-347 -187l347 -188v-67z" />
    <glyph glyph-name="equal" unicode="=" horiz-adv-x="596" 
d="M503 412h-410v55h410v-55zM503 234h-410v55h410v-55z" />
    <glyph glyph-name="greater" unicode="&#x3e;" horiz-adv-x="596" 
d="M93 607l430 -236v-36l-430 -235v65l347 187l-347 188v67z" />
    <glyph glyph-name="question" unicode="?" horiz-adv-x="508" 
d="M264 727q-86 0 -133 -46.5t-67 -150.5l-61 15q21 118 88 179t176 61q103 0 166 -55.5t63 -146.5q0 -58 -27.5 -102t-98.5 -99q-61 -47 -76.5 -76t-15.5 -95v-32h-62v40q0 69 23.5 110t93.5 95q57 44 77 77t20 81q0 66 -45 105.5t-121 39.5zM288 0h-81v106h81v-106z" />
    <glyph glyph-name="at" unicode="@" horiz-adv-x="901" 
d="M705 86q50 0 77 50t27 144q0 168 -88.5 261.5t-248.5 93.5q-162 0 -268 -115t-106 -290q0 -168 98.5 -260t279.5 -92q62 0 112 9.5t100 31.5v-51q-45 -20 -99.5 -30t-113.5 -10q-206 0 -320 104.5t-114 294.5q0 94 31 177t89 146q60 65 141 99.5t173 34.5
q175 0 282 -110.5t107 -291.5q0 -115 -44.5 -179.5t-123.5 -64.5q-55 0 -85 26.5t-30 74.5h-2q-22 -55 -65.5 -84.5t-103.5 -29.5q-69 0 -108.5 35.5t-39.5 96.5q0 31 11 56t34 45q19 16 47.5 26.5t69.5 17.5l70 11q48 8 67.5 23t19.5 44q0 40 -27.5 63t-75.5 23
q-56 0 -89 -27.5t-48 -86.5l-64 14q23 75 74.5 115t124.5 40q82 0 126 -43.5t44 -124.5v-193q0 -41 13 -57.5t46 -16.5zM331 161q0 -40 26.5 -62.5t73.5 -22.5q70 0 111 50t41 135v39q-10 -9 -29 -16t-54 -13l-64 -11q-54 -9 -79.5 -33t-25.5 -66z" />
    <glyph glyph-name="A" unicode="A" horiz-adv-x="710" 
d="M100 0h-70l277 774h79l294 -774h-71l-84 228h-346zM347 710l-147 -423h303z" />
    <glyph glyph-name="B" unicode="B" horiz-adv-x="704" 
d="M391 0h-300v774h270q132 0 199.5 -48t67.5 -142q0 -69 -43.5 -117.5t-119.5 -64.5v-2q91 -12 142 -62.5t51 -127.5q0 -104 -67.5 -157t-199.5 -53zM559 572q0 73 -47 108t-144 35h-209v-290h196q105 0 154.5 35.5t49.5 111.5zM589 219q0 77 -54 114.5t-164 37.5h-212
v-312h228q105 0 153.5 38t48.5 122z" />
    <glyph glyph-name="C" unicode="C" horiz-adv-x="770" 
d="M407 -12q-165 0 -260.5 105t-95.5 286q0 183 99 295t260 112q127 0 211 -71.5t112 -203.5l-66 -15q-22 110 -88 168.5t-169 58.5q-137 0 -213 -90.5t-76 -253.5q0 -152 77 -240t210 -88q104 0 168.5 52t98.5 163l63 -21q-35 -125 -120.5 -191t-210.5 -66z" />
    <glyph glyph-name="D" unicode="D" horiz-adv-x="787" 
d="M91 0v774h228q200 0 308.5 -100.5t108.5 -285.5q0 -184 -109.5 -286t-306.5 -102h-229zM666 387q0 161 -89 244.5t-262 83.5h-156v-656h141q186 0 276 80.5t90 247.5z" />
    <glyph glyph-name="E" unicode="E" horiz-adv-x="648" 
d="M91 0v774h489v-59h-421v-285h394v-57h-394v-314h441v-59h-509z" />
    <glyph glyph-name="F" unicode="F" horiz-adv-x="614" 
d="M91 0v774h477v-59h-409v-303h375v-59h-375v-353h-68z" />
    <glyph glyph-name="G" unicode="G" horiz-adv-x="795" 
d="M681 0l-5 155h-3q-37 -81 -108.5 -124t-167.5 -43q-163 0 -254.5 105t-91.5 291q0 177 100 289.5t258 112.5q123 0 206.5 -69t114.5 -197l-65 -17q-26 108 -91 164t-165 56q-132 0 -210 -92t-78 -247q0 -160 75.5 -248t213.5 -88q124 0 192.5 65.5t68.5 184.5v15h-256v58
h319v-371h-53z" />
    <glyph glyph-name="H" unicode="H" horiz-adv-x="785" 
d="M91 0v774h68v-334h467v334h68v-774h-68v381h-467v-381h-68z" />
    <glyph glyph-name="I" unicode="I" horiz-adv-x="256" 
d="M94 0v774h68v-774h-68z" />
    <glyph glyph-name="J" unicode="J" horiz-adv-x="547" 
d="M463 774v-537q0 -68 -14 -116t-43 -77q-28 -28 -65.5 -42t-86.5 -14q-102 0 -155 53.5t-53 156.5v114l64 20v-117q0 -85 35 -124.5t111 -39.5q71 0 105 43t34 132v548h68z" />
    <glyph glyph-name="K" unicode="K" horiz-adv-x="684" 
d="M671 0h-75l-260 447l-177 -203v-244h-68v774h68v-449l393 449h78l-247 -284z" />
    <glyph glyph-name="L" unicode="L" horiz-adv-x="621" 
d="M91 0v774h68v-715h435v-59h-503z" />
    <glyph glyph-name="M" unicode="M" horiz-adv-x="908" 
d="M91 0v774h107l261 -706l252 706h106v-774h-66v707l-251 -707h-84l-260 711v-711h-65z" />
    <glyph glyph-name="N" unicode="N" horiz-adv-x="758" 
d="M602 774h65v-774h-79l-432 708v-708h-65v774h100l411 -678v678z" />
    <glyph glyph-name="O" unicode="O" horiz-adv-x="801" 
d="M401 -12q-166 0 -258 104t-92 292q0 182 97 292t258 110q157 0 250.5 -109t93.5 -293q0 -181 -94.5 -288.5t-254.5 -107.5zM618 151q31 43 46.5 101.5t15.5 131.5q0 156 -74 247.5t-200 91.5q-73 0 -129 -26.5t-92 -77.5q-32 -43 -48 -102.5t-16 -132.5
q0 -158 73.5 -245.5t206.5 -87.5q71 0 125.5 25t91.5 75z" />
    <glyph glyph-name="P" unicode="P" horiz-adv-x="652" 
d="M91 0v774h254q131 0 200 -54.5t69 -157.5q0 -112 -72.5 -168.5t-215.5 -56.5h-167v-337h-68zM544 562q0 79 -50 116t-156 37h-179v-321h159q122 0 174 38.5t52 129.5z" />
    <glyph glyph-name="Q" unicode="Q" horiz-adv-x="801" 
d="M684 -122q-62 0 -101.5 29t-69.5 97q-25 -8 -53 -12t-59 -4q-166 0 -258 104t-92 292q0 182 97 292t258 110q158 0 251 -109t93 -293q0 -124 -48 -217t-135 -140q19 -49 47 -71.5t69 -22.5q34 0 52 17.5t29 59.5l54 -19q-13 -55 -47.5 -84t-86.5 -29zM548 87
q64 39 98 115t34 182q0 156 -74 247.5t-200 91.5q-73 0 -129 -26.5t-92 -77.5q-32 -43 -48 -102.5t-16 -132.5q0 -118 38.5 -196t115.5 -113l1 2q-15 15 -22.5 35.5t-7.5 46.5q0 49 34 79t89 30q62 0 101.5 -40t77.5 -141zM362 210q-34 0 -51 -17t-17 -51q0 -44 30.5 -67.5
t85.5 -23.5q20 0 41 3t41 8q-28 83 -56.5 115.5t-73.5 32.5z" />
    <glyph glyph-name="R" unicode="R" horiz-adv-x="688" 
d="M483 280q-15 29 -43 39t-95 10h-186v-329h-68v774h293q123 0 189.5 -53t66.5 -151q0 -84 -52.5 -139t-148.5 -72v-2q61 -10 87 -40.5t50 -117.5q21 -76 35.5 -120.5t29.5 -73.5v-5h-78q-11 25 -22 64t-25 105q-7 37 -15.5 64.5t-17.5 46.5zM570 556q0 80 -47 119.5
t-142 39.5h-222v-331h187q109 0 166.5 44t57.5 128z" />
    <glyph glyph-name="S" unicode="S" horiz-adv-x="636" 
d="M546 348q27 -24 39.5 -56t12.5 -77q0 -104 -74 -165.5t-199 -61.5q-132 0 -211 60.5t-96 174.5l64 20q11 -95 74 -145.5t171 -50.5q97 0 151.5 43.5t54.5 121.5q0 52 -28 82t-100 47q-16 4 -84.5 17t-113.5 27q-34 10 -59 24t-42 31q-22 22 -34.5 55.5t-12.5 71.5
q0 100 69 159.5t185 59.5q112 0 181 -54.5t92 -161.5l-63 -16q-17 86 -71 129.5t-142 43.5q-87 0 -136.5 -41t-49.5 -114q0 -52 28.5 -82t97.5 -48q21 -5 88 -18.5t108 -26.5q35 -10 57.5 -21t42.5 -28z" />
    <glyph glyph-name="T" unicode="T" horiz-adv-x="662" 
d="M641 774v-59h-276v-715h-68v715h-276v59h620z" />
    <glyph glyph-name="U" unicode="U" horiz-adv-x="772" 
d="M152 774v-477q0 -126 59 -186t183 -60q113 0 170 64.5t57 191.5v467h67v-471q0 -152 -77.5 -233.5t-222.5 -81.5q-148 0 -226 76t-78 221v489h68z" />
    <glyph glyph-name="V" unicode="V" horiz-adv-x="710" 
d="M326 0l-303 774h71l268 -698l255 698h70l-291 -774h-70z" />
    <glyph glyph-name="W" unicode="W" horiz-adv-x="1030" 
d="M247 0l-217 774h71l189 -694l186 694h80l197 -700l177 700h70l-208 -774h-80l-196 691l-189 -691h-80z" />
    <glyph glyph-name="X" unicode="X" horiz-adv-x="649" 
d="M633 0h-73l-235 353l-234 -353h-75l269 400l-251 374h71l225 -334l216 334h72l-248 -380z" />
    <glyph glyph-name="Y" unicode="Y" horiz-adv-x="625" 
d="M541 774h71l-259 -447v-327h-68v325l-272 449h72l234 -386z" />
    <glyph glyph-name="Z" unicode="Z" horiz-adv-x="659" 
d="M547 715h-485v59h556v-62l-506 -653h519v-59h-591v64z" />
    <glyph glyph-name="bracketleft" unicode="[" horiz-adv-x="408" 
d="M114 -231v1046h288v-60h-220v-926h223v-60h-291z" />
    <glyph glyph-name="backslash" unicode="\" horiz-adv-x="416" 
d="M111 815l262 -1046h-68l-262 1046h68z" />
    <glyph glyph-name="bracketright" unicode="]" horiz-adv-x="408" 
d="M295 815v-1046h-288v60h220v926h-223v60h291z" />
    <glyph glyph-name="asciicircum" unicode="^" horiz-adv-x="354" 
d="M206 774l113 -258h-62l-80 195l-80 -195h-62l113 258h58z" />
    <glyph glyph-name="uni005F" unicode="_" horiz-adv-x="434" 
d="M434 -130h-434v50h434v-50z" />
    <glyph glyph-name="grave" unicode="`" horiz-adv-x="500" 
d="M251 810l69 -178h-54l-85 178h70z" />
    <glyph glyph-name="a" unicode="a" horiz-adv-x="600" 
d="M546 -6q-57 0 -87 30.5t-30 89.5v14h-3q-26 -67 -77 -103.5t-121 -36.5q-80 0 -126.5 41.5t-46.5 113.5q0 37 11.5 66.5t35.5 52.5q22 20 56.5 33.5t82.5 21.5l82 14q59 10 82.5 28t23.5 54q0 50 -34.5 79t-94.5 29q-65 0 -105 -34.5t-60 -107.5l-64 16q25 88 84 135
t144 47q94 0 144.5 -51t50.5 -146v-248q0 -46 15.5 -63.5t55.5 -17.5q6 0 11.5 0.5t13.5 1.5v-53q-7 -2 -20 -4t-24 -2zM123 150q0 -51 31.5 -79.5t87.5 -28.5q86 0 138 62.5t52 166.5v53q-11 -13 -34.5 -22t-68.5 -18l-80 -15q-69 -13 -97.5 -40t-28.5 -79z" />
    <glyph glyph-name="b" unicode="b" horiz-adv-x="635" 
d="M358 577q105 0 169 -80.5t64 -212.5t-65 -214t-169 -82q-72 0 -125 36t-80 105h-3v-129h-64v815h66v-381h3q29 68 82.5 105.5t121.5 37.5zM523 284q0 108 -48.5 171.5t-130.5 63.5q-90 0 -141.5 -62.5t-51.5 -172.5q0 -109 53 -173.5t142 -64.5q84 0 130.5 62.5
t46.5 175.5z" />
    <glyph glyph-name="c" unicode="c" horiz-adv-x="585" 
d="M306 519q-90 0 -142 -63t-52 -172q0 -110 52.5 -174t143.5 -64q71 0 115.5 36t69.5 114l57 -22q-25 -88 -89.5 -137t-154.5 -49q-122 0 -192 79t-70 217q0 130 73.5 211.5t190.5 81.5q91 0 152.5 -53t86.5 -153l-64 -18q-17 81 -62.5 123.5t-114.5 42.5z" />
    <glyph glyph-name="d" unicode="d" horiz-adv-x="635" 
d="M281 -12q-110 0 -173.5 78.5t-63.5 214.5q0 131 68 213.5t176 82.5q65 0 115 -35.5t78 -101.5h3v375h66v-815h-64v135h-3q-27 -70 -80 -108.5t-122 -38.5zM112 281q0 -110 49 -172.5t136 -62.5q88 0 137.5 62t49.5 173t-49 174.5t-134 63.5q-88 0 -138.5 -63.5
t-50.5 -174.5z" />
    <glyph glyph-name="e" unicode="e" horiz-adv-x="576" 
d="M308 -12q-121 0 -192.5 80.5t-71.5 215.5q0 129 71.5 211t184.5 82q67 0 119.5 -31.5t81.5 -90.5q18 -36 27.5 -82t10.5 -101h-427q3 -104 56 -165t141 -61q68 0 111.5 33t70.5 104l56 -23q-32 -84 -93.5 -128t-145.5 -44zM448 422q-21 47 -59.5 72t-89.5 25
q-77 0 -127 -52.5t-58 -143.5h355q-1 31 -6 53.5t-15 45.5z" />
    <glyph glyph-name="f" unicode="f" horiz-adv-x="352" 
d="M194 0h-66v510h-117v55h117v78q0 89 38 134t113 45q22 0 43.5 -3.5t38.5 -10.5l-16 -54q-14 6 -31 9t-33 3q-46 0 -66.5 -29t-20.5 -93v-79h156v-55h-156v-510z" />
    <glyph glyph-name="g" unicode="g" horiz-adv-x="584" 
d="M301 -198q-134 0 -206 35.5t-72 101.5q0 41 29.5 68.5t86.5 40.5v2q-38 11 -57 31.5t-19 51.5q0 30 21 56t57 41v2q-34 24 -52 61t-18 83q0 89 61 145t158 56q43 0 81 -12t66 -35l80 110l50 -44l-107 -88q21 -25 32.5 -55.5t11.5 -65.5q0 -91 -57.5 -144t-155.5 -53
q-34 0 -65 6.5t-57 18.5q-22 -9 -34.5 -24.5t-12.5 -34.5q0 -28 21.5 -41t66.5 -13h232q75 0 112 -28.5t37 -85.5q0 -87 -77 -136.5t-213 -49.5zM139 377q0 -62 40 -96.5t111 -34.5t108.5 37t37.5 107q0 61 -39 96t-107 35q-71 0 -111 -38t-40 -106zM526 -25q0 34 -21 48.5
t-71 14.5h-206q-68 0 -101.5 -21t-33.5 -64q0 -46 54 -70t157 -24t162.5 31t59.5 85z" />
    <glyph glyph-name="h" unicode="h" horiz-adv-x="633" 
d="M85 0v815h66v-386h3q29 70 82.5 109t122.5 39q95 0 145.5 -58.5t50.5 -170.5v-348h-66v333q0 98 -35.5 142.5t-114.5 44.5q-87 0 -137.5 -67t-50.5 -183v-270h-66z" />
    <glyph glyph-name="i" unicode="i" horiz-adv-x="240" 
d="M159 726h-77v89h77v-89zM87 0v565h66v-565h-66z" />
    <glyph glyph-name="j" unicode="j" horiz-adv-x="240" 
d="M159 726h-77v89h77v-89zM-34 -182l-9 65q11 -4 27.5 -7t30.5 -3q39 0 55.5 21.5t16.5 74.5v596h66v-601q0 -82 -31 -118.5t-101 -36.5q-15 0 -29 2.5t-26 6.5z" />
    <glyph glyph-name="k" unicode="k" horiz-adv-x="555" 
d="M554 0h-75l-203 332l-125 -124v-208h-66v815h66v-534l285 284h82l-195 -193z" />
    <glyph glyph-name="l" unicode="l" horiz-adv-x="236" 
d="M85 0v815h66v-815h-66z" />
    <glyph glyph-name="m" unicode="m" horiz-adv-x="969" 
d="M85 0v565h64v-141h3q27 73 76.5 113t112.5 40q73 0 117.5 -41t57.5 -120h3q26 77 76.5 119t115.5 42q87 0 133.5 -57t46.5 -164v-356h-66v347q0 86 -31.5 129.5t-94.5 43.5q-83 0 -130.5 -66.5t-47.5 -183.5v-270h-66v347q0 87 -32.5 130t-97.5 43q-81 0 -127.5 -67
t-46.5 -183v-270h-66z" />
    <glyph glyph-name="n" unicode="n" horiz-adv-x="633" 
d="M85 0v565h64v-141h3q28 72 82.5 112.5t124.5 40.5q95 0 145.5 -58.5t50.5 -170.5v-348h-66v333q0 98 -35.5 142.5t-114.5 44.5q-87 0 -137.5 -67t-50.5 -183v-270h-66z" />
    <glyph glyph-name="o" unicode="o" horiz-adv-x="600" 
d="M299 -12q-118 0 -186.5 78.5t-68.5 215.5q0 134 70 214.5t188 80.5t186 -78.5t68 -214.5q0 -138 -68.5 -217t-188.5 -79zM301 46q91 0 139 61t48 176q0 111 -49 173.5t-137 62.5q-91 0 -140.5 -60.5t-49.5 -173.5q0 -114 49.5 -176.5t139.5 -62.5z" />
    <glyph glyph-name="p" unicode="p" horiz-adv-x="635" 
d="M151 -185h-66v750h64v-136h3q28 70 82 109t124 39q105 0 169 -80.5t64 -212.5t-65 -214t-169 -82q-70 0 -122.5 35.5t-80.5 102.5h-3v-311zM523 284q0 108 -48.5 171.5t-130.5 63.5q-90 0 -141.5 -62.5t-51.5 -172.5q0 -109 53 -173.5t142 -64.5q84 0 130.5 62.5
t46.5 175.5z" />
    <glyph glyph-name="q" unicode="q" horiz-adv-x="635" 
d="M44 281q0 131 68 213.5t176 82.5q68 0 118.5 -37t76.5 -106h3v131h64v-750h-66v314h-3q-28 -67 -80.5 -104t-119.5 -37q-110 0 -173.5 78.5t-63.5 214.5zM484 281q0 111 -49 174.5t-134 63.5q-88 0 -138.5 -63.5t-50.5 -174.5q0 -110 49 -172.5t136 -62.5q88 0 137.5 62
t49.5 173z" />
    <glyph glyph-name="r" unicode="r" horiz-adv-x="469" 
d="M312 574q64 0 98 -41.5t34 -118.5q0 -15 -2.5 -38.5t-6.5 -39.5l-63 -9q4 19 6.5 43t2.5 40q0 56 -23 85t-66 29q-64 0 -102.5 -68.5t-38.5 -180.5v-275h-66v565h64v-133h3q21 68 63 105t97 37z" />
    <glyph glyph-name="s" unicode="s" horiz-adv-x="522" 
d="M275 49q68 0 106.5 29.5t38.5 81.5q0 37 -23 55.5t-100 32.5q-90 16 -134.5 30t-67.5 37q-18 17 -27 41.5t-9 55.5q0 73 54.5 119t141.5 46q89 0 146.5 -44.5t73.5 -126.5l-60 -17q-13 64 -53.5 97.5t-106.5 33.5q-62 0 -97.5 -27.5t-35.5 -76.5q0 -39 27 -61t96 -35
q117 -23 151 -34t56 -33q15 -15 23.5 -39t8.5 -51q0 -77 -58.5 -125t-152.5 -48q-105 0 -168.5 45.5t-80.5 131.5l63 17q16 -69 62 -102t126 -33z" />
    <glyph glyph-name="t" unicode="t" horiz-adv-x="404" 
d="M291 49q26 0 46 2.5t37 7.5v-57q-22 -7 -42.5 -10t-47.5 -3q-80 0 -118.5 40.5t-38.5 124.5v356h-120v55h120v126l66 38v-164h183v-55h-183v-350q0 -59 23 -85t75 -26z" />
    <glyph glyph-name="u" unicode="u" horiz-adv-x="629" 
d="M277 -12q-96 0 -147.5 54t-51.5 154v369h66v-347q0 -89 37.5 -131t115.5 -42q85 0 133 64.5t48 179.5v276h66v-565h-64v138h-3q-27 -72 -79 -111t-121 -39z" />
    <glyph glyph-name="v" unicode="v" horiz-adv-x="539" 
d="M460 565h68l-214 -565h-80l-223 565h69l197 -505z" />
    <glyph glyph-name="w" unicode="w" horiz-adv-x="781" 
d="M617 0h-76l-152 468l-147 -468h-75l-154 565h69l125 -492l156 492h54l164 -494l119 494h68z" />
    <glyph glyph-name="x" unicode="x" horiz-adv-x="519" 
d="M504 0h-75l-176 239l-165 -239h-73l202 287l-197 278h76l163 -234l158 234h69l-192 -281z" />
    <glyph glyph-name="y" unicode="y" horiz-adv-x="539" 
d="M528 565l-219 -565q-44 -116 -86.5 -156t-119.5 -40q-32 0 -70.5 9.5t-62.5 23.5l24 55q30 -15 60 -22.5t59 -7.5q34 0 59.5 18t46.5 57q7 12 13 25.5t13 31.5l-234 571h69l198 -487l182 487h68z" />
    <glyph glyph-name="z" unicode="z" horiz-adv-x="530" 
d="M422 510h-360v55h431v-57l-385 -453h390v-55h-464v57z" />
    <glyph glyph-name="braceleft" unicode="{" horiz-adv-x="378" 
d="M290 -171h80v-60h-82q-75 0 -107 27.5t-30 90.5l7 288q2 50 -18.5 68t-77.5 18h-59v60h59q57 0 77.5 18t18.5 68l-7 290q-2 63 30 90.5t107 27.5h82v-60h-80q-43 0 -58 -14t-15 -55v-270q0 -60 -24 -88.5t-82 -35.5v-2q58 -7 82 -35.5t24 -88.5v-268q0 -41 15 -55t58 -14
z" />
    <glyph glyph-name="bar" unicode="|" horiz-adv-x="226" 
d="M82 -231v1046h62v-1046h-62z" />
    <glyph glyph-name="braceright" unicode="}" horiz-adv-x="378" 
d="M88 755h-80v60h82q75 0 107 -27.5t30 -90.5l-7 -288q-2 -50 18.5 -68t77.5 -18h59v-60h-59q-57 0 -77.5 -18t-18.5 -68l7 -290q2 -63 -30 -90.5t-107 -27.5h-82v60h80q43 0 58 14t15 55v270q0 60 24 88.5t82 35.5v2q-58 7 -82 35.5t-24 88.5v268q0 41 -15 55t-58 14z" />
    <glyph glyph-name="asciitilde" unicode="~" horiz-adv-x="510" 
d="M363 337q23 0 30.5 18t7.5 66v44l55 -8v-39q0 -68 -23 -101.5t-69 -33.5q-25 0 -48 11t-49 37l-48 48q-16 16 -30 23t-28 7q-28 0 -40 -21t-12 -70v-37l-55 8v33q0 68 27.5 104.5t78.5 36.5q25 0 48 -10t42 -29l45 -44q27 -27 41 -35t27 -8z" />
    <glyph glyph-name="exclamdown" unicode="&#xa1;" horiz-adv-x="267" 
d="M169 28v-237h-71v237l21 353h29zM93 565h81v-106h-81v106z" />
    <glyph glyph-name="cent" unicode="&#xa2;" horiz-adv-x="585" 
d="M336 -11v-156h-59v156q-110 10 -171.5 88t-61.5 207q0 121 64 200.5t169 90.5v128h59v-127q80 -8 134 -60.5t77 -144.5l-64 -18q-15 72 -52.5 113.5t-94.5 50.5v-469q58 6 96 42t61 106l57 -22q-22 -80 -78.5 -128.5t-135.5 -56.5zM112 284q0 -100 43.5 -162.5
t121.5 -73.5v469q-78 -10 -121.5 -71.5t-43.5 -161.5z" />
    <glyph glyph-name="sterling" unicode="&#xa3;" horiz-adv-x="728" 
d="M192 342h-143v52h113q-20 40 -30 78t-10 76q0 104 70.5 171t182.5 67q111 0 180.5 -66.5t80.5 -181.5l-66 -15q-11 100 -60.5 151.5t-134.5 51.5q-87 0 -137 -47.5t-50 -128.5q0 -39 10 -76t32 -80h337v-52h-308q32 -56 45.5 -98t13.5 -81v-10t-1 -6q37 -30 60 -47.5
t32 -23.5q28 -18 55.5 -26t55.5 -8q58 0 83 36.5t19 109.5l-1 12h55q1 -13 2 -24.5t1 -19.5q0 -82 -42 -125t-117 -43q-52 0 -97.5 19.5t-117.5 83.5q-17 -45 -53 -70t-84 -25q-52 0 -83.5 29.5t-31.5 75.5q0 48 34 79t90 31q22 0 43 -6t43 -19q-4 28 -17.5 60.5t-53.5 95.5
zM175 161q-30 0 -47 -15t-17 -40q0 -27 17 -42.5t46 -15.5q34 0 56.5 21t30.5 60q-24 17 -44.5 24.5t-41.5 7.5z" />
    <glyph glyph-name="currency" unicode="&#xa4;" horiz-adv-x="653" 
d="M181 203l-66 -65l-41 41l69 68q-19 28 -28.5 63t-9.5 74q0 37 10.5 72t29.5 64l-71 70l41 41l68 -67q29 25 64.5 38.5t75.5 13.5q42 0 78.5 -14.5t65.5 -41.5l71 71l41 -41l-76 -76q17 -28 26 -61.5t9 -68.5t-9 -68t-26 -61l76 -76l-41 -41l-72 72q-28 -28 -65.5 -42.5
t-79.5 -14.5q-41 0 -76 12.5t-64 37.5zM321 211q70 0 112 48t42 125q0 76 -42.5 125t-109.5 49q-70 0 -112.5 -48.5t-42.5 -125.5q0 -72 43.5 -122.5t109.5 -50.5z" />
    <glyph glyph-name="yen" unicode="&#xa5;" horiz-adv-x="625" 
d="M285 174h-206v52h206v98h-206v52h175l-241 398h72l234 -386l222 386h71l-231 -398h177v-52h-205v-98h205v-52h-205v-174h-68v174z" />
    <glyph glyph-name="brokenbar" unicode="&#xa6;" horiz-adv-x="226" 
d="M82 366v449h62v-449h-62zM82 -231v467h62v-467h-62z" />
    <glyph glyph-name="section" unicode="&#xa7;" horiz-adv-x="601" 
d="M470 145q21 -19 32 -45t11 -57q0 -80 -59.5 -127.5t-159.5 -47.5q-95 0 -160 48t-80 129l64 13q15 -65 61 -98.5t120 -33.5q69 0 108.5 30.5t39.5 83.5q0 41 -25 66t-92 50l-182 69q-65 24 -94.5 58.5t-29.5 85.5q0 46 26.5 81t77.5 55q-21 21 -31 47t-10 57q0 82 56 131
t151 49q88 0 147.5 -48t71.5 -129l-62 -13q-13 64 -54 98t-106 34q-66 0 -102 -31t-36 -87q0 -41 26.5 -70t82.5 -48l191 -66q64 -23 94 -57.5t30 -86.5q0 -46 -27 -81.5t-80 -58.5zM86 377q0 -34 23 -58t72 -43l251 -95q40 14 61.5 39t21.5 57q0 35 -23 59t-72 42l-255 93
q-38 -12 -58.5 -36.5t-20.5 -57.5z" />
    <glyph glyph-name="dieresis" unicode="&#xa8;" horiz-adv-x="500" 
d="M202 678h-72v81h72v-81zM370 678h-72v81h72v-81z" />
    <glyph glyph-name="copyright" unicode="&#xa9;" horiz-adv-x="908" 
d="M454 -16q-171 0 -280.5 112.5t-109.5 287.5q0 176 110.5 289t283.5 113q169 0 277.5 -113t108.5 -289q0 -175 -109.5 -287.5t-280.5 -112.5zM458 737q-155 0 -247 -95.5t-92 -257.5q0 -156 93 -253.5t242 -97.5q152 0 243.5 96t91.5 255q0 161 -90 257t-241 96zM466 154
q-98 0 -154 60.5t-56 165.5q0 106 58 171.5t153 65.5q76 0 126 -43t66 -121l-64 -14q-11 56 -43.5 85.5t-84.5 29.5q-68 0 -105.5 -45.5t-37.5 -127.5q0 -76 38.5 -120.5t104.5 -44.5q52 0 84.5 26.5t48.5 82.5l62 -17q-19 -74 -70 -114t-126 -40z" />
    <glyph glyph-name="ordfeminine" unicode="&#xaa;" horiz-adv-x="410" 
d="M369 387q-41 0 -62.5 21t-21.5 62h-3q-18 -41 -52.5 -63.5t-78.5 -22.5q-54 0 -85.5 28.5t-31.5 76.5q0 52 30.5 80.5t93.5 36.5l59 8q37 5 53 17.5t16 36.5q0 31 -22 49t-59 18q-41 0 -66.5 -21.5t-37.5 -67.5l-54 11q16 60 57.5 92.5t100.5 32.5q66 0 101 -35.5
t35 -101.5v-160q0 -29 10 -40.5t36 -11.5q4 0 9 0.5t8 1.5v-43q-4 -2 -14 -3.5t-21 -1.5zM92 494q0 -32 19.5 -49.5t56.5 -17.5q54 0 86.5 39.5t32.5 105.5v29q-8 -8 -23.5 -13.5t-40.5 -9.5l-51 -8q-42 -7 -61 -25t-19 -51zM411 268h-392v49h392v-49z" />
    <glyph glyph-name="guillemotleft" unicode="&#xab;" horiz-adv-x="400" 
d="M7 93zM147 495h70l-139 -198l141 -204h-71l-141 201zM322 495h70l-139 -198l141 -204h-71l-141 201z" />
    <glyph glyph-name="logicalnot" unicode="&#xac;" horiz-adv-x="603" 
d="M447 386h-355v60h420v-264h-65v204z" />
    <glyph glyph-name="uni00AD" unicode="&#xad;" horiz-adv-x="409" 
d="M48 295zM361 295h-313v60h313v-60z" />
    <glyph glyph-name="registered" unicode="&#xae;" horiz-adv-x="508" 
d="M254 382q-93 0 -152.5 60t-59.5 154t60 154t152 60t152 -60t60 -154t-59.5 -154t-152.5 -60zM254 781q-82 0 -131 -50t-49 -135q0 -83 49.5 -134t130.5 -51q82 0 131 50.5t49 134.5q0 85 -49 135t-131 50zM301 533q-5 28 -14 35.5t-37 7.5h-38v-96h-42v242h103
q42 0 65.5 -17t23.5 -47q0 -27 -17 -45t-46 -21v-1q18 -4 27.5 -14.5t15.5 -34.5q6 -21 11 -36t10 -24v-2h-47q-4 8 -7.5 20t-7.5 33zM320 647q0 21 -14 30.5t-45 9.5h-49v-82h55q26 0 39.5 10.5t13.5 31.5z" />
    <glyph glyph-name="macron" unicode="&#xaf;" horiz-adv-x="500" 
d="M401 671h-301v50h301v-50z" />
    <glyph glyph-name="degree" unicode="&#xb0;" horiz-adv-x="489" 
d="M244 473q-68 0 -110 43t-42 112q0 66 43 110t111 44q67 0 109 -44t42 -110q0 -67 -42.5 -111t-110.5 -44zM246 730q-44 0 -71.5 -28.5t-27.5 -73.5q0 -46 26.5 -74t70.5 -28t71 28.5t27 73.5t-26.5 73.5t-69.5 28.5z" />
    <glyph glyph-name="plusminus" unicode="&#xb1;" horiz-adv-x="596" 
d="M330 362v-192h-64v192h-173v54h173v193h64v-193h173v-54h-173zM503 -3h-410v55h410v-55z" />
    <glyph glyph-name="uni00B2" unicode="&#xb2;" horiz-adv-x="336" 
d="M34 470zM249 737q0 35 -19 54.5t-53 19.5q-43 0 -65 -28.5t-20 -81.5l-55 11q0 69 37.5 107.5t103.5 38.5q59 0 93.5 -31.5t34.5 -85.5q0 -44 -24.5 -81.5t-79.5 -78.5l-85 -64h200v-47h-283v42l124 93q47 36 69 67.5t22 64.5z" />
    <glyph glyph-name="uni00B3" unicode="&#xb3;" horiz-adv-x="325" 
d="M21 464zM236 753q0 29 -17 43.5t-50 14.5q-37 0 -57.5 -19t-25.5 -56l-51 12q10 52 46 81t91 29q56 0 88.5 -26t32.5 -70q0 -32 -19.5 -55t-53.5 -33v-2q44 -8 67 -31.5t23 -61.5q0 -52 -38 -83.5t-100 -31.5q-65 0 -104.5 31.5t-46.5 88.5l54 14q3 -43 28 -65t69 -22
q39 0 60 19t21 54q0 33 -22 48.5t-71 15.5h-48v44h46q38 0 58 15.5t20 45.5z" />
    <glyph glyph-name="acute" unicode="&#xb4;" horiz-adv-x="500" 
d="M235 632h-54l69 178h70z" />
    <glyph glyph-name="uni00B5" unicode="&#xb5;" horiz-adv-x="648" 
d="M78 -185v750h66v-340q0 -90 40.5 -134.5t120.5 -44.5q78 0 124.5 67t46.5 190v262h66v-433q0 -46 15.5 -64t55.5 -18q8 0 14 0.5t11 1.5v-53q-7 -3 -19.5 -4.5t-24.5 -1.5q-58 0 -87 32.5t-29 99.5v14h-3q-28 -73 -77.5 -111.5t-113.5 -38.5q-51 0 -86.5 17t-57.5 52
v-243h-62z" />
    <glyph glyph-name="paragraph" unicode="&#xb6;" horiz-adv-x="555" 
d="M358 -130h-56v518h-43q-98 0 -158.5 54t-60.5 142t57.5 139t158.5 51h229v-904h-56v856h-71v-856z" />
    <glyph glyph-name="periodcentered" unicode="&#xb7;" horiz-adv-x="153" 
d="M117 263h-81v106h81v-106z" />
    <glyph glyph-name="cedilla" unicode="&#xb8;" horiz-adv-x="500" 
d="M253 -182q33 0 50 11.5t17 33.5q0 18 -10.5 28t-29.5 10q-15 0 -28 -6.5t-19 -17.5l-43 8l37 123h52l-22 -79q8 4 18 6t23 2q32 0 53.5 -20t21.5 -53q0 -42 -33 -67.5t-88 -25.5q-34 0 -68 8t-57 21l25 45q19 -12 46.5 -19.5t54.5 -7.5z" />
    <glyph glyph-name="uni00B9" unicode="&#xb9;" horiz-adv-x="201" 
d="M6 470zM6 762v41h59q23 0 30 5.5t9 26.5l1 17h45v-382h-57v292h-87z" />
    <glyph glyph-name="ordmasculine" unicode="&#xba;" horiz-adv-x="410" 
d="M204 384q-82 0 -129 53.5t-47 145.5q0 91 48.5 145t129.5 54t128.5 -53.5t47.5 -144.5q0 -94 -47.5 -147t-130.5 -53zM206 432q58 0 88 39t30 113q0 70 -31.5 109.5t-86.5 39.5q-56 0 -87.5 -39.5t-31.5 -109.5q0 -71 32 -111.5t87 -40.5zM391 268h-372v49h372v-49z" />
    <glyph glyph-name="guillemotright" unicode="&#xbb;" horiz-adv-x="400" 
d="M7 93zM77 495l142 -201l-141 -201h-70l139 198l-140 204h70zM252 495l142 -201l-141 -201h-70l139 198l-140 204h70z" />
    <glyph glyph-name="onequarter" unicode="&#xbc;" horiz-adv-x="694" 
d="M6 0zM570 774h70l-562 -774h-72zM14 392zM14 684v41h59q23 0 30 5.5t9 26.5l1 17h45v-382h-57v292h-87zM684 133v-46h-67v-87h-56v87h-185v51l183 244h58v-249h67zM563 321l-138 -188h138v188z" />
    <glyph glyph-name="onehalf" unicode="&#xbd;" horiz-adv-x="710" 
d="M6 0zM570 774h70l-562 -774h-72zM14 392zM14 684v41h59q23 0 30 5.5t9 26.5l1 17h45v-382h-57v292h-87zM623 267q0 35 -19 54.5t-53 19.5q-43 0 -65 -28.5t-20 -81.5l-55 11q0 69 37.5 107.5t103.5 38.5q59 0 93.5 -31.5t34.5 -85.5q0 -44 -24.5 -81.5t-79.5 -78.5
l-85 -64h200v-47h-283v42l124 93q47 36 69 67.5t22 64.5z" />
    <glyph glyph-name="threequarters" unicode="&#xbe;" horiz-adv-x="794" 
d="M21 0zM670 774h70l-562 -774h-72zM21 386zM236 675q0 29 -17 43.5t-50 14.5q-37 0 -57.5 -19t-25.5 -56l-51 12q10 52 46 81t91 29q56 0 88.5 -26t32.5 -70q0 -32 -19.5 -55t-53.5 -33v-2q44 -8 67 -31.5t23 -61.5q0 -52 -38 -83.5t-100 -31.5q-65 0 -104.5 31.5
t-46.5 88.5l54 14q3 -43 28 -65t69 -22q39 0 60 19t21 54q0 33 -22 48.5t-71 15.5h-48v44h46q38 0 58 15.5t20 45.5zM784 133v-46h-67v-87h-56v87h-185v51l183 244h58v-249h67zM663 321l-138 -188h138v188z" />
    <glyph glyph-name="questiondown" unicode="&#xbf;" horiz-adv-x="508" 
d="M244 -162q86 0 133 46.5t67 150.5l61 -15q-21 -118 -88 -179t-176 -61q-103 0 -166 55.5t-63 146.5q0 58 27.5 102t98.5 99q61 47 76.5 76t15.5 95v32h62v-40q0 -69 -23.5 -110t-93.5 -95q-57 -44 -77 -77t-20 -81q0 -66 45 -105.5t121 -39.5zM220 565h81v-106h-81v106z
" />
    <glyph glyph-name="Agrave" unicode="&#xc0;" horiz-adv-x="710" 
d="M30 0zM100 0h-70l277 774h79l294 -774h-71l-84 228h-346zM347 710l-147 -423h303zM323 970l51 -138h-54l-67 138h70z" />
    <glyph glyph-name="Aacute" unicode="&#xc1;" horiz-adv-x="710" 
d="M30 0zM100 0h-70l277 774h79l294 -774h-71l-84 228h-346zM347 710l-147 -423h303zM374 832h-54l51 138h70z" />
    <glyph glyph-name="Acircumflex" unicode="&#xc2;" horiz-adv-x="710" 
d="M30 0zM100 0h-70l277 774h79l294 -774h-71l-84 228h-346zM347 710l-147 -423h303zM270 828h-61l115 138h45l116 -138h-64l-75 81z" />
    <glyph glyph-name="Atilde" unicode="&#xc3;" horiz-adv-x="710" 
d="M30 0zM100 0h-70l277 774h79l294 -774h-71l-84 228h-346zM347 710l-147 -423h303zM277 954q21 0 41 -9t52 -36q24 -21 36.5 -27t24.5 -6q20 0 29 18.5t7 57.5l48 -8q0 -57 -21 -87t-61 -30q-22 0 -42.5 9t-53.5 37q-24 20 -36 26t-23 6q-23 0 -34 -19t-10 -59l-48 8
q0 57 24 88t67 31z" />
    <glyph glyph-name="Adieresis" unicode="&#xc4;" horiz-adv-x="710" 
d="M30 0zM100 0h-70l277 774h79l294 -774h-71l-84 228h-346zM347 710l-147 -423h303zM299 838h-72v81h72v-81zM467 838h-72v81h72v-81z" />
    <glyph glyph-name="Aring" unicode="&#xc5;" horiz-adv-x="710" 
d="M30 0zM100 0h-70l277 774h79l294 -774h-71l-84 228h-346zM347 710l-147 -423h303zM440 916q0 -41 -26.5 -68.5t-66.5 -27.5q-41 0 -67 26.5t-26 67.5t26.5 68.5t66.5 27.5t66.5 -26.5t26.5 -67.5zM296 914q0 -24 14.5 -39.5t38.5 -15.5q23 0 37 15.5t14 41.5t-14.5 41.5
t-38.5 15.5q-23 0 -37 -16.5t-14 -42.5z" />
    <glyph glyph-name="AE" unicode="&#xc6;" horiz-adv-x="1026" 
d="M591 59h387v-59h-441l-32 228h-310l-113 -228h-72l392 774h556v-59h-461l41 -285h393v-57h-385zM436 712l-211 -425h271z" />
    <glyph glyph-name="Ccedilla" unicode="&#xc7;" horiz-adv-x="770" 
d="M51 379q0 183 99 295t260 112q127 0 211 -71.5t112 -203.5l-66 -15q-22 110 -88 168.5t-169 58.5q-137 0 -213 -90.5t-76 -253.5q0 -152 77 -240t210 -88q104 0 168.5 52t98.5 163l63 -21q-34 -120 -115 -186.5t-199 -70.5l-17 -59q8 4 18 6t23 2q32 0 53.5 -20t21.5 -53
q0 -42 -33 -67.5t-88 -25.5q-34 0 -68 8t-57 21l25 45q19 -12 46.5 -19.5t54.5 -7.5q33 0 50 11.5t17 33.5q0 18 -10.5 28t-29.5 10q-15 0 -28 -6.5t-19 -17.5l-43 8l31 104q-150 12 -235 115.5t-85 274.5z" />
    <glyph glyph-name="Egrave" unicode="&#xc8;" horiz-adv-x="648" 
d="M91 0zM91 0v774h489v-59h-421v-285h394v-57h-394v-314h441v-59h-509zM330 970l51 -138h-54l-67 138h70z" />
    <glyph glyph-name="Eacute" unicode="&#xc9;" horiz-adv-x="648" 
d="M91 0zM91 0v774h489v-59h-421v-285h394v-57h-394v-314h441v-59h-509zM381 832h-54l51 138h70z" />
    <glyph glyph-name="Ecircumflex" unicode="&#xca;" horiz-adv-x="648" 
d="M91 0zM91 0v774h489v-59h-421v-285h394v-57h-394v-314h441v-59h-509zM277 828h-61l115 138h45l116 -138h-64l-75 81z" />
    <glyph glyph-name="Edieresis" unicode="&#xcb;" horiz-adv-x="648" 
d="M91 0zM91 0v774h489v-59h-421v-285h394v-57h-394v-314h441v-59h-509zM306 838h-72v81h72v-81zM474 838h-72v81h72v-81z" />
    <glyph glyph-name="Igrave" unicode="&#xcc;" horiz-adv-x="256" 
d="M34 0zM94 0v774h68v-774h-68zM104 970l51 -138h-54l-67 138h70z" />
    <glyph glyph-name="Iacute" unicode="&#xcd;" horiz-adv-x="256" 
d="M94 0zM94 0v774h68v-774h-68zM155 832h-54l51 138h70z" />
    <glyph glyph-name="Icircumflex" unicode="&#xce;" horiz-adv-x="256" 
d="M0 0zM94 0v774h68v-774h-68zM51 828h-61l115 138h45l116 -138h-64l-75 81z" />
    <glyph glyph-name="Idieresis" unicode="&#xcf;" horiz-adv-x="256" 
d="M8 0zM94 0v774h68v-774h-68zM80 838h-72v81h72v-81zM248 838h-72v81h72v-81z" />
    <glyph glyph-name="Eth" unicode="&#xd0;" horiz-adv-x="797" 
d="M101 367h-109v54h109v353h228q200 0 308.5 -100.5t108.5 -285.5q0 -184 -109.5 -286t-306.5 -102h-229v367zM676 387q0 161 -89 244.5t-262 83.5h-156v-294h202v-54h-202v-308h141q186 0 276 80.5t90 247.5z" />
    <glyph glyph-name="Ntilde" unicode="&#xd1;" horiz-adv-x="758" 
d="M91 0zM602 774h65v-774h-79l-432 708v-708h-65v774h100l411 -678v678zM319 944q21 0 41 -9t52 -36q24 -21 36.5 -27t24.5 -6q20 0 29 18.5t7 57.5l48 -8q0 -57 -21 -87t-61 -30q-22 0 -42.5 9t-53.5 37q-24 20 -36 26t-23 6q-23 0 -34 -19t-10 -59l-48 8q0 57 24 88
t67 31z" />
    <glyph glyph-name="Ograve" unicode="&#xd2;" horiz-adv-x="801" 
d="M51 0zM401 -12q-166 0 -258 104t-92 292q0 182 97 292t258 110q157 0 250.5 -109t93.5 -293q0 -181 -94.5 -288.5t-254.5 -107.5zM618 151q31 43 46.5 101.5t15.5 131.5q0 156 -74 247.5t-200 91.5q-73 0 -129 -26.5t-92 -77.5q-32 -43 -48 -102.5t-16 -132.5
q0 -158 73.5 -245.5t206.5 -87.5q71 0 125.5 25t91.5 75zM382 970l51 -138h-54l-67 138h70z" />
    <glyph glyph-name="Oacute" unicode="&#xd3;" horiz-adv-x="801" 
d="M51 0zM401 -12q-166 0 -258 104t-92 292q0 182 97 292t258 110q157 0 250.5 -109t93.5 -293q0 -181 -94.5 -288.5t-254.5 -107.5zM618 151q31 43 46.5 101.5t15.5 131.5q0 156 -74 247.5t-200 91.5q-73 0 -129 -26.5t-92 -77.5q-32 -43 -48 -102.5t-16 -132.5
q0 -158 73.5 -245.5t206.5 -87.5q71 0 125.5 25t91.5 75zM433 832h-54l51 138h70z" />
    <glyph glyph-name="Ocircumflex" unicode="&#xd4;" horiz-adv-x="801" 
d="M51 0zM401 -12q-166 0 -258 104t-92 292q0 182 97 292t258 110q157 0 250.5 -109t93.5 -293q0 -181 -94.5 -288.5t-254.5 -107.5zM618 151q31 43 46.5 101.5t15.5 131.5q0 156 -74 247.5t-200 91.5q-73 0 -129 -26.5t-92 -77.5q-32 -43 -48 -102.5t-16 -132.5
q0 -158 73.5 -245.5t206.5 -87.5q71 0 125.5 25t91.5 75zM329 828h-61l115 138h45l116 -138h-64l-75 81z" />
    <glyph glyph-name="Otilde" unicode="&#xd5;" horiz-adv-x="801" 
d="M51 0zM401 -12q-166 0 -258 104t-92 292q0 182 97 292t258 110q157 0 250.5 -109t93.5 -293q0 -181 -94.5 -288.5t-254.5 -107.5zM618 151q31 43 46.5 101.5t15.5 131.5q0 156 -74 247.5t-200 91.5q-73 0 -129 -26.5t-92 -77.5q-32 -43 -48 -102.5t-16 -132.5
q0 -158 73.5 -245.5t206.5 -87.5q71 0 125.5 25t91.5 75zM336 954q21 0 41 -9t52 -36q24 -21 36.5 -27t24.5 -6q20 0 29 18.5t7 57.5l48 -8q0 -57 -21 -87t-61 -30q-22 0 -42.5 9t-53.5 37q-24 20 -36 26t-23 6q-23 0 -34 -19t-10 -59l-48 8q0 57 24 88t67 31z" />
    <glyph glyph-name="Odieresis" unicode="&#xd6;" horiz-adv-x="801" 
d="M51 0zM401 -12q-166 0 -258 104t-92 292q0 182 97 292t258 110q157 0 250.5 -109t93.5 -293q0 -181 -94.5 -288.5t-254.5 -107.5zM618 151q31 43 46.5 101.5t15.5 131.5q0 156 -74 247.5t-200 91.5q-73 0 -129 -26.5t-92 -77.5q-32 -43 -48 -102.5t-16 -132.5
q0 -158 73.5 -245.5t206.5 -87.5q71 0 125.5 25t91.5 75zM358 838h-72v81h72v-81zM526 838h-72v81h72v-81z" />
    <glyph glyph-name="multiply" unicode="&#xd7;" horiz-adv-x="596" 
d="M151 191l-38 37l146 149l-148 149l39 40l153 -153l145 150l37 -37l-145 -150l145 -145l-40 -40l-149 149z" />
    <glyph glyph-name="Oslash" unicode="&#xd8;" horiz-adv-x="801" 
d="M103 -19l-47 40l73 88q-39 51 -58.5 120.5t-19.5 154.5q0 182 97 292t258 110q65 0 120.5 -19.5t98.5 -57.5l59 73l48 -37l-66 -80q41 -53 62.5 -124.5t21.5 -156.5q0 -181 -94.5 -288.5t-254.5 -107.5q-69 0 -126.5 19t-102.5 57zM185 619q-32 -43 -48 -102.5
t-16 -132.5q0 -68 14 -123.5t41 -98.5l403 498q-34 31 -78 47t-95 16q-73 0 -129 -26.5t-92 -77.5zM618 151q31 43 46.5 101.5t15.5 131.5q0 69 -15.5 127.5t-45.5 102.5l-402 -499q36 -32 82 -48t102 -16q71 0 125.5 25t91.5 75z" />
    <glyph glyph-name="Ugrave" unicode="&#xd9;" horiz-adv-x="772" 
d="M84 0zM152 774v-477q0 -126 59 -186t183 -60q113 0 170 64.5t57 191.5v467h67v-471q0 -152 -77.5 -233.5t-222.5 -81.5q-148 0 -226 76t-78 221v489h68zM362 960l51 -138h-54l-67 138h70z" />
    <glyph glyph-name="Uacute" unicode="&#xda;" horiz-adv-x="772" 
d="M84 0zM152 774v-477q0 -126 59 -186t183 -60q113 0 170 64.5t57 191.5v467h67v-471q0 -152 -77.5 -233.5t-222.5 -81.5q-148 0 -226 76t-78 221v489h68zM413 822h-54l51 138h70z" />
    <glyph glyph-name="Ucircumflex" unicode="&#xdb;" horiz-adv-x="772" 
d="M84 0zM152 774v-477q0 -126 59 -186t183 -60q113 0 170 64.5t57 191.5v467h67v-471q0 -152 -77.5 -233.5t-222.5 -81.5q-148 0 -226 76t-78 221v489h68zM309 818h-61l115 138h45l116 -138h-64l-75 81z" />
    <glyph glyph-name="Udieresis" unicode="&#xdc;" horiz-adv-x="772" 
d="M84 0zM152 774v-477q0 -126 59 -186t183 -60q113 0 170 64.5t57 191.5v467h67v-471q0 -152 -77.5 -233.5t-222.5 -81.5q-148 0 -226 76t-78 221v489h68zM338 828h-72v81h72v-81zM506 828h-72v81h72v-81z" />
    <glyph glyph-name="Yacute" unicode="&#xdd;" horiz-adv-x="625" 
d="M13 0zM541 774h71l-259 -447v-327h-68v325l-272 449h72l234 -386zM345 832h-54l51 138h70z" />
    <glyph glyph-name="Thorn" unicode="&#xde;" horiz-adv-x="652" 
d="M91 0v774h68v-169h186q131 0 200 -54.5t69 -157.5q0 -112 -72.5 -168.5t-215.5 -56.5h-167v-168h-68zM544 394q0 79 -50 116t-156 37h-179v-321h159q122 0 174 38.5t52 129.5z" />
    <glyph glyph-name="germandbls" unicode="&#xdf;" horiz-adv-x="642" 
d="M473 630q0 65 -36.5 100t-103.5 35q-86 0 -132.5 -59.5t-46.5 -170.5v-535h-66v538q0 131 67 207.5t182 76.5q91 0 146 -50.5t55 -133.5q0 -65 -37.5 -112.5t-102.5 -65.5v-2q99 -21 150 -79.5t51 -150.5q0 -111 -67 -175t-182 -64q-26 0 -50 2.5t-56 8.5v59
q30 -6 53.5 -9t45.5 -3q92 0 141.5 49t49.5 140q0 97 -60 145.5t-179 48.5h-38v54h66q73 0 111.5 37.5t38.5 108.5z" />
    <glyph glyph-name="agrave" unicode="&#xe0;" horiz-adv-x="600" 
d="M55 0zM546 -6q-57 0 -87 30.5t-30 89.5v14h-3q-26 -67 -77 -103.5t-121 -36.5q-80 0 -126.5 41.5t-46.5 113.5q0 37 11.5 66.5t35.5 52.5q22 20 56.5 33.5t82.5 21.5l82 14q59 10 82.5 28t23.5 54q0 50 -34.5 79t-94.5 29q-65 0 -105 -34.5t-60 -107.5l-64 16
q25 88 84 135t144 47q94 0 144.5 -51t50.5 -146v-248q0 -46 15.5 -63.5t55.5 -17.5q6 0 11.5 0.5t13.5 1.5v-53q-7 -2 -20 -4t-24 -2zM123 150q0 -51 31.5 -79.5t87.5 -28.5q86 0 138 62.5t52 166.5v53q-11 -13 -34.5 -22t-68.5 -18l-80 -15q-69 -13 -97.5 -40t-28.5 -79z
M252 810l69 -178h-54l-85 178h70z" />
    <glyph glyph-name="aacute" unicode="&#xe1;" horiz-adv-x="600" 
d="M55 0zM546 -6q-57 0 -87 30.5t-30 89.5v14h-3q-26 -67 -77 -103.5t-121 -36.5q-80 0 -126.5 41.5t-46.5 113.5q0 37 11.5 66.5t35.5 52.5q22 20 56.5 33.5t82.5 21.5l82 14q59 10 82.5 28t23.5 54q0 50 -34.5 79t-94.5 29q-65 0 -105 -34.5t-60 -107.5l-64 16
q25 88 84 135t144 47q94 0 144.5 -51t50.5 -146v-248q0 -46 15.5 -63.5t55.5 -17.5q6 0 11.5 0.5t13.5 1.5v-53q-7 -2 -20 -4t-24 -2zM123 150q0 -51 31.5 -79.5t87.5 -28.5q86 0 138 62.5t52 166.5v53q-11 -13 -34.5 -22t-68.5 -18l-80 -15q-69 -13 -97.5 -40t-28.5 -79z
M321 632h-54l69 178h70z" />
    <glyph glyph-name="acircumflex" unicode="&#xe2;" horiz-adv-x="600" 
d="M55 0zM546 -6q-57 0 -87 30.5t-30 89.5v14h-3q-26 -67 -77 -103.5t-121 -36.5q-80 0 -126.5 41.5t-46.5 113.5q0 37 11.5 66.5t35.5 52.5q22 20 56.5 33.5t82.5 21.5l82 14q59 10 82.5 28t23.5 54q0 50 -34.5 79t-94.5 29q-65 0 -105 -34.5t-60 -107.5l-64 16
q25 88 84 135t144 47q94 0 144.5 -51t50.5 -146v-248q0 -46 15.5 -63.5t55.5 -17.5q6 0 11.5 0.5t13.5 1.5v-53q-7 -2 -20 -4t-24 -2zM123 150q0 -51 31.5 -79.5t87.5 -28.5q86 0 138 62.5t52 166.5v53q-11 -13 -34.5 -22t-68.5 -18l-80 -15q-69 -13 -97.5 -40t-28.5 -79z
M213 632h-61l117 178h45l122 -178h-64l-82 118z" />
    <glyph glyph-name="atilde" unicode="&#xe3;" horiz-adv-x="600" 
d="M55 0zM546 -6q-57 0 -87 30.5t-30 89.5v14h-3q-26 -67 -77 -103.5t-121 -36.5q-80 0 -126.5 41.5t-46.5 113.5q0 37 11.5 66.5t35.5 52.5q22 20 56.5 33.5t82.5 21.5l82 14q59 10 82.5 28t23.5 54q0 50 -34.5 79t-94.5 29q-65 0 -105 -34.5t-60 -107.5l-64 16
q25 88 84 135t144 47q94 0 144.5 -51t50.5 -146v-248q0 -46 15.5 -63.5t55.5 -17.5q6 0 11.5 0.5t13.5 1.5v-53q-7 -2 -20 -4t-24 -2zM123 150q0 -51 31.5 -79.5t87.5 -28.5q86 0 138 62.5t52 166.5v53q-11 -13 -34.5 -22t-68.5 -18l-80 -15q-69 -13 -97.5 -40t-28.5 -79z
M216 788q21 0 41 -10.5t52 -42.5q24 -25 36.5 -32.5t24.5 -7.5q20 0 29 22.5t7 68.5l48 -8q0 -64 -21 -98t-61 -34q-22 0 -42.5 10.5t-53.5 44.5q-24 24 -36 31t-23 7q-23 0 -34 -22.5t-10 -70.5l-48 8q0 64 24 99t67 35z" />
    <glyph glyph-name="adieresis" unicode="&#xe4;" horiz-adv-x="600" 
d="M55 0zM546 -6q-57 0 -87 30.5t-30 89.5v14h-3q-26 -67 -77 -103.5t-121 -36.5q-80 0 -126.5 41.5t-46.5 113.5q0 37 11.5 66.5t35.5 52.5q22 20 56.5 33.5t82.5 21.5l82 14q59 10 82.5 28t23.5 54q0 50 -34.5 79t-94.5 29q-65 0 -105 -34.5t-60 -107.5l-64 16
q25 88 84 135t144 47q94 0 144.5 -51t50.5 -146v-248q0 -46 15.5 -63.5t55.5 -17.5q6 0 11.5 0.5t13.5 1.5v-53q-7 -2 -20 -4t-24 -2zM123 150q0 -51 31.5 -79.5t87.5 -28.5q86 0 138 62.5t52 166.5v53q-11 -13 -34.5 -22t-68.5 -18l-80 -15q-69 -13 -97.5 -40t-28.5 -79z
M246 678h-72v81h72v-81zM414 678h-72v81h72v-81z" />
    <glyph glyph-name="aring" unicode="&#xe5;" horiz-adv-x="600" 
d="M55 0zM546 -6q-57 0 -87 30.5t-30 89.5v14h-3q-26 -67 -77 -103.5t-121 -36.5q-80 0 -126.5 41.5t-46.5 113.5q0 37 11.5 66.5t35.5 52.5q22 20 56.5 33.5t82.5 21.5l82 14q59 10 82.5 28t23.5 54q0 50 -34.5 79t-94.5 29q-65 0 -105 -34.5t-60 -107.5l-64 16
q25 88 84 135t144 47q94 0 144.5 -51t50.5 -146v-248q0 -46 15.5 -63.5t55.5 -17.5q6 0 11.5 0.5t13.5 1.5v-53q-7 -2 -20 -4t-24 -2zM123 150q0 -51 31.5 -79.5t87.5 -28.5q86 0 138 62.5t52 166.5v53q-11 -13 -34.5 -22t-68.5 -18l-80 -15q-69 -13 -97.5 -40t-28.5 -79z
M400 744q0 -48 -29.5 -78.5t-76.5 -30.5q-48 0 -77 29.5t-29 77.5t30.5 79t77.5 31q46 0 75 -30t29 -78zM232 743q0 -31 17 -49.5t45 -18.5q29 0 46 18t17 50q0 33 -16.5 51t-45.5 18q-28 0 -45.5 -19t-17.5 -50z" />
    <glyph glyph-name="ae" unicode="&#xe6;" horiz-adv-x="952" 
d="M692 46q63 0 105.5 33t69.5 104l56 -23q-32 -84 -91.5 -128t-140.5 -44q-82 0 -142 42t-88 120h-3q-29 -80 -87 -121t-143 -41q-80 0 -126.5 41.5t-46.5 113.5q0 37 11.5 66.5t35.5 52.5q22 20 56 33.5t83 21.5l82 14q59 10 82.5 28t23.5 54q0 49 -34.5 78.5t-91.5 29.5
q-67 0 -108 -34.5t-60 -107.5l-64 16q25 88 84 135t144 47q66 0 112 -29.5t67 -86.5q34 56 86 86t117 30t116 -31.5t80 -90.5q18 -36 27.5 -82t10.5 -101h-417q3 -104 55.5 -165t138.5 -61zM824 422q-21 47 -58 72t-86 25q-79 0 -126 -51t-55 -145h345q-1 29 -6 54t-14 45z
M123 148q0 -50 31.5 -78t87.5 -28q87 0 137.5 64.5t50.5 174.5v40q-12 -12 -36 -20.5t-65 -16.5l-80 -15q-68 -13 -97 -41t-29 -80z" />
    <glyph glyph-name="ccedilla" unicode="&#xe7;" horiz-adv-x="585" 
d="M306 519q-90 0 -142 -63t-52 -172q0 -110 52.5 -174t143.5 -64q71 0 115.5 36t69.5 114l57 -22q-23 -81 -80.5 -129.5t-138.5 -55.5l-17 -61q8 4 18 6t23 2q32 0 53.5 -20t21.5 -53q0 -42 -33 -67.5t-88 -25.5q-34 0 -68 8t-57 21l25 45q19 -12 46.5 -19.5t54.5 -7.5
q33 0 50 11.5t17 33.5q0 18 -10.5 28t-29.5 10q-15 0 -28 -6.5t-19 -17.5l-43 8l32 105q-110 9 -172.5 87t-62.5 208t73.5 211.5t190.5 81.5q91 0 152.5 -53t86.5 -153l-64 -18q-17 81 -62.5 123.5t-114.5 42.5z" />
    <glyph glyph-name="egrave" unicode="&#xe8;" horiz-adv-x="576" 
d="M44 0zM308 -12q-121 0 -192.5 80.5t-71.5 215.5q0 129 71.5 211t184.5 82q67 0 119.5 -31.5t81.5 -90.5q18 -36 27.5 -82t10.5 -101h-427q3 -104 56 -165t141 -61q68 0 111.5 33t70.5 104l56 -23q-32 -84 -93.5 -128t-145.5 -44zM448 422q-21 47 -59.5 72t-89.5 25
q-77 0 -127 -52.5t-58 -143.5h355q-1 31 -6 53.5t-15 45.5zM254 810l69 -178h-54l-85 178h70z" />
    <glyph glyph-name="eacute" unicode="&#xe9;" horiz-adv-x="576" 
d="M44 0zM308 -12q-121 0 -192.5 80.5t-71.5 215.5q0 129 71.5 211t184.5 82q67 0 119.5 -31.5t81.5 -90.5q18 -36 27.5 -82t10.5 -101h-427q3 -104 56 -165t141 -61q68 0 111.5 33t70.5 104l56 -23q-32 -84 -93.5 -128t-145.5 -44zM448 422q-21 47 -59.5 72t-89.5 25
q-77 0 -127 -52.5t-58 -143.5h355q-1 31 -6 53.5t-15 45.5zM323 632h-54l69 178h70z" />
    <glyph glyph-name="ecircumflex" unicode="&#xea;" horiz-adv-x="576" 
d="M44 0zM308 -12q-121 0 -192.5 80.5t-71.5 215.5q0 129 71.5 211t184.5 82q67 0 119.5 -31.5t81.5 -90.5q18 -36 27.5 -82t10.5 -101h-427q3 -104 56 -165t141 -61q68 0 111.5 33t70.5 104l56 -23q-32 -84 -93.5 -128t-145.5 -44zM448 422q-21 47 -59.5 72t-89.5 25
q-77 0 -127 -52.5t-58 -143.5h355q-1 31 -6 53.5t-15 45.5zM215 632h-61l117 178h45l122 -178h-64l-82 118z" />
    <glyph glyph-name="edieresis" unicode="&#xeb;" horiz-adv-x="576" 
d="M44 0zM308 -12q-121 0 -192.5 80.5t-71.5 215.5q0 129 71.5 211t184.5 82q67 0 119.5 -31.5t81.5 -90.5q18 -36 27.5 -82t10.5 -101h-427q3 -104 56 -165t141 -61q68 0 111.5 33t70.5 104l56 -23q-32 -84 -93.5 -128t-145.5 -44zM448 422q-21 47 -59.5 72t-89.5 25
q-77 0 -127 -52.5t-58 -143.5h355q-1 31 -6 53.5t-15 45.5zM248 678h-72v81h72v-81zM416 678h-72v81h72v-81z" />
    <glyph glyph-name="igrave" unicode="&#xec;" horiz-adv-x="240" 
d="M8 0zM87 0v565h66v-565h-66zM78 810l69 -178h-54l-85 178h70z" />
    <glyph glyph-name="iacute" unicode="&#xed;" horiz-adv-x="240" 
d="M87 0zM87 0v565h66v-565h-66zM147 632h-54l69 178h70z" />
    <glyph glyph-name="icircumflex" unicode="&#xee;" horiz-adv-x="240" 
d="M0 0zM87 0v565h66v-565h-66zM39 632h-61l117 178h45l122 -178h-64l-82 118z" />
    <glyph glyph-name="idieresis" unicode="&#xef;" horiz-adv-x="240" 
d="M0 0zM87 0v565h66v-565h-66zM72 678h-72v81h72v-81zM240 678h-72v81h72v-81z" />
    <glyph glyph-name="eth" unicode="&#xf0;" horiz-adv-x="598" 
d="M372 701l109 67l24 -40l-107 -65l42 -60q57 -82 86.5 -163.5t29.5 -155.5q0 -64 -13 -113.5t-39 -87.5q-33 -47 -85 -71t-120 -24q-117 0 -186 71t-69 191q0 121 69 195t183 74q51 0 92.5 -21.5t71.5 -63.5l3 2q-10 27 -25.5 56t-39.5 65l-53 79l-106 -63l-24 40l104 62
l-79 117l50 28zM301 46q89 0 138 55t49 153t-49.5 154.5t-136.5 56.5q-90 0 -140 -56t-50 -156q0 -97 50 -152t139 -55z" />
    <glyph glyph-name="ntilde" unicode="&#xf1;" horiz-adv-x="633" 
d="M85 0zM85 0v565h64v-141h3q28 72 82.5 112.5t124.5 40.5q95 0 145.5 -58.5t50.5 -170.5v-348h-66v333q0 98 -35.5 142.5t-114.5 44.5q-87 0 -137.5 -67t-50.5 -183v-270h-66zM244 788q21 0 41 -10.5t52 -42.5q24 -25 36.5 -32.5t24.5 -7.5q20 0 29 22.5t7 68.5l48 -8
q0 -64 -21 -98t-61 -34q-22 0 -42.5 10.5t-53.5 44.5q-24 24 -36 31t-23 7q-23 0 -34 -22.5t-10 -70.5l-48 8q0 64 24 99t67 35z" />
    <glyph glyph-name="ograve" unicode="&#xf2;" horiz-adv-x="600" 
d="M44 0zM299 -12q-118 0 -186.5 78.5t-68.5 215.5q0 134 70 214.5t188 80.5t186 -78.5t68 -214.5q0 -138 -68.5 -217t-188.5 -79zM301 46q91 0 139 61t48 176q0 111 -49 173.5t-137 62.5q-91 0 -140.5 -60.5t-49.5 -173.5q0 -114 49.5 -176.5t139.5 -62.5zM258 810l69 -178
h-54l-85 178h70z" />
    <glyph glyph-name="oacute" unicode="&#xf3;" horiz-adv-x="600" 
d="M44 0zM299 -12q-118 0 -186.5 78.5t-68.5 215.5q0 134 70 214.5t188 80.5t186 -78.5t68 -214.5q0 -138 -68.5 -217t-188.5 -79zM301 46q91 0 139 61t48 176q0 111 -49 173.5t-137 62.5q-91 0 -140.5 -60.5t-49.5 -173.5q0 -114 49.5 -176.5t139.5 -62.5zM327 632h-54
l69 178h70z" />
    <glyph glyph-name="ocircumflex" unicode="&#xf4;" horiz-adv-x="600" 
d="M44 0zM299 -12q-118 0 -186.5 78.5t-68.5 215.5q0 134 70 214.5t188 80.5t186 -78.5t68 -214.5q0 -138 -68.5 -217t-188.5 -79zM301 46q91 0 139 61t48 176q0 111 -49 173.5t-137 62.5q-91 0 -140.5 -60.5t-49.5 -173.5q0 -114 49.5 -176.5t139.5 -62.5zM219 632h-61
l117 178h45l122 -178h-64l-82 118z" />
    <glyph glyph-name="otilde" unicode="&#xf5;" horiz-adv-x="600" 
d="M44 0zM299 -12q-118 0 -186.5 78.5t-68.5 215.5q0 134 70 214.5t188 80.5t186 -78.5t68 -214.5q0 -138 -68.5 -217t-188.5 -79zM301 46q91 0 139 61t48 176q0 111 -49 173.5t-137 62.5q-91 0 -140.5 -60.5t-49.5 -173.5q0 -114 49.5 -176.5t139.5 -62.5zM222 788
q21 0 41 -10.5t52 -42.5q24 -25 36.5 -32.5t24.5 -7.5q20 0 29 22.5t7 68.5l48 -8q0 -64 -21 -98t-61 -34q-22 0 -42.5 10.5t-53.5 44.5q-24 24 -36 31t-23 7q-23 0 -34 -22.5t-10 -70.5l-48 8q0 64 24 99t67 35z" />
    <glyph glyph-name="odieresis" unicode="&#xf6;" horiz-adv-x="600" 
d="M44 0zM299 -12q-118 0 -186.5 78.5t-68.5 215.5q0 134 70 214.5t188 80.5t186 -78.5t68 -214.5q0 -138 -68.5 -217t-188.5 -79zM301 46q91 0 139 61t48 176q0 111 -49 173.5t-137 62.5q-91 0 -140.5 -60.5t-49.5 -173.5q0 -114 49.5 -176.5t139.5 -62.5zM252 678h-72v81
h72v-81zM420 678h-72v81h72v-81z" />
    <glyph glyph-name="divide" unicode="&#xf7;" horiz-adv-x="596" 
d="M338 531h-81v106h81v-106zM503 369h-410v55h410v-55zM338 149h-81v106h81v-106z" />
    <glyph glyph-name="oslash" unicode="&#xf8;" horiz-adv-x="600" 
d="M44 282q0 134 70 214.5t188 80.5q50 0 92.5 -15t74.5 -45l51 57l42 -36l-56 -63q25 -38 37.5 -86.5t12.5 -104.5q0 -138 -68.5 -217t-188.5 -79q-50 0 -92 15t-75 44l-56 -64l-44 38l62 70q-25 37 -37.5 85.5t-12.5 105.5zM302 519q-91 0 -140.5 -60.5t-49.5 -173.5
q0 -42 7 -78t21 -64l287 327q-24 24 -55.5 36.5t-69.5 12.5zM301 46q91 0 139 61t48 176q0 42 -7.5 77.5t-21.5 63.5l-285 -329q23 -24 55.5 -36.5t71.5 -12.5z" />
    <glyph glyph-name="ugrave" unicode="&#xf9;" horiz-adv-x="629" 
d="M78 0zM277 -12q-96 0 -147.5 54t-51.5 154v369h66v-347q0 -89 37.5 -131t115.5 -42q85 0 133 64.5t48 179.5v276h66v-565h-64v138h-3q-27 -72 -79 -111t-121 -39zM269 800l69 -178h-54l-85 178h70z" />
    <glyph glyph-name="uacute" unicode="&#xfa;" horiz-adv-x="629" 
d="M78 0zM277 -12q-96 0 -147.5 54t-51.5 154v369h66v-347q0 -89 37.5 -131t115.5 -42q85 0 133 64.5t48 179.5v276h66v-565h-64v138h-3q-27 -72 -79 -111t-121 -39zM338 622h-54l69 178h70z" />
    <glyph glyph-name="ucircumflex" unicode="&#xfb;" horiz-adv-x="629" 
d="M78 0zM277 -12q-96 0 -147.5 54t-51.5 154v369h66v-347q0 -89 37.5 -131t115.5 -42q85 0 133 64.5t48 179.5v276h66v-565h-64v138h-3q-27 -72 -79 -111t-121 -39zM230 622h-61l117 178h45l122 -178h-64l-82 118z" />
    <glyph glyph-name="udieresis" unicode="&#xfc;" horiz-adv-x="629" 
d="M78 0zM277 -12q-96 0 -147.5 54t-51.5 154v369h66v-347q0 -89 37.5 -131t115.5 -42q85 0 133 64.5t48 179.5v276h66v-565h-64v138h-3q-27 -72 -79 -111t-121 -39zM263 668h-72v81h72v-81zM431 668h-72v81h72v-81z" />
    <glyph glyph-name="yacute" unicode="&#xfd;" horiz-adv-x="539" 
d="M0 0zM528 565l-219 -565q-44 -116 -86.5 -156t-119.5 -40q-32 0 -70.5 9.5t-62.5 23.5l24 55q30 -15 60 -22.5t59 -7.5q34 0 59.5 18t46.5 57q7 12 13 25.5t13 31.5l-234 571h69l198 -487l182 487h68zM294 632h-54l69 178h70z" />
    <glyph glyph-name="thorn" unicode="&#xfe;" horiz-adv-x="635" 
d="M151 -185h-66v1000h66v-381h3q29 68 82.5 105.5t121.5 37.5q105 0 169 -80.5t64 -212.5t-65 -214t-169 -82q-70 0 -122.5 35.5t-80.5 102.5h-3v-311zM346 46q84 0 130.5 62.5t46.5 175.5q0 108 -48.5 171.5t-130.5 63.5q-90 0 -141.5 -62.5t-51.5 -172.5
q0 -109 53 -173.5t142 -64.5z" />
    <glyph glyph-name="ydieresis" unicode="&#xff;" horiz-adv-x="539" 
d="M0 0zM528 565l-219 -565q-44 -116 -86.5 -156t-119.5 -40q-32 0 -70.5 9.5t-62.5 23.5l24 55q30 -15 60 -22.5t59 -7.5q34 0 59.5 18t46.5 57q7 12 13 25.5t13 31.5l-234 571h69l198 -487l182 487h68zM219 678h-72v81h72v-81zM387 678h-72v81h72v-81z" />
    <glyph glyph-name="Amacron" unicode="&#x100;" horiz-adv-x="710" 
d="M30 0zM100 0h-70l277 774h79l294 -774h-71l-84 228h-346zM347 710l-147 -423h303zM492 846h-291v50h291v-50z" />
    <glyph glyph-name="amacron" unicode="&#x101;" horiz-adv-x="600" 
d="M55 0zM546 -6q-57 0 -87 30.5t-30 89.5v14h-3q-26 -67 -77 -103.5t-121 -36.5q-80 0 -126.5 41.5t-46.5 113.5q0 37 11.5 66.5t35.5 52.5q22 20 56.5 33.5t82.5 21.5l82 14q59 10 82.5 28t23.5 54q0 50 -34.5 79t-94.5 29q-65 0 -105 -34.5t-60 -107.5l-64 16
q25 88 84 135t144 47q94 0 144.5 -51t50.5 -146v-248q0 -46 15.5 -63.5t55.5 -17.5q6 0 11.5 0.5t13.5 1.5v-53q-7 -2 -20 -4t-24 -2zM123 150q0 -51 31.5 -79.5t87.5 -28.5q86 0 138 62.5t52 166.5v53q-11 -13 -34.5 -22t-68.5 -18l-80 -15q-69 -13 -97.5 -40t-28.5 -79z
M444 671h-301v50h301v-50z" />
    <glyph glyph-name="Abreve" unicode="&#x102;" horiz-adv-x="710" 
d="M30 0zM100 0h-70l277 774h79l294 -774h-71l-84 228h-346zM347 710l-147 -423h303zM350 828q-67 0 -106.5 33.5t-39.5 91.5v13h56v-8q0 -37 23 -57t67 -20q43 0 64.5 18.5t21.5 55.5v11h54v-9q0 -59 -38 -94t-102 -35z" />
    <glyph glyph-name="abreve" unicode="&#x103;" horiz-adv-x="600" 
d="M55 0zM546 -6q-57 0 -87 30.5t-30 89.5v14h-3q-26 -67 -77 -103.5t-121 -36.5q-80 0 -126.5 41.5t-46.5 113.5q0 37 11.5 66.5t35.5 52.5q22 20 56.5 33.5t82.5 21.5l82 14q59 10 82.5 28t23.5 54q0 50 -34.5 79t-94.5 29q-65 0 -105 -34.5t-60 -107.5l-64 16
q25 88 84 135t144 47q94 0 144.5 -51t50.5 -146v-248q0 -46 15.5 -63.5t55.5 -17.5q6 0 11.5 0.5t13.5 1.5v-53q-7 -2 -20 -4t-24 -2zM123 150q0 -51 31.5 -79.5t87.5 -28.5q86 0 138 62.5t52 166.5v53q-11 -13 -34.5 -22t-68.5 -18l-80 -15q-69 -13 -97.5 -40t-28.5 -79z
M297 635q-68 0 -107 39t-39 106v13h56v-8q0 -47 23 -72t67 -25q43 0 64.5 23.5t21.5 70.5v11h54v-9q0 -68 -38 -108.5t-102 -40.5z" />
    <glyph glyph-name="Aogonek" unicode="&#x104;" horiz-adv-x="710" 
d="M100 0h-70l277 774h79l294 -774q-54 -20 -78.5 -46.5t-24.5 -62.5q0 -30 16 -45t48 -15q10 0 19.5 1.5t21.5 4.5v-39q-12 -5 -26.5 -7.5t-29.5 -2.5q-49 0 -75.5 24t-26.5 68q0 40 21.5 70.5t63.5 49.5l-84 228h-346zM347 710l-147 -423h303z" />
    <glyph glyph-name="aogonek" unicode="&#x105;" horiz-adv-x="600" 
d="M592 -163v-39q-12 -5 -26.5 -7.5t-29.5 -2.5q-49 0 -75.5 24t-26.5 68q0 39 22.5 68t67.5 48v2q-47 4 -71 33.5t-24 82.5v14h-3q-26 -67 -77 -103.5t-121 -36.5q-80 0 -126.5 41.5t-46.5 113.5q0 37 11.5 66.5t35.5 52.5q22 20 56.5 33.5t82.5 21.5l82 14q59 10 82.5 28
t23.5 54q0 50 -34.5 79t-94.5 29q-65 0 -105 -34.5t-60 -107.5l-64 16q25 88 84 135t144 47q94 0 144.5 -51t50.5 -146v-248q0 -46 15.5 -63.5t55.5 -17.5q6 0 11.5 0.5t13.5 1.5v-53q-54 -20 -78.5 -46.5t-24.5 -62.5q0 -30 16 -45t48 -15q10 0 19.5 1.5t21.5 4.5zM123 150
q0 -51 31.5 -79.5t87.5 -28.5q86 0 138 62.5t52 166.5v53q-11 -13 -34.5 -22t-68.5 -18l-80 -15q-69 -13 -97.5 -40t-28.5 -79z" />
    <glyph glyph-name="Cacute" unicode="&#x106;" horiz-adv-x="770" 
d="M51 0zM407 -12q-165 0 -260.5 105t-95.5 286q0 183 99 295t260 112q127 0 211 -71.5t112 -203.5l-66 -15q-22 110 -88 168.5t-169 58.5q-137 0 -213 -90.5t-76 -253.5q0 -152 77 -240t210 -88q104 0 168.5 52t98.5 163l63 -21q-35 -125 -120.5 -191t-210.5 -66zM441 832
h-54l51 138h70z" />
    <glyph glyph-name="cacute" unicode="&#x107;" horiz-adv-x="585" 
d="M44 0zM306 519q-90 0 -142 -63t-52 -172q0 -110 52.5 -174t143.5 -64q71 0 115.5 36t69.5 114l57 -22q-25 -88 -89.5 -137t-154.5 -49q-122 0 -192 79t-70 217q0 130 73.5 211.5t190.5 81.5q91 0 152.5 -53t86.5 -153l-64 -18q-17 81 -62.5 123.5t-114.5 42.5zM333 632
h-54l69 178h70z" />
    <glyph glyph-name="Ccircumflex" unicode="&#x108;" horiz-adv-x="770" 
d="M51 0zM407 -12q-165 0 -260.5 105t-95.5 286q0 183 99 295t260 112q127 0 211 -71.5t112 -203.5l-66 -15q-22 110 -88 168.5t-169 58.5q-137 0 -213 -90.5t-76 -253.5q0 -152 77 -240t210 -88q104 0 168.5 52t98.5 163l63 -21q-35 -125 -120.5 -191t-210.5 -66zM337 828
h-61l115 138h45l116 -138h-64l-75 81z" />
    <glyph glyph-name="ccircumflex" unicode="&#x109;" horiz-adv-x="585" 
d="M44 0zM306 519q-90 0 -142 -63t-52 -172q0 -110 52.5 -174t143.5 -64q71 0 115.5 36t69.5 114l57 -22q-25 -88 -89.5 -137t-154.5 -49q-122 0 -192 79t-70 217q0 130 73.5 211.5t190.5 81.5q91 0 152.5 -53t86.5 -153l-64 -18q-17 81 -62.5 123.5t-114.5 42.5zM225 632
h-61l117 178h45l122 -178h-64l-82 118z" />
    <glyph glyph-name="Cdotaccent" unicode="&#x10a;" horiz-adv-x="770" 
d="M51 0zM407 -12q-165 0 -260.5 105t-95.5 286q0 183 99 295t260 112q127 0 211 -71.5t112 -203.5l-66 -15q-22 110 -88 168.5t-169 58.5q-137 0 -213 -90.5t-76 -253.5q0 -152 77 -240t210 -88q104 0 168.5 52t98.5 163l63 -21q-35 -125 -120.5 -191t-210.5 -66zM452 839
h-77v89h77v-89z" />
    <glyph glyph-name="cdotaccent" unicode="&#x10b;" horiz-adv-x="585" 
d="M44 0zM306 519q-90 0 -142 -63t-52 -172q0 -110 52.5 -174t143.5 -64q71 0 115.5 36t69.5 114l57 -22q-25 -88 -89.5 -137t-154.5 -49q-122 0 -192 79t-70 217q0 130 73.5 211.5t190.5 81.5q91 0 152.5 -53t86.5 -153l-64 -18q-17 81 -62.5 123.5t-114.5 42.5zM344 726
h-77v89h77v-89z" />
    <glyph glyph-name="Ccaron" unicode="&#x10c;" horiz-adv-x="770" 
d="M51 0zM407 -12q-165 0 -260.5 105t-95.5 286q0 183 99 295t260 112q127 0 211 -71.5t112 -203.5l-66 -15q-22 110 -88 168.5t-169 58.5q-137 0 -213 -90.5t-76 -253.5q0 -152 77 -240t210 -88q104 0 168.5 52t98.5 163l63 -21q-35 -125 -120.5 -191t-210.5 -66zM486 966
h61l-111 -138h-45l-120 138h64l78 -81z" />
    <glyph glyph-name="ccaron" unicode="&#x10d;" horiz-adv-x="585" 
d="M44 0zM306 519q-90 0 -142 -63t-52 -172q0 -110 52.5 -174t143.5 -64q71 0 115.5 36t69.5 114l57 -22q-25 -88 -89.5 -137t-154.5 -49q-122 0 -192 79t-70 217q0 130 73.5 211.5t190.5 81.5q91 0 152.5 -53t86.5 -153l-64 -18q-17 81 -62.5 123.5t-114.5 42.5zM384 810
h61l-117 -178h-45l-122 178h64l82 -118z" />
    <glyph glyph-name="Dcaron" unicode="&#x10e;" horiz-adv-x="787" 
d="M91 0zM91 0v774h228q200 0 308.5 -100.5t108.5 -285.5q0 -184 -109.5 -286t-306.5 -102h-229zM666 387q0 161 -89 244.5t-262 83.5h-156v-656h141q186 0 276 80.5t90 247.5zM458 966h61l-111 -138h-45l-120 138h64l78 -81z" />
    <glyph glyph-name="dcaron" unicode="&#x10f;" horiz-adv-x="635" 
d="M44 0zM281 -12q-110 0 -173.5 78.5t-63.5 214.5q0 131 68 213.5t176 82.5q65 0 115 -35.5t78 -101.5h3v375h66v-815h-64v135h-3q-27 -70 -80 -108.5t-122 -38.5zM112 281q0 -110 49 -172.5t136 -62.5q88 0 137.5 62t49.5 173t-49 174.5t-134 63.5q-88 0 -138.5 -63.5
t-50.5 -174.5zM695 758q0 -53 -10 -100t-31 -90h-44q11 31 16.5 67t5.5 81q0 22 -2 46.5t-6 52.5h68q2 -14 2.5 -28.5t0.5 -28.5z" />
    <glyph glyph-name="Dcroat" unicode="&#x110;" horiz-adv-x="797" 
d="M0 0zM101 367h-109v54h109v353h228q200 0 308.5 -100.5t108.5 -285.5q0 -184 -109.5 -286t-306.5 -102h-229v367zM676 387q0 161 -89 244.5t-262 83.5h-156v-294h202v-54h-202v-308h141q186 0 276 80.5t90 247.5z" />
    <glyph glyph-name="dcroat" unicode="&#x111;" horiz-adv-x="635" 
d="M281 -12q-110 0 -173.5 78.5t-63.5 214.5q0 131 68 213.5t176 82.5q65 0 115 -35.5t78 -101.5h3v190h-137v51h137v134h66v-134h108v-51h-108v-630h-64v135h-3q-27 -70 -80 -108.5t-122 -38.5zM112 281q0 -110 49 -172.5t136 -62.5q88 0 137.5 62t49.5 173t-49 174.5
t-134 63.5q-88 0 -138.5 -63.5t-50.5 -174.5z" />
    <glyph glyph-name="Emacron" unicode="&#x112;" horiz-adv-x="648" 
d="M91 0zM91 0v774h489v-59h-421v-285h394v-57h-394v-314h441v-59h-509zM499 846h-291v50h291v-50z" />
    <glyph glyph-name="emacron" unicode="&#x113;" horiz-adv-x="576" 
d="M44 0zM308 -12q-121 0 -192.5 80.5t-71.5 215.5q0 129 71.5 211t184.5 82q67 0 119.5 -31.5t81.5 -90.5q18 -36 27.5 -82t10.5 -101h-427q3 -104 56 -165t141 -61q68 0 111.5 33t70.5 104l56 -23q-32 -84 -93.5 -128t-145.5 -44zM448 422q-21 47 -59.5 72t-89.5 25
q-77 0 -127 -52.5t-58 -143.5h355q-1 31 -6 53.5t-15 45.5zM446 671h-301v50h301v-50z" />
    <glyph glyph-name="Ebreve" unicode="&#x114;" horiz-adv-x="648" 
d="M91 0zM91 0v774h489v-59h-421v-285h394v-57h-394v-314h441v-59h-509zM357 828q-67 0 -106.5 33.5t-39.5 91.5v13h56v-8q0 -37 23 -57t67 -20q43 0 64.5 18.5t21.5 55.5v11h54v-9q0 -59 -38 -94t-102 -35z" />
    <glyph glyph-name="ebreve" unicode="&#x115;" horiz-adv-x="576" 
d="M44 0zM308 -12q-121 0 -192.5 80.5t-71.5 215.5q0 129 71.5 211t184.5 82q67 0 119.5 -31.5t81.5 -90.5q18 -36 27.5 -82t10.5 -101h-427q3 -104 56 -165t141 -61q68 0 111.5 33t70.5 104l56 -23q-32 -84 -93.5 -128t-145.5 -44zM448 422q-21 47 -59.5 72t-89.5 25
q-77 0 -127 -52.5t-58 -143.5h355q-1 31 -6 53.5t-15 45.5zM299 635q-68 0 -107 39t-39 106v13h56v-8q0 -47 23 -72t67 -25q43 0 64.5 23.5t21.5 70.5v11h54v-9q0 -68 -38 -108.5t-102 -40.5z" />
    <glyph glyph-name="Edotaccent" unicode="&#x116;" horiz-adv-x="648" 
d="M91 0zM91 0v774h489v-59h-421v-285h394v-57h-394v-314h441v-59h-509zM392 839h-77v89h77v-89z" />
    <glyph glyph-name="edotaccent" unicode="&#x117;" horiz-adv-x="576" 
d="M44 0zM308 -12q-121 0 -192.5 80.5t-71.5 215.5q0 129 71.5 211t184.5 82q67 0 119.5 -31.5t81.5 -90.5q18 -36 27.5 -82t10.5 -101h-427q3 -104 56 -165t141 -61q68 0 111.5 33t70.5 104l56 -23q-32 -84 -93.5 -128t-145.5 -44zM448 422q-21 47 -59.5 72t-89.5 25
q-77 0 -127 -52.5t-58 -143.5h355q-1 31 -6 53.5t-15 45.5zM334 726h-77v89h77v-89z" />
    <glyph glyph-name="Eogonek" unicode="&#x118;" horiz-adv-x="648" 
d="M561 -169q10 0 19.5 1.5t21.5 4.5v-39q-12 -5 -26.5 -7.5t-29.5 -2.5q-49 0 -75.5 24t-26.5 68q0 38 22.5 67.5t67.5 50.5v2h-443v774h489v-59h-421v-285h394v-57h-394v-314h441v-59q-54 -20 -78.5 -46.5t-24.5 -62.5q0 -30 16 -45t48 -15z" />
    <glyph glyph-name="eogonek" unicode="&#x119;" horiz-adv-x="576" 
d="M513 -163v-39q-12 -5 -26.5 -7.5t-29.5 -2.5q-48 0 -75 25.5t-27 70.5q0 29 12 55t51 69l-1 3q-24 -11 -51.5 -17t-57.5 -6q-121 0 -192.5 80.5t-71.5 215.5q0 129 71.5 211t184.5 82q67 0 119.5 -31.5t81.5 -90.5q18 -36 27.5 -82t10.5 -101h-427q3 -104 56 -165
t141 -61q68 0 111.5 33t70.5 104l56 -23q-7 -20 -18 -39.5t-28 -42.5q-59 -80 -76 -114t-17 -70q0 -30 16.5 -46.5t47.5 -16.5q10 0 19.5 1.5t21.5 4.5zM448 422q-21 47 -59.5 72t-89.5 25q-77 0 -127 -52.5t-58 -143.5h355q-1 31 -6 53.5t-15 45.5z" />
    <glyph glyph-name="Ecaron" unicode="&#x11a;" horiz-adv-x="648" 
d="M91 0zM91 0v774h489v-59h-421v-285h394v-57h-394v-314h441v-59h-509zM426 966h61l-111 -138h-45l-120 138h64l78 -81z" />
    <glyph glyph-name="ecaron" unicode="&#x11b;" horiz-adv-x="576" 
d="M44 0zM308 -12q-121 0 -192.5 80.5t-71.5 215.5q0 129 71.5 211t184.5 82q67 0 119.5 -31.5t81.5 -90.5q18 -36 27.5 -82t10.5 -101h-427q3 -104 56 -165t141 -61q68 0 111.5 33t70.5 104l56 -23q-32 -84 -93.5 -128t-145.5 -44zM448 422q-21 47 -59.5 72t-89.5 25
q-77 0 -127 -52.5t-58 -143.5h355q-1 31 -6 53.5t-15 45.5zM374 810h61l-117 -178h-45l-122 178h64l82 -118z" />
    <glyph glyph-name="Gcircumflex" unicode="&#x11c;" horiz-adv-x="795" 
d="M51 0zM681 0l-5 155h-3q-37 -81 -108.5 -124t-167.5 -43q-163 0 -254.5 105t-91.5 291q0 177 100 289.5t258 112.5q123 0 206.5 -69t114.5 -197l-65 -17q-26 108 -91 164t-165 56q-132 0 -210 -92t-78 -247q0 -160 75.5 -248t213.5 -88q124 0 192.5 65.5t68.5 184.5v15
h-256v58h319v-371h-53zM339 828h-61l115 138h45l116 -138h-64l-75 81z" />
    <glyph glyph-name="gcircumflex" unicode="&#x11d;" horiz-adv-x="584" 
d="M23 0zM301 -198q-134 0 -206 35.5t-72 101.5q0 41 29.5 68.5t86.5 40.5v2q-38 11 -57 31.5t-19 51.5q0 30 21 56t57 41v2q-34 24 -52 61t-18 83q0 89 61 145t158 56q43 0 81 -12t66 -35l80 110l50 -44l-107 -88q21 -25 32.5 -55.5t11.5 -65.5q0 -91 -57.5 -144
t-155.5 -53q-34 0 -65 6.5t-57 18.5q-22 -9 -34.5 -24.5t-12.5 -34.5q0 -28 21.5 -41t66.5 -13h232q75 0 112 -28.5t37 -85.5q0 -87 -77 -136.5t-213 -49.5zM139 377q0 -62 40 -96.5t111 -34.5t108.5 37t37.5 107q0 61 -39 96t-107 35q-71 0 -111 -38t-40 -106zM526 -25
q0 34 -21 48.5t-71 14.5h-206q-68 0 -101.5 -21t-33.5 -64q0 -46 54 -70t157 -24t162.5 31t59.5 85zM214 632h-61l117 178h45l122 -178h-64l-82 118z" />
    <glyph glyph-name="Gbreve" unicode="&#x11e;" horiz-adv-x="795" 
d="M51 0zM681 0l-5 155h-3q-37 -81 -108.5 -124t-167.5 -43q-163 0 -254.5 105t-91.5 291q0 177 100 289.5t258 112.5q123 0 206.5 -69t114.5 -197l-65 -17q-26 108 -91 164t-165 56q-132 0 -210 -92t-78 -247q0 -160 75.5 -248t213.5 -88q124 0 192.5 65.5t68.5 184.5v15
h-256v58h319v-371h-53zM419 828q-67 0 -106.5 33.5t-39.5 91.5v13h56v-8q0 -37 23 -57t67 -20q43 0 64.5 18.5t21.5 55.5v11h54v-9q0 -59 -38 -94t-102 -35z" />
    <glyph glyph-name="gbreve" unicode="&#x11f;" horiz-adv-x="584" 
d="M23 0zM301 -198q-134 0 -206 35.5t-72 101.5q0 41 29.5 68.5t86.5 40.5v2q-38 11 -57 31.5t-19 51.5q0 30 21 56t57 41v2q-34 24 -52 61t-18 83q0 89 61 145t158 56q43 0 81 -12t66 -35l80 110l50 -44l-107 -88q21 -25 32.5 -55.5t11.5 -65.5q0 -91 -57.5 -144
t-155.5 -53q-34 0 -65 6.5t-57 18.5q-22 -9 -34.5 -24.5t-12.5 -34.5q0 -28 21.5 -41t66.5 -13h232q75 0 112 -28.5t37 -85.5q0 -87 -77 -136.5t-213 -49.5zM139 377q0 -62 40 -96.5t111 -34.5t108.5 37t37.5 107q0 61 -39 96t-107 35q-71 0 -111 -38t-40 -106zM526 -25
q0 34 -21 48.5t-71 14.5h-206q-68 0 -101.5 -21t-33.5 -64q0 -46 54 -70t157 -24t162.5 31t59.5 85zM298 635q-68 0 -107 39t-39 106v13h56v-8q0 -47 23 -72t67 -25q43 0 64.5 23.5t21.5 70.5v11h54v-9q0 -68 -38 -108.5t-102 -40.5z" />
    <glyph glyph-name="Gdotaccent" unicode="&#x120;" horiz-adv-x="795" 
d="M51 0zM681 0l-5 155h-3q-37 -81 -108.5 -124t-167.5 -43q-163 0 -254.5 105t-91.5 291q0 177 100 289.5t258 112.5q123 0 206.5 -69t114.5 -197l-65 -17q-26 108 -91 164t-165 56q-132 0 -210 -92t-78 -247q0 -160 75.5 -248t213.5 -88q124 0 192.5 65.5t68.5 184.5v15
h-256v58h319v-371h-53zM454 839h-77v89h77v-89z" />
    <glyph glyph-name="gdotaccent" unicode="&#x121;" horiz-adv-x="584" 
d="M23 0zM301 -198q-134 0 -206 35.5t-72 101.5q0 41 29.5 68.5t86.5 40.5v2q-38 11 -57 31.5t-19 51.5q0 30 21 56t57 41v2q-34 24 -52 61t-18 83q0 89 61 145t158 56q43 0 81 -12t66 -35l80 110l50 -44l-107 -88q21 -25 32.5 -55.5t11.5 -65.5q0 -91 -57.5 -144
t-155.5 -53q-34 0 -65 6.5t-57 18.5q-22 -9 -34.5 -24.5t-12.5 -34.5q0 -28 21.5 -41t66.5 -13h232q75 0 112 -28.5t37 -85.5q0 -87 -77 -136.5t-213 -49.5zM139 377q0 -62 40 -96.5t111 -34.5t108.5 37t37.5 107q0 61 -39 96t-107 35q-71 0 -111 -38t-40 -106zM526 -25
q0 34 -21 48.5t-71 14.5h-206q-68 0 -101.5 -21t-33.5 -64q0 -46 54 -70t157 -24t162.5 31t59.5 85zM333 726h-77v89h77v-89z" />
    <glyph glyph-name="uni0122" unicode="&#x122;" horiz-adv-x="795" 
d="M51 0zM681 0l-5 155h-3q-37 -81 -108.5 -124t-167.5 -43q-163 0 -254.5 105t-91.5 291q0 177 100 289.5t258 112.5q123 0 206.5 -69t114.5 -197l-65 -17q-26 108 -91 164t-165 56q-132 0 -210 -92t-78 -247q0 -160 75.5 -248t213.5 -88q124 0 192.5 65.5t68.5 184.5v15
h-256v58h319v-371h-53zM410 -162h-38v96h81v-106q0 -53 -23 -75t-76 -24l-6 41q40 2 51 13t11 47v8z" />
    <glyph glyph-name="uni0123" unicode="&#x123;" horiz-adv-x="584" 
d="M23 0zM301 -198q-134 0 -206 35.5t-72 101.5q0 41 29.5 68.5t86.5 40.5v2q-38 11 -57 31.5t-19 51.5q0 30 21 56t57 41v2q-34 24 -52 61t-18 83q0 89 61 145t158 56q43 0 81 -12t66 -35l80 110l50 -44l-107 -88q21 -25 32.5 -55.5t11.5 -65.5q0 -91 -57.5 -144
t-155.5 -53q-34 0 -65 6.5t-57 18.5q-22 -9 -34.5 -24.5t-12.5 -34.5q0 -28 21.5 -41t66.5 -13h232q75 0 112 -28.5t37 -85.5q0 -87 -77 -136.5t-213 -49.5zM139 377q0 -62 40 -96.5t111 -34.5t108.5 37t37.5 107q0 61 -39 96t-107 35q-71 0 -111 -38t-40 -106zM526 -25
q0 34 -21 48.5t-71 14.5h-206q-68 0 -101.5 -21t-33.5 -64q0 -46 54 -70t157 -24t162.5 31t59.5 85zM297 759h38v-96h-81v106q0 51 23.5 74t75.5 25l6 -41q-40 -2 -51 -13t-11 -47v-8z" />
    <glyph glyph-name="Hcircumflex" unicode="&#x124;" horiz-adv-x="785" 
d="M91 0zM91 0v774h68v-334h467v334h68v-774h-68v381h-467v-381h-68zM316 818h-61l115 138h45l116 -138h-64l-75 81z" />
    <glyph glyph-name="hcircumflex" unicode="&#x125;" horiz-adv-x="633" 
d="M0 0zM85 0v815h66v-386h3q29 70 82.5 109t122.5 39q95 0 145.5 -58.5t50.5 -170.5v-348h-66v333q0 98 -35.5 142.5t-114.5 44.5q-87 0 -137.5 -67t-50.5 -183v-270h-66zM41 856h-61l115 138h45l116 -138h-64l-75 81z" />
    <glyph glyph-name="Hbar" unicode="&#x126;" horiz-adv-x="805" 
d="M101 562h-99v54h99v158h68v-158h467v158h68v-158h99v-54h-99v-562h-68v322h-467v-322h-68v562zM169 562v-181h467v181h-467z" />
    <glyph glyph-name="hbar" unicode="&#x127;" horiz-adv-x="633" 
d="M-8 630v51h93v134h66v-134h152v-51h-152v-201h3q29 70 82.5 109t122.5 39q95 0 145.5 -58.5t50.5 -170.5v-348h-66v333q0 98 -35.5 142.5t-114.5 44.5q-87 0 -137.5 -67t-50.5 -183v-270h-66v630h-93z" />
    <glyph glyph-name="Itilde" unicode="&#x128;" horiz-adv-x="256" 
d="M0 0zM94 0v774h68v-774h-68zM58 954q21 0 41 -9t52 -36q24 -21 36.5 -27t24.5 -6q20 0 29 18.5t7 57.5l48 -8q0 -57 -21 -87t-61 -30q-22 0 -42.5 9t-53.5 37q-24 20 -36 26t-23 6q-23 0 -34 -19t-10 -59l-48 8q0 57 24 88t67 31z" />
    <glyph glyph-name="itilde" unicode="&#x129;" horiz-adv-x="240" 
d="M0 0zM87 0v565h66v-565h-66zM42 788q21 0 41 -10.5t52 -42.5q24 -25 36.5 -32.5t24.5 -7.5q20 0 29 22.5t7 68.5l48 -8q0 -64 -21 -98t-61 -34q-22 0 -42.5 10.5t-53.5 44.5q-24 24 -36 31t-23 7q-23 0 -34 -22.5t-10 -70.5l-48 8q0 64 24 99t67 35z" />
    <glyph glyph-name="Imacron" unicode="&#x12a;" horiz-adv-x="256" 
d="M0 0zM94 0v774h68v-774h-68zM273 846h-291v50h291v-50z" />
    <glyph glyph-name="imacron" unicode="&#x12b;" horiz-adv-x="240" 
d="M0 0zM87 0v565h66v-565h-66zM270 671h-301v50h301v-50z" />
    <glyph glyph-name="Ibreve" unicode="&#x12c;" horiz-adv-x="256" 
d="M0 0zM94 0v774h68v-774h-68zM131 828q-67 0 -106.5 33.5t-39.5 91.5v13h56v-8q0 -37 23 -57t67 -20q43 0 64.5 18.5t21.5 55.5v11h54v-9q0 -59 -38 -94t-102 -35z" />
    <glyph glyph-name="ibreve" unicode="&#x12d;" horiz-adv-x="240" 
d="M0 0zM87 0v565h66v-565h-66zM123 635q-68 0 -107 39t-39 106v13h56v-8q0 -47 23 -72t67 -25q43 0 64.5 23.5t21.5 70.5v11h54v-9q0 -68 -38 -108.5t-102 -40.5z" />
    <glyph glyph-name="Iogonek" unicode="&#x12e;" horiz-adv-x="256" 
d="M123 -169q10 0 19.5 1.5t21.5 4.5v-39q-12 -5 -26.5 -7.5t-29.5 -2.5q-49 0 -75.5 24t-26.5 68q0 39 22 68.5t66 49.5v776h68v-774q-54 -20 -78.5 -46.5t-24.5 -62.5q0 -30 16 -45t48 -15z" />
    <glyph glyph-name="iogonek" unicode="&#x12f;" horiz-adv-x="240" 
d="M159 726h-77v89h77v-89zM114 -169q10 0 19.5 1.5t21.5 4.5v-39q-12 -5 -26.5 -7.5t-29.5 -2.5q-49 0 -75.5 24t-26.5 68q0 38 22.5 67.5t67.5 50.5v567h66v-565q-54 -20 -78.5 -46.5t-24.5 -62.5q0 -30 16 -45t48 -15z" />
    <glyph glyph-name="Idotaccent" unicode="&#x130;" horiz-adv-x="256" 
d="M89 0zM94 0v774h68v-774h-68zM166 839h-77v89h77v-89z" />
    <glyph glyph-name="dotlessi" unicode="&#x131;" horiz-adv-x="240" 
d="M87 0v565h66v-565h-66z" />
    <glyph glyph-name="IJ" unicode="&#x132;" horiz-adv-x="692" 
d="M349 -12q-113 0 -179.5 57t-82.5 167l67 28q9 -96 58 -142.5t141 -46.5q91 0 139 55.5t48 159.5v508h68v-505q0 -136 -67 -208.5t-192 -72.5zM152 774v-443h-68v443h68z" />
    <glyph glyph-name="ij" unicode="&#x133;" horiz-adv-x="480" 
d="M82 0zM159 726h-77v89h77v-89zM87 0v565h66v-565h-66zM399 726h-77v89h77v-89zM206 -182l-9 65q11 -4 27.5 -7t30.5 -3q39 0 55.5 21.5t16.5 74.5v596h66v-601q0 -82 -31 -118.5t-101 -36.5q-15 0 -29 2.5t-26 6.5z" />
    <glyph glyph-name="Jcircumflex" unicode="&#x134;" horiz-adv-x="547" 
d="M46 0zM463 774v-537q0 -68 -14 -116t-43 -77q-28 -28 -65.5 -42t-86.5 -14q-102 0 -155 53.5t-53 156.5v114l64 20v-117q0 -85 35 -124.5t111 -39.5q71 0 105 43t34 132v548h68zM352 828h-61l115 138h45l116 -138h-64l-75 81z" />
    <glyph glyph-name="jcircumflex" unicode="&#x135;" horiz-adv-x="240" 
d="M0 0zM-34 -182l-9 65q11 -4 27.5 -7t30.5 -3q39 0 55.5 21.5t16.5 74.5v596h66v-601q0 -82 -31 -118.5t-101 -36.5q-15 0 -29 2.5t-26 6.5zM39 632h-61l117 178h45l122 -178h-64l-82 118z" />
    <glyph glyph-name="uni0136" unicode="&#x136;" horiz-adv-x="684" 
d="M91 0zM671 0h-75l-260 447l-177 -203v-244h-68v774h68v-449l393 449h78l-247 -284zM368 -152h-38v96h81v-106q0 -53 -23 -75t-76 -24l-6 41q40 2 51 13t11 47v8z" />
    <glyph glyph-name="uni0137" unicode="&#x137;" horiz-adv-x="555" 
d="M85 0zM554 0h-75l-203 332l-125 -124v-208h-66v815h66v-534l285 284h82l-195 -193zM303 -152h-38v96h81v-106q0 -53 -23 -75t-76 -24l-6 41q40 2 51 13t11 47v8z" />
    <glyph glyph-name="kgreenlandic" unicode="&#x138;" horiz-adv-x="555" 
d="M554 0h-75l-203 332l-125 -124v-208h-66v565h66v-284l285 284h82l-195 -193z" />
    <glyph glyph-name="Lacute" unicode="&#x139;" horiz-adv-x="621" 
d="M91 0zM91 0v774h68v-715h435v-59h-503zM152 832h-54l51 138h70z" />
    <glyph glyph-name="lacute" unicode="&#x13a;" horiz-adv-x="236" 
d="M85 0zM85 0v815h66v-815h-66zM145 860h-54l51 138h70z" />
    <glyph glyph-name="uni013B" unicode="&#x13b;" horiz-adv-x="621" 
d="M91 0zM91 0v774h68v-715h435v-59h-503zM360 -162h-38v96h81v-106q0 -53 -23 -75t-76 -24l-6 41q40 2 51 13t11 47v8z" />
    <glyph glyph-name="uni013C" unicode="&#x13c;" horiz-adv-x="236" 
d="M53 0zM85 0v815h66v-815h-66zM115 -162h-38v96h81v-106q0 -53 -23 -75t-76 -24l-6 41q40 2 51 13t11 47v8z" />
    <glyph glyph-name="Lcaron" unicode="&#x13d;" horiz-adv-x="621" 
d="M91 0zM91 0v774h68v-715h435v-59h-503zM372 717q0 -53 -10 -100t-31 -90h-44q11 31 16.5 67t5.5 81q0 22 -2 46.5t-6 52.5h68q2 -14 2.5 -28.5t0.5 -28.5z" />
    <glyph glyph-name="lcaron" unicode="&#x13e;" horiz-adv-x="236" 
d="M85 0zM85 0v815h66v-815h-66zM296 758q0 -53 -10 -100t-31 -90h-44q11 31 16.5 67t5.5 81q0 22 -2 46.5t-6 52.5h68q2 -14 2.5 -28.5t0.5 -28.5z" />
    <glyph glyph-name="Ldot" unicode="&#x13f;" horiz-adv-x="621" 
d="M91 0zM91 0v774h68v-715h435v-59h-503zM476 365h-81v106h81v-106z" />
    <glyph glyph-name="ldot" unicode="&#x140;" horiz-adv-x="317" 
d="M85 0zM85 0v815h66v-815h-66zM317 369h-81v106h81v-106z" />
    <glyph glyph-name="Lslash" unicode="&#x141;" horiz-adv-x="631" 
d="M3 298v56l98 42v378h68v-354l199 81v-55l-199 -82v-305h435v-59h-503v340z" />
    <glyph glyph-name="lslash" unicode="&#x142;" horiz-adv-x="246" 
d="M-11 299v53l101 61v402h66v-367l101 60v-53l-101 -60v-395h-66v360z" />
    <glyph glyph-name="Nacute" unicode="&#x143;" horiz-adv-x="758" 
d="M91 0zM602 774h65v-774h-79l-432 708v-708h-65v774h100l411 -678v678zM416 822h-54l51 138h70z" />
    <glyph glyph-name="nacute" unicode="&#x144;" horiz-adv-x="633" 
d="M85 0zM85 0v565h64v-141h3q28 72 82.5 112.5t124.5 40.5q95 0 145.5 -58.5t50.5 -170.5v-348h-66v333q0 98 -35.5 142.5t-114.5 44.5q-87 0 -137.5 -67t-50.5 -183v-270h-66zM349 632h-54l69 178h70z" />
    <glyph glyph-name="uni0145" unicode="&#x145;" horiz-adv-x="758" 
d="M91 0zM602 774h65v-774h-79l-432 708v-708h-65v774h100l411 -678v678zM376 -152h-38v96h81v-106q0 -53 -23 -75t-76 -24l-6 41q40 2 51 13t11 47v8z" />
    <glyph glyph-name="uni0146" unicode="&#x146;" horiz-adv-x="633" 
d="M85 0zM85 0v565h64v-141h3q28 72 82.5 112.5t124.5 40.5q95 0 145.5 -58.5t50.5 -170.5v-348h-66v333q0 98 -35.5 142.5t-114.5 44.5q-87 0 -137.5 -67t-50.5 -183v-270h-66zM317 -152h-38v96h81v-106q0 -53 -23 -75t-76 -24l-6 41q40 2 51 13t11 47v8z" />
    <glyph glyph-name="Ncaron" unicode="&#x147;" horiz-adv-x="758" 
d="M91 0zM602 774h65v-774h-79l-432 708v-708h-65v774h100l411 -678v678zM461 956h61l-111 -138h-45l-120 138h64l78 -81z" />
    <glyph glyph-name="ncaron" unicode="&#x148;" horiz-adv-x="633" 
d="M85 0zM85 0v565h64v-141h3q28 72 82.5 112.5t124.5 40.5q95 0 145.5 -58.5t50.5 -170.5v-348h-66v333q0 98 -35.5 142.5t-114.5 44.5q-87 0 -137.5 -67t-50.5 -183v-270h-66zM400 810h61l-117 -178h-45l-122 178h64l82 -118z" />
    <glyph glyph-name="Eng" unicode="&#x14a;" horiz-adv-x="758" 
d="M508 -139q49 0 71.5 32t22.5 99v13l-446 703v-708h-65v774h100l411 -654v654h65v-756q0 -58 -8 -96.5t-26 -62.5q-20 -28 -51 -42t-74 -14q-35 0 -71 8t-56 20l22 58q21 -13 49 -20.5t56 -7.5z" />
    <glyph glyph-name="eng" unicode="&#x14b;" horiz-adv-x="629" 
d="M413 -127q39 0 55.5 21.5t16.5 74.5v364q0 98 -35 142.5t-113 44.5q-86 0 -136 -67t-50 -183v-270h-66v565h64v-141h3q28 72 82 112.5t123 40.5q94 0 144 -59t50 -170v-384q0 -82 -31 -118.5t-101 -36.5q-15 0 -29 2.5t-26 6.5l-9 65q11 -4 27.5 -7t30.5 -3z" />
    <glyph glyph-name="Omacron" unicode="&#x14c;" horiz-adv-x="801" 
d="M51 0zM401 -12q-166 0 -258 104t-92 292q0 182 97 292t258 110q157 0 250.5 -109t93.5 -293q0 -181 -94.5 -288.5t-254.5 -107.5zM618 151q31 43 46.5 101.5t15.5 131.5q0 156 -74 247.5t-200 91.5q-73 0 -129 -26.5t-92 -77.5q-32 -43 -48 -102.5t-16 -132.5
q0 -158 73.5 -245.5t206.5 -87.5q71 0 125.5 25t91.5 75zM551 846h-291v50h291v-50z" />
    <glyph glyph-name="omacron" unicode="&#x14d;" horiz-adv-x="600" 
d="M44 0zM299 -12q-118 0 -186.5 78.5t-68.5 215.5q0 134 70 214.5t188 80.5t186 -78.5t68 -214.5q0 -138 -68.5 -217t-188.5 -79zM301 46q91 0 139 61t48 176q0 111 -49 173.5t-137 62.5q-91 0 -140.5 -60.5t-49.5 -173.5q0 -114 49.5 -176.5t139.5 -62.5zM450 671h-301v50
h301v-50z" />
    <glyph glyph-name="Obreve" unicode="&#x14e;" horiz-adv-x="801" 
d="M51 0zM401 -12q-166 0 -258 104t-92 292q0 182 97 292t258 110q157 0 250.5 -109t93.5 -293q0 -181 -94.5 -288.5t-254.5 -107.5zM618 151q31 43 46.5 101.5t15.5 131.5q0 156 -74 247.5t-200 91.5q-73 0 -129 -26.5t-92 -77.5q-32 -43 -48 -102.5t-16 -132.5
q0 -158 73.5 -245.5t206.5 -87.5q71 0 125.5 25t91.5 75zM409 828q-67 0 -106.5 33.5t-39.5 91.5v13h56v-8q0 -37 23 -57t67 -20q43 0 64.5 18.5t21.5 55.5v11h54v-9q0 -59 -38 -94t-102 -35z" />
    <glyph glyph-name="obreve" unicode="&#x14f;" horiz-adv-x="600" 
d="M44 0zM299 -12q-118 0 -186.5 78.5t-68.5 215.5q0 134 70 214.5t188 80.5t186 -78.5t68 -214.5q0 -138 -68.5 -217t-188.5 -79zM301 46q91 0 139 61t48 176q0 111 -49 173.5t-137 62.5q-91 0 -140.5 -60.5t-49.5 -173.5q0 -114 49.5 -176.5t139.5 -62.5zM303 635
q-68 0 -107 39t-39 106v13h56v-8q0 -47 23 -72t67 -25q43 0 64.5 23.5t21.5 70.5v11h54v-9q0 -68 -38 -108.5t-102 -40.5z" />
    <glyph glyph-name="Ohungarumlaut" unicode="&#x150;" horiz-adv-x="801" 
d="M51 0zM401 -12q-166 0 -258 104t-92 292q0 182 97 292t258 110q157 0 250.5 -109t93.5 -293q0 -181 -94.5 -288.5t-254.5 -107.5zM618 151q31 43 46.5 101.5t15.5 131.5q0 156 -74 247.5t-200 91.5q-73 0 -129 -26.5t-92 -77.5q-32 -43 -48 -102.5t-16 -132.5
q0 -158 73.5 -245.5t206.5 -87.5q71 0 125.5 25t91.5 75zM376 832h-54l51 138h70zM490 832h-54l51 138h70z" />
    <glyph glyph-name="ohungarumlaut" unicode="&#x151;" horiz-adv-x="600" 
d="M44 0zM299 -12q-118 0 -186.5 78.5t-68.5 215.5q0 134 70 214.5t188 80.5t186 -78.5t68 -214.5q0 -138 -68.5 -217t-188.5 -79zM301 46q91 0 139 61t48 176q0 111 -49 173.5t-137 62.5q-91 0 -140.5 -60.5t-49.5 -173.5q0 -114 49.5 -176.5t139.5 -62.5zM267 632h-54
l69 178h70zM387 632h-54l69 178h70z" />
    <glyph glyph-name="OE" unicode="&#x152;" horiz-adv-x="1176" 
d="M220 718q53 30 120 43t166 13h602v-59h-421v-285h394v-57h-394v-314h441v-59h-641q-93 0 -160 13.5t-118 41.5q-79 45 -118.5 127.5t-39.5 201.5q0 118 43 203t126 131zM121 384q0 -165 88.5 -245t271.5 -80h138v656h-133q-185 0 -275 -81.5t-90 -249.5z" />
    <glyph glyph-name="oe" unicode="&#x153;" horiz-adv-x="1015" 
d="M751 46q66 0 109 32.5t70 104.5l56 -23q-31 -84 -92 -128t-144 -44q-78 0 -138.5 40t-89.5 111q-30 -73 -87.5 -112t-135.5 -39q-118 0 -186.5 78.5t-68.5 215.5q0 134 70 214.5t188 80.5q76 0 131 -39t86 -115q31 76 87 115t133 39q67 0 119 -31.5t82 -90.5
q18 -36 27.5 -81.5t10.5 -101.5h-427q3 -103 57 -164.5t143 -61.5zM301 46q91 0 139 61t48 176q0 111 -49 173.5t-137 62.5q-91 0 -140.5 -60.5t-49.5 -173.5q0 -114 49.5 -176.5t139.5 -62.5zM887 422q-22 48 -60 72.5t-89 24.5q-78 0 -127.5 -52.5t-57.5 -143.5h354
q-1 29 -6 54t-14 45z" />
    <glyph glyph-name="Racute" unicode="&#x154;" horiz-adv-x="688" 
d="M91 0zM483 280q-15 29 -43 39t-95 10h-186v-329h-68v774h293q123 0 189.5 -53t66.5 -151q0 -84 -52.5 -139t-148.5 -72v-2q61 -10 87 -40.5t50 -117.5q21 -76 35.5 -120.5t29.5 -73.5v-5h-78q-11 25 -22 64t-25 105q-7 37 -15.5 64.5t-17.5 46.5zM570 556q0 80 -47 119.5
t-142 39.5h-222v-331h187q109 0 166.5 44t57.5 128zM384 827h-54l51 138h70z" />
    <glyph glyph-name="racute" unicode="&#x155;" horiz-adv-x="469" 
d="M85 0zM312 574q64 0 98 -41.5t34 -118.5q0 -15 -2.5 -38.5t-6.5 -39.5l-63 -9q4 19 6.5 43t2.5 40q0 56 -23 85t-66 29q-64 0 -102.5 -68.5t-38.5 -180.5v-275h-66v565h64v-133h3q21 68 63 105t97 37zM289 632h-54l69 178h70z" />
    <glyph glyph-name="uni0156" unicode="&#x156;" horiz-adv-x="688" 
d="M91 0zM483 280q-15 29 -43 39t-95 10h-186v-329h-68v774h293q123 0 189.5 -53t66.5 -151q0 -84 -52.5 -139t-148.5 -72v-2q61 -10 87 -40.5t50 -117.5q21 -76 35.5 -120.5t29.5 -73.5v-5h-78q-11 25 -22 64t-25 105q-7 37 -15.5 64.5t-17.5 46.5zM570 556q0 80 -47 119.5
t-142 39.5h-222v-331h187q109 0 166.5 44t57.5 128zM355 -152h-38v96h81v-106q0 -53 -23 -75t-76 -24l-6 41q40 2 51 13t11 47v8z" />
    <glyph glyph-name="uni0157" unicode="&#x157;" horiz-adv-x="469" 
d="M53 0zM312 574q64 0 98 -41.5t34 -118.5q0 -15 -2.5 -38.5t-6.5 -39.5l-63 -9q4 19 6.5 43t2.5 40q0 56 -23 85t-66 29q-64 0 -102.5 -68.5t-38.5 -180.5v-275h-66v565h64v-133h3q21 68 63 105t97 37zM115 -162h-38v96h81v-106q0 -53 -23 -75t-76 -24l-6 41q40 2 51 13
t11 47v8z" />
    <glyph glyph-name="Rcaron" unicode="&#x158;" horiz-adv-x="688" 
d="M91 0zM483 280q-15 29 -43 39t-95 10h-186v-329h-68v774h293q123 0 189.5 -53t66.5 -151q0 -84 -52.5 -139t-148.5 -72v-2q61 -10 87 -40.5t50 -117.5q21 -76 35.5 -120.5t29.5 -73.5v-5h-78q-11 25 -22 64t-25 105q-7 37 -15.5 64.5t-17.5 46.5zM570 556q0 80 -47 119.5
t-142 39.5h-222v-331h187q109 0 166.5 44t57.5 128zM429 961h61l-111 -138h-45l-120 138h64l78 -81z" />
    <glyph glyph-name="rcaron" unicode="&#x159;" horiz-adv-x="469" 
d="M85 0zM312 574q64 0 98 -41.5t34 -118.5q0 -15 -2.5 -38.5t-6.5 -39.5l-63 -9q4 19 6.5 43t2.5 40q0 56 -23 85t-66 29q-64 0 -102.5 -68.5t-38.5 -180.5v-275h-66v565h64v-133h3q21 68 63 105t97 37zM340 810h61l-117 -178h-45l-122 178h64l82 -118z" />
    <glyph glyph-name="Sacute" unicode="&#x15a;" horiz-adv-x="636" 
d="M18 0zM546 348q27 -24 39.5 -56t12.5 -77q0 -104 -74 -165.5t-199 -61.5q-132 0 -211 60.5t-96 174.5l64 20q11 -95 74 -145.5t171 -50.5q97 0 151.5 43.5t54.5 121.5q0 52 -28 82t-100 47q-16 4 -84.5 17t-113.5 27q-34 10 -59 24t-42 31q-22 22 -34.5 55.5t-12.5 71.5
q0 100 69 159.5t185 59.5q112 0 181 -54.5t92 -161.5l-63 -16q-17 86 -71 129.5t-142 43.5q-87 0 -136.5 -41t-49.5 -114q0 -52 28.5 -82t97.5 -48q21 -5 88 -18.5t108 -26.5q35 -10 57.5 -21t42.5 -28zM358 832h-54l51 138h70z" />
    <glyph glyph-name="sacute" unicode="&#x15b;" horiz-adv-x="522" 
d="M24 0zM275 49q68 0 106.5 29.5t38.5 81.5q0 37 -23 55.5t-100 32.5q-90 16 -134.5 30t-67.5 37q-18 17 -27 41.5t-9 55.5q0 73 54.5 119t141.5 46q89 0 146.5 -44.5t73.5 -126.5l-60 -17q-13 64 -53.5 97.5t-106.5 33.5q-62 0 -97.5 -27.5t-35.5 -76.5q0 -39 27 -61
t96 -35q117 -23 151 -34t56 -33q15 -15 23.5 -39t8.5 -51q0 -77 -58.5 -125t-152.5 -48q-105 0 -168.5 45.5t-80.5 131.5l63 17q16 -69 62 -102t126 -33zM309 632h-54l69 178h70z" />
    <glyph glyph-name="Scircumflex" unicode="&#x15c;" horiz-adv-x="636" 
d="M18 0zM546 348q27 -24 39.5 -56t12.5 -77q0 -104 -74 -165.5t-199 -61.5q-132 0 -211 60.5t-96 174.5l64 20q11 -95 74 -145.5t171 -50.5q97 0 151.5 43.5t54.5 121.5q0 52 -28 82t-100 47q-16 4 -84.5 17t-113.5 27q-34 10 -59 24t-42 31q-22 22 -34.5 55.5t-12.5 71.5
q0 100 69 159.5t185 59.5q112 0 181 -54.5t92 -161.5l-63 -16q-17 86 -71 129.5t-142 43.5q-87 0 -136.5 -41t-49.5 -114q0 -52 28.5 -82t97.5 -48q21 -5 88 -18.5t108 -26.5q35 -10 57.5 -21t42.5 -28zM254 828h-61l115 138h45l116 -138h-64l-75 81z" />
    <glyph glyph-name="scircumflex" unicode="&#x15d;" horiz-adv-x="522" 
d="M24 0zM275 49q68 0 106.5 29.5t38.5 81.5q0 37 -23 55.5t-100 32.5q-90 16 -134.5 30t-67.5 37q-18 17 -27 41.5t-9 55.5q0 73 54.5 119t141.5 46q89 0 146.5 -44.5t73.5 -126.5l-60 -17q-13 64 -53.5 97.5t-106.5 33.5q-62 0 -97.5 -27.5t-35.5 -76.5q0 -39 27 -61
t96 -35q117 -23 151 -34t56 -33q15 -15 23.5 -39t8.5 -51q0 -77 -58.5 -125t-152.5 -48q-105 0 -168.5 45.5t-80.5 131.5l63 17q16 -69 62 -102t126 -33zM201 632h-61l117 178h45l122 -178h-64l-82 118z" />
    <glyph glyph-name="uni015E" unicode="&#x15e;" horiz-adv-x="636" 
d="M324 -182q33 0 50 11.5t17 33.5q0 18 -10.5 28t-29.5 10q-15 0 -28 -6.5t-19 -17.5l-43 8l31 104q-118 8 -188 68t-86 166l64 20q11 -95 74 -145.5t171 -50.5q97 0 151.5 43.5t54.5 121.5q0 52 -28 82t-100 47q-16 4 -84.5 17t-113.5 27q-34 10 -59 24t-42 31
q-22 22 -34.5 55.5t-12.5 71.5q0 100 69 159.5t185 59.5q112 0 181 -54.5t92 -161.5l-63 -16q-17 86 -71 129.5t-142 43.5q-87 0 -136.5 -41t-49.5 -114q0 -52 28.5 -82t97.5 -48q21 -5 88 -18.5t108 -26.5q35 -10 57.5 -21t42.5 -28q27 -24 39.5 -56t12.5 -77
q0 -100 -68 -161t-185 -66l-17 -59q8 4 18 6t23 2q32 0 53.5 -20t21.5 -53q0 -42 -33 -67.5t-88 -25.5q-34 0 -68 8t-57 21l25 45q19 -12 46.5 -19.5t54.5 -7.5z" />
    <glyph glyph-name="uni015F" unicode="&#x15f;" horiz-adv-x="522" 
d="M275 49q68 0 106.5 29.5t38.5 81.5q0 37 -23 55.5t-100 32.5q-90 16 -134.5 30t-67.5 37q-18 17 -27 41.5t-9 55.5q0 73 54.5 119t141.5 46q89 0 146.5 -44.5t73.5 -126.5l-60 -17q-13 64 -53.5 97.5t-106.5 33.5q-62 0 -97.5 -27.5t-35.5 -76.5q0 -39 27 -61t96 -35
q117 -23 151 -34t56 -33q15 -15 23.5 -39t8.5 -51q0 -72 -51.5 -119t-136.5 -53l-17 -62q8 4 18 6t23 2q32 0 53.5 -20t21.5 -53q0 -42 -33 -67.5t-88 -25.5q-34 0 -68 8t-57 21l25 45q19 -12 46.5 -19.5t54.5 -7.5q33 0 50 11.5t17 33.5q0 18 -10.5 28t-29.5 10
q-15 0 -28 -6.5t-19 -17.5l-43 8l32 106q-93 6 -149 51t-71 125l63 17q16 -69 62 -102t126 -33z" />
    <glyph glyph-name="Scaron" unicode="&#x160;" horiz-adv-x="636" 
d="M18 0zM546 348q27 -24 39.5 -56t12.5 -77q0 -104 -74 -165.5t-199 -61.5q-132 0 -211 60.5t-96 174.5l64 20q11 -95 74 -145.5t171 -50.5q97 0 151.5 43.5t54.5 121.5q0 52 -28 82t-100 47q-16 4 -84.5 17t-113.5 27q-34 10 -59 24t-42 31q-22 22 -34.5 55.5t-12.5 71.5
q0 100 69 159.5t185 59.5q112 0 181 -54.5t92 -161.5l-63 -16q-17 86 -71 129.5t-142 43.5q-87 0 -136.5 -41t-49.5 -114q0 -52 28.5 -82t97.5 -48q21 -5 88 -18.5t108 -26.5q35 -10 57.5 -21t42.5 -28zM403 966h61l-111 -138h-45l-120 138h64l78 -81z" />
    <glyph glyph-name="scaron" unicode="&#x161;" horiz-adv-x="522" 
d="M24 0zM275 49q68 0 106.5 29.5t38.5 81.5q0 37 -23 55.5t-100 32.5q-90 16 -134.5 30t-67.5 37q-18 17 -27 41.5t-9 55.5q0 73 54.5 119t141.5 46q89 0 146.5 -44.5t73.5 -126.5l-60 -17q-13 64 -53.5 97.5t-106.5 33.5q-62 0 -97.5 -27.5t-35.5 -76.5q0 -39 27 -61
t96 -35q117 -23 151 -34t56 -33q15 -15 23.5 -39t8.5 -51q0 -77 -58.5 -125t-152.5 -48q-105 0 -168.5 45.5t-80.5 131.5l63 17q16 -69 62 -102t126 -33zM360 810h61l-117 -178h-45l-122 178h64l82 -118z" />
    <glyph glyph-name="Tcaron" unicode="&#x164;" horiz-adv-x="662" 
d="M21 0zM641 774v-59h-276v-715h-68v715h-276v59h620zM401 966h61l-111 -138h-45l-120 138h64l78 -81z" />
    <glyph glyph-name="tcaron" unicode="&#x165;" horiz-adv-x="404" 
d="M7 0zM291 49q26 0 46 2.5t37 7.5v-57q-22 -7 -42.5 -10t-47.5 -3q-80 0 -118.5 40.5t-38.5 124.5v356h-120v55h120v126l66 38v-164h183v-55h-183v-350q0 -59 23 -85t75 -26zM360 817q0 -53 -10 -100t-31 -90h-44q11 31 16.5 67t5.5 81q0 22 -2 46.5t-6 52.5h68
q2 -14 2.5 -28.5t0.5 -28.5z" />
    <glyph glyph-name="Tbar" unicode="&#x166;" horiz-adv-x="662" 
d="M297 366h-165v52h165v297h-276v59h620v-59h-276v-297h165v-52h-165v-366h-68v366z" />
    <glyph glyph-name="tbar" unicode="&#x167;" horiz-adv-x="404" 
d="M23 297v51h104v162h-120v55h120v126l66 38v-164h183v-55h-183v-162h167v-51h-167v-137q0 -59 23 -85t75 -26q26 0 46 2.5t37 7.5v-57q-22 -7 -42.5 -10t-47.5 -3q-80 0 -118.5 40.5t-38.5 124.5v143h-104z" />
    <glyph glyph-name="Utilde" unicode="&#x168;" horiz-adv-x="772" 
d="M84 0zM152 774v-477q0 -126 59 -186t183 -60q113 0 170 64.5t57 191.5v467h67v-471q0 -152 -77.5 -233.5t-222.5 -81.5q-148 0 -226 76t-78 221v489h68zM316 944q21 0 41 -9t52 -36q24 -21 36.5 -27t24.5 -6q20 0 29 18.5t7 57.5l48 -8q0 -57 -21 -87t-61 -30
q-22 0 -42.5 9t-53.5 37q-24 20 -36 26t-23 6q-23 0 -34 -19t-10 -59l-48 8q0 57 24 88t67 31z" />
    <glyph glyph-name="utilde" unicode="&#x169;" horiz-adv-x="629" 
d="M78 0zM277 -12q-96 0 -147.5 54t-51.5 154v369h66v-347q0 -89 37.5 -131t115.5 -42q85 0 133 64.5t48 179.5v276h66v-565h-64v138h-3q-27 -72 -79 -111t-121 -39zM233 778q21 0 41 -10.5t52 -42.5q24 -25 36.5 -32.5t24.5 -7.5q20 0 29 22.5t7 68.5l48 -8q0 -64 -21 -98
t-61 -34q-22 0 -42.5 10.5t-53.5 44.5q-24 24 -36 31t-23 7q-23 0 -34 -22.5t-10 -70.5l-48 8q0 64 24 99t67 35z" />
    <glyph glyph-name="Umacron" unicode="&#x16a;" horiz-adv-x="772" 
d="M84 0zM152 774v-477q0 -126 59 -186t183 -60q113 0 170 64.5t57 191.5v467h67v-471q0 -152 -77.5 -233.5t-222.5 -81.5q-148 0 -226 76t-78 221v489h68zM531 836h-291v50h291v-50z" />
    <glyph glyph-name="umacron" unicode="&#x16b;" horiz-adv-x="629" 
d="M78 0zM277 -12q-96 0 -147.5 54t-51.5 154v369h66v-347q0 -89 37.5 -131t115.5 -42q85 0 133 64.5t48 179.5v276h66v-565h-64v138h-3q-27 -72 -79 -111t-121 -39zM461 661h-301v50h301v-50z" />
    <glyph glyph-name="Ubreve" unicode="&#x16c;" horiz-adv-x="772" 
d="M84 0zM152 774v-477q0 -126 59 -186t183 -60q113 0 170 64.5t57 191.5v467h67v-471q0 -152 -77.5 -233.5t-222.5 -81.5q-148 0 -226 76t-78 221v489h68zM389 818q-67 0 -106.5 33.5t-39.5 91.5v13h56v-8q0 -37 23 -57t67 -20q43 0 64.5 18.5t21.5 55.5v11h54v-9
q0 -59 -38 -94t-102 -35z" />
    <glyph glyph-name="ubreve" unicode="&#x16d;" horiz-adv-x="629" 
d="M78 0zM277 -12q-96 0 -147.5 54t-51.5 154v369h66v-347q0 -89 37.5 -131t115.5 -42q85 0 133 64.5t48 179.5v276h66v-565h-64v138h-3q-27 -72 -79 -111t-121 -39zM314 625q-68 0 -107 39t-39 106v13h56v-8q0 -47 23 -72t67 -25q43 0 64.5 23.5t21.5 70.5v11h54v-9
q0 -68 -38 -108.5t-102 -40.5z" />
    <glyph glyph-name="Uring" unicode="&#x16e;" horiz-adv-x="772" 
d="M84 0zM152 774v-477q0 -126 59 -186t183 -60q113 0 170 64.5t57 191.5v467h67v-471q0 -152 -77.5 -233.5t-222.5 -81.5q-148 0 -226 76t-78 221v489h68zM479 906q0 -41 -26.5 -68.5t-66.5 -27.5q-41 0 -67 26.5t-26 67.5t26.5 68.5t66.5 27.5t66.5 -26.5t26.5 -67.5z
M335 904q0 -24 14.5 -39.5t38.5 -15.5q23 0 37 15.5t14 41.5t-14.5 41.5t-38.5 15.5q-23 0 -37 -16.5t-14 -42.5z" />
    <glyph glyph-name="uring" unicode="&#x16f;" horiz-adv-x="629" 
d="M78 0zM277 -12q-96 0 -147.5 54t-51.5 154v369h66v-347q0 -89 37.5 -131t115.5 -42q85 0 133 64.5t48 179.5v276h66v-565h-64v138h-3q-27 -72 -79 -111t-121 -39zM417 734q0 -48 -29.5 -78.5t-76.5 -30.5q-48 0 -77 29.5t-29 77.5t30.5 79t77.5 31q46 0 75 -30t29 -78z
M249 733q0 -31 17 -49.5t45 -18.5q29 0 46 18t17 50q0 33 -16.5 51t-45.5 18q-28 0 -45.5 -19t-17.5 -50z" />
    <glyph glyph-name="Uhungarumlaut" unicode="&#x170;" horiz-adv-x="772" 
d="M84 0zM152 774v-477q0 -126 59 -186t183 -60q113 0 170 64.5t57 191.5v467h67v-471q0 -152 -77.5 -233.5t-222.5 -81.5q-148 0 -226 76t-78 221v489h68zM356 822h-54l51 138h70zM470 822h-54l51 138h70z" />
    <glyph glyph-name="uhungarumlaut" unicode="&#x171;" horiz-adv-x="629" 
d="M78 0zM277 -12q-96 0 -147.5 54t-51.5 154v369h66v-347q0 -89 37.5 -131t115.5 -42q85 0 133 64.5t48 179.5v276h66v-565h-64v138h-3q-27 -72 -79 -111t-121 -39zM278 622h-54l69 178h70zM398 622h-54l69 178h70z" />
    <glyph glyph-name="Uogonek" unicode="&#x172;" horiz-adv-x="772" 
d="M545 -163v-39q-12 -5 -26.5 -7.5t-29.5 -2.5q-49 0 -75.5 24t-26.5 68q0 31 16 58.5t48 51.5v2q-14 -2 -29 -3t-34 -1q-148 0 -226 76t-78 221v489h68v-477q0 -126 59 -186t183 -60q113 0 170 64.5t57 191.5v467h67v-471q0 -102 -36 -173.5t-106 -107.5q-54 -28 -80 -60
t-26 -71q0 -30 16 -45t48 -15q10 0 19.5 1.5t21.5 4.5z" />
    <glyph glyph-name="uogonek" unicode="&#x173;" horiz-adv-x="629" 
d="M277 -12q-96 0 -147.5 54t-51.5 154v369h66v-347q0 -89 37.5 -131t115.5 -42q85 0 133 64.5t48 179.5v276h66v-565q-54 -20 -78.5 -46.5t-24.5 -62.5q0 -30 16 -45t48 -15q10 0 19.5 1.5t21.5 4.5v-39q-12 -5 -26.5 -7.5t-29.5 -2.5q-49 0 -75.5 24t-26.5 68
q0 38 23 67.5t69 50.5v140h-3q-27 -72 -79 -111t-121 -39z" />
    <glyph glyph-name="Wcircumflex" unicode="&#x174;" horiz-adv-x="1030" 
d="M30 0zM247 0l-217 774h71l189 -694l186 694h80l197 -700l177 700h70l-208 -774h-80l-196 691l-189 -691h-80zM438 828h-61l115 138h45l116 -138h-64l-75 81z" />
    <glyph glyph-name="wcircumflex" unicode="&#x175;" horiz-adv-x="781" 
d="M13 0zM617 0h-76l-152 468l-147 -468h-75l-154 565h69l125 -492l156 492h54l164 -494l119 494h68zM305 632h-61l117 178h45l122 -178h-64l-82 118z" />
    <glyph glyph-name="Ycircumflex" unicode="&#x176;" horiz-adv-x="625" 
d="M13 0zM541 774h71l-259 -447v-327h-68v325l-272 449h72l234 -386zM241 828h-61l115 138h45l116 -138h-64l-75 81z" />
    <glyph glyph-name="ycircumflex" unicode="&#x177;" horiz-adv-x="539" 
d="M0 0zM528 565l-219 -565q-44 -116 -86.5 -156t-119.5 -40q-32 0 -70.5 9.5t-62.5 23.5l24 55q30 -15 60 -22.5t59 -7.5q34 0 59.5 18t46.5 57q7 12 13 25.5t13 31.5l-234 571h69l198 -487l182 487h68zM186 632h-61l117 178h45l122 -178h-64l-82 118z" />
    <glyph glyph-name="Ydieresis" unicode="&#x178;" horiz-adv-x="625" 
d="M13 0zM541 774h71l-259 -447v-327h-68v325l-272 449h72l234 -386zM270 838h-72v81h72v-81zM438 838h-72v81h72v-81z" />
    <glyph glyph-name="Zacute" unicode="&#x179;" horiz-adv-x="659" 
d="M40 0zM547 715h-485v59h556v-62l-506 -653h519v-59h-591v64zM367 832h-54l51 138h70z" />
    <glyph glyph-name="zacute" unicode="&#x17a;" horiz-adv-x="530" 
d="M34 0zM422 510h-360v55h431v-57l-385 -453h390v-55h-464v57zM299 632h-54l69 178h70z" />
    <glyph glyph-name="Zdotaccent" unicode="&#x17b;" horiz-adv-x="659" 
d="M40 0zM547 715h-485v59h556v-62l-506 -653h519v-59h-591v64zM378 839h-77v89h77v-89z" />
    <glyph glyph-name="zdotaccent" unicode="&#x17c;" horiz-adv-x="530" 
d="M34 0zM422 510h-360v55h431v-57l-385 -453h390v-55h-464v57zM310 726h-77v89h77v-89z" />
    <glyph glyph-name="Zcaron" unicode="&#x17d;" horiz-adv-x="659" 
d="M40 0zM547 715h-485v59h556v-62l-506 -653h519v-59h-591v64zM412 966h61l-111 -138h-45l-120 138h64l78 -81z" />
    <glyph glyph-name="zcaron" unicode="&#x17e;" horiz-adv-x="530" 
d="M34 0zM422 510h-360v55h431v-57l-385 -453h390v-55h-464v57zM350 810h61l-117 -178h-45l-122 178h64l82 -118z" />
    <glyph glyph-name="uni0192" unicode="&#x192;" horiz-adv-x="502" 
d="M206 347h-149v52h160l42 187q23 101 69 148.5t122 47.5q29 0 56.5 -7t53.5 -21l-22 -54q-21 12 -43.5 17.5t-48.5 5.5q-48 0 -76.5 -32t-44.5 -104l-42 -188h162v-52h-173l-78 -349q-23 -106 -66 -151t-119 -45q-34 0 -61.5 6.5t-54.5 20.5l24 56q27 -13 48.5 -18.5
t46.5 -5.5q48 0 74.5 34t45.5 119z" />
    <glyph glyph-name="AEacute" unicode="&#x1fc;" horiz-adv-x="1026" 
d="M10 0zM591 59h387v-59h-441l-32 228h-310l-113 -228h-72l392 774h556v-59h-461l41 -285h393v-57h-385zM436 712l-211 -425h271zM679 832h-54l51 138h70z" />
    <glyph glyph-name="aeacute" unicode="&#x1fd;" horiz-adv-x="952" 
d="M55 0zM692 46q63 0 105.5 33t69.5 104l56 -23q-32 -84 -91.5 -128t-140.5 -44q-82 0 -142 42t-88 120h-3q-29 -80 -87 -121t-143 -41q-80 0 -126.5 41.5t-46.5 113.5q0 37 11.5 66.5t35.5 52.5q22 20 56 33.5t83 21.5l82 14q59 10 82.5 28t23.5 54q0 49 -34.5 78.5
t-91.5 29.5q-67 0 -108 -34.5t-60 -107.5l-64 16q25 88 84 135t144 47q66 0 112 -29.5t67 -86.5q34 56 86 86t117 30t116 -31.5t80 -90.5q18 -36 27.5 -82t10.5 -101h-417q3 -104 55.5 -165t138.5 -61zM824 422q-21 47 -58 72t-86 25q-79 0 -126 -51t-55 -145h345
q-1 29 -6 54t-14 45zM123 148q0 -50 31.5 -78t87.5 -28q87 0 137.5 64.5t50.5 174.5v40q-12 -12 -36 -20.5t-65 -16.5l-80 -15q-68 -13 -97 -41t-29 -80zM509 632h-54l69 178h70z" />
    <glyph glyph-name="Oslashacute" unicode="&#x1fe;" horiz-adv-x="801" 
d="M51 0zM103 -19l-47 40l73 88q-39 51 -58.5 120.5t-19.5 154.5q0 182 97 292t258 110q65 0 120.5 -19.5t98.5 -57.5l59 73l48 -37l-66 -80q41 -53 62.5 -124.5t21.5 -156.5q0 -181 -94.5 -288.5t-254.5 -107.5q-69 0 -126.5 19t-102.5 57zM185 619q-32 -43 -48 -102.5
t-16 -132.5q0 -68 14 -123.5t41 -98.5l403 498q-34 31 -78 47t-95 16q-73 0 -129 -26.5t-92 -77.5zM618 151q31 43 46.5 101.5t15.5 131.5q0 69 -15.5 127.5t-45.5 102.5l-402 -499q36 -32 82 -48t102 -16q71 0 125.5 25t91.5 75zM433 832h-54l51 138h70z" />
    <glyph glyph-name="oslashacute" unicode="&#x1ff;" horiz-adv-x="600" 
d="M32 0zM44 282q0 134 70 214.5t188 80.5q50 0 92.5 -15t74.5 -45l51 57l42 -36l-56 -63q25 -38 37.5 -86.5t12.5 -104.5q0 -138 -68.5 -217t-188.5 -79q-50 0 -92 15t-75 44l-56 -64l-44 38l62 70q-25 37 -37.5 85.5t-12.5 105.5zM302 519q-91 0 -140.5 -60.5
t-49.5 -173.5q0 -42 7 -78t21 -64l287 327q-24 24 -55.5 36.5t-69.5 12.5zM301 46q91 0 139 61t48 176q0 42 -7.5 77.5t-21.5 63.5l-285 -329q23 -24 55.5 -36.5t71.5 -12.5zM327 632h-54l69 178h70z" />
    <glyph glyph-name="uni0218" unicode="&#x218;" horiz-adv-x="636" 
d="M18 0zM546 348q27 -24 39.5 -56t12.5 -77q0 -104 -74 -165.5t-199 -61.5q-132 0 -211 60.5t-96 174.5l64 20q11 -95 74 -145.5t171 -50.5q97 0 151.5 43.5t54.5 121.5q0 52 -28 82t-100 47q-16 4 -84.5 17t-113.5 27q-34 10 -59 24t-42 31q-22 22 -34.5 55.5t-12.5 71.5
q0 100 69 159.5t185 59.5q112 0 181 -54.5t92 -161.5l-63 -16q-17 86 -71 129.5t-142 43.5q-87 0 -136.5 -41t-49.5 -114q0 -52 28.5 -82t97.5 -48q21 -5 88 -18.5t108 -26.5q35 -10 57.5 -21t42.5 -28zM322 -162h-38v96h81v-106q0 -53 -23 -75t-76 -24l-6 41q40 2 51 13
t11 47v8z" />
    <glyph glyph-name="uni0219" unicode="&#x219;" horiz-adv-x="522" 
d="M24 0zM275 49q68 0 106.5 29.5t38.5 81.5q0 37 -23 55.5t-100 32.5q-90 16 -134.5 30t-67.5 37q-18 17 -27 41.5t-9 55.5q0 73 54.5 119t141.5 46q89 0 146.5 -44.5t73.5 -126.5l-60 -17q-13 64 -53.5 97.5t-106.5 33.5q-62 0 -97.5 -27.5t-35.5 -76.5q0 -39 27 -61
t96 -35q117 -23 151 -34t56 -33q15 -15 23.5 -39t8.5 -51q0 -77 -58.5 -125t-152.5 -48q-105 0 -168.5 45.5t-80.5 131.5l63 17q16 -69 62 -102t126 -33zM273 -162h-38v96h81v-106q0 -53 -23 -75t-76 -24l-6 41q40 2 51 13t11 47v8z" />
    <glyph glyph-name="uni021A" unicode="&#x21a;" horiz-adv-x="662" 
d="M21 0zM641 774v-59h-276v-715h-68v715h-276v59h620zM326 -162h-38v96h81v-106q0 -53 -23 -75t-76 -24l-6 41q40 2 51 13t11 47v8z" />
    <glyph glyph-name="uni021B" unicode="&#x21b;" horiz-adv-x="404" 
d="M7 0zM291 49q26 0 46 2.5t37 7.5v-57q-22 -7 -42.5 -10t-47.5 -3q-80 0 -118.5 40.5t-38.5 124.5v356h-120v55h120v126l66 38v-164h183v-55h-183v-350q0 -59 23 -85t75 -26zM264 -162h-38v96h81v-106q0 -53 -23 -75t-76 -24l-6 41q40 2 51 13t11 47v8z" />
    <glyph glyph-name="uni0237" unicode="&#x237;" horiz-adv-x="240" 
d="M-34 -182l-9 65q11 -4 27.5 -7t30.5 -3q39 0 55.5 21.5t16.5 74.5v596h66v-601q0 -82 -31 -118.5t-101 -36.5q-15 0 -29 2.5t-26 6.5z" />
    <glyph glyph-name="circumflex" unicode="&#x2c6;" horiz-adv-x="500" 
d="M169 632h-61l117 178h45l122 -178h-64l-82 118z" />
    <glyph glyph-name="caron" unicode="&#x2c7;" horiz-adv-x="500" 
d="M331 810h61l-117 -178h-45l-122 178h64l82 -118z" />
    <glyph glyph-name="breve" unicode="&#x2d8;" horiz-adv-x="500" 
d="M253 635q-68 0 -107 39t-39 106v13h56v-8q0 -47 23 -72t67 -25q43 0 64.5 23.5t21.5 70.5v11h54v-9q0 -68 -38 -108.5t-102 -40.5z" />
    <glyph glyph-name="dotaccent" unicode="&#x2d9;" horiz-adv-x="500" 
d="M289 726h-77v89h77v-89z" />
    <glyph glyph-name="ring" unicode="&#x2da;" horiz-adv-x="500" 
d="M356 744q0 -48 -29.5 -78.5t-76.5 -30.5q-48 0 -77 29.5t-29 77.5t30.5 79t77.5 31q46 0 75 -30t29 -78zM188 743q0 -31 17 -49.5t45 -18.5q29 0 46 18t17 50q0 33 -16.5 51t-45.5 18q-28 0 -45.5 -19t-17.5 -50z" />
    <glyph glyph-name="ogonek" unicode="&#x2db;" horiz-adv-x="500" 
d="M288 -169q10 0 19.5 1.5t21.5 4.5v-39q-12 -5 -26.5 -7.5t-29.5 -2.5q-49 0 -75.5 24t-26.5 68q0 38 22.5 67.5t67.5 50.5v21l66 -19q-54 -20 -78.5 -46.5t-24.5 -62.5q0 -30 16 -45t48 -15z" />
    <glyph glyph-name="tilde" unicode="&#x2dc;" horiz-adv-x="500" 
d="M179 788q21 0 41 -10.5t52 -42.5q24 -25 36.5 -32.5t24.5 -7.5q20 0 29 22.5t7 68.5l48 -8q0 -64 -21 -98t-61 -34q-22 0 -42.5 10.5t-53.5 44.5q-24 24 -36 31t-23 7q-23 0 -34 -22.5t-10 -70.5l-48 8q0 64 24 99t67 35z" />
    <glyph glyph-name="hungarumlaut" unicode="&#x2dd;" horiz-adv-x="500" 
d="M175 632h-54l69 178h70zM295 632h-54l69 178h70z" />
    <glyph glyph-name="uni030F" unicode="&#x30f;" horiz-adv-x="500" 
d="M191 810l69 -178h-54l-85 178h70zM311 810l69 -178h-54l-85 178h70z" />
    <glyph glyph-name="uni0311" unicode="&#x311;" horiz-adv-x="500" 
d="M251 793q66 0 104 -39t38 -106v-13h-56v8q0 47 -22.5 72t-64.5 25q-44 0 -66.5 -23.5t-22.5 -70.5v-11h-54v9q0 68 39 108.5t105 40.5z" />
    <glyph glyph-name="uni0323" unicode="&#x323;" horiz-adv-x="500" 
d="M289 -184h-72v89h72v-89z" />
    <glyph glyph-name="uni03A9" unicode="&#x3a9;" horiz-adv-x="862" 
d="M89 455q0 141 98 236t244 95t244 -95t98 -236q0 -101 -59 -185t-152 -114v-96h229v-60h-289v197q93 20 146.5 88.5t53.5 166.5q0 123 -74 197t-197 74t-197 -74t-74 -197q0 -98 53.5 -166.5t146.5 -88.5v-197h-289v60h229v94q-92 29 -151.5 114t-59.5 187z" />
    <glyph glyph-name="pi" unicode="&#x3c0;" horiz-adv-x="663" 
d="M118 510h-96v55h619v-55h-96v-510h-66v510h-295v-510h-66v510z" />
    <glyph glyph-name="uni0E3F" unicode="&#xe3f;" horiz-adv-x="709" 
d="M377 0v-125h-62v125h-224v774h224v91h62v-91q124 -3 187.5 -51t63.5 -139q0 -69 -43.5 -117.5t-119.5 -64.5v-2q91 -12 142 -62.5t51 -127.5q0 -104 -67.5 -157t-199.5 -53h-14zM315 715h-156v-290h156v290zM559 572q0 71 -45 106t-137 37v-290q94 4 138 39.5t44 107.5z
M315 371h-156v-312h156v312zM589 219q0 76 -53 114t-159 38v-312h10q105 0 153.5 38t48.5 122z" />
    <glyph glyph-name="Wgrave" unicode="&#x1e80;" horiz-adv-x="1030" 
d="M30 0zM247 0l-217 774h71l189 -694l186 694h80l197 -700l177 700h70l-208 -774h-80l-196 691l-189 -691h-80zM491 970l51 -138h-54l-67 138h70z" />
    <glyph glyph-name="wgrave" unicode="&#x1e81;" horiz-adv-x="781" 
d="M13 0zM617 0h-76l-152 468l-147 -468h-75l-154 565h69l125 -492l156 492h54l164 -494l119 494h68zM344 810l69 -178h-54l-85 178h70z" />
    <glyph glyph-name="Wacute" unicode="&#x1e82;" horiz-adv-x="1030" 
d="M30 0zM247 0l-217 774h71l189 -694l186 694h80l197 -700l177 700h70l-208 -774h-80l-196 691l-189 -691h-80zM542 832h-54l51 138h70z" />
    <glyph glyph-name="wacute" unicode="&#x1e83;" horiz-adv-x="781" 
d="M13 0zM617 0h-76l-152 468l-147 -468h-75l-154 565h69l125 -492l156 492h54l164 -494l119 494h68zM413 632h-54l69 178h70z" />
    <glyph glyph-name="Wdieresis" unicode="&#x1e84;" horiz-adv-x="1030" 
d="M30 0zM247 0l-217 774h71l189 -694l186 694h80l197 -700l177 700h70l-208 -774h-80l-196 691l-189 -691h-80zM467 838h-72v81h72v-81zM635 838h-72v81h72v-81z" />
    <glyph glyph-name="wdieresis" unicode="&#x1e85;" horiz-adv-x="781" 
d="M13 0zM617 0h-76l-152 468l-147 -468h-75l-154 565h69l125 -492l156 492h54l164 -494l119 494h68zM338 678h-72v81h72v-81zM506 678h-72v81h72v-81z" />
    <glyph glyph-name="uni1E9E" unicode="&#x1e9e;" horiz-adv-x="770" 
d="M350 371v34l233 311h-164q-152 0 -214 -73.5t-62 -253.5v-389h-68v402q0 191 82.5 281.5t255.5 90.5h244v-53l-224 -299q145 -3 223.5 -59t78.5 -157q0 -97 -67 -157.5t-174 -60.5q-71 0 -129.5 20t-101.5 59l42 51q36 -35 84.5 -53t108.5 -18q77 0 123 42t46 112
q0 89 -67.5 130t-215.5 41h-22.5t-11.5 -1z" />
    <glyph glyph-name="Ygrave" unicode="&#x1ef2;" horiz-adv-x="625" 
d="M13 0zM541 774h71l-259 -447v-327h-68v325l-272 449h72l234 -386zM294 970l51 -138h-54l-67 138h70z" />
    <glyph glyph-name="ygrave" unicode="&#x1ef3;" horiz-adv-x="539" 
d="M0 0zM528 565l-219 -565q-44 -116 -86.5 -156t-119.5 -40q-32 0 -70.5 9.5t-62.5 23.5l24 55q30 -15 60 -22.5t59 -7.5q34 0 59.5 18t46.5 57q7 12 13 25.5t13 31.5l-234 571h69l198 -487l182 487h68zM225 810l69 -178h-54l-85 178h70z" />
    <glyph glyph-name="uni200B" unicode="&#x200b;" horiz-adv-x="0" 
 />
    <glyph glyph-name="figuredash" unicode="&#x2012;" 
d="M570 300h-520v50h520v-50z" />
    <glyph glyph-name="endash" unicode="&#x2013;" horiz-adv-x="774" 
d="M709 300h-644v50h644v-50z" />
    <glyph glyph-name="emdash" unicode="&#x2014;" horiz-adv-x="953" 
d="M888 300h-823v50h823v-50z" />
    <glyph glyph-name="uni2015" unicode="&#x2015;" horiz-adv-x="747" 
d="M65 300zM682 300h-617v50h617v-50z" />
    <glyph glyph-name="uni2016" unicode="&#x2016;" horiz-adv-x="416" 
d="M82 0zM82 -231v1046h62v-1046h-62zM272 -231v1046h62v-1046h-62z" />
    <glyph glyph-name="underscoredbl" unicode="&#x2017;" horiz-adv-x="558" 
d="M496 -89h-434v50h434v-50zM496 -179h-434v50h434v-50z" />
    <glyph glyph-name="quoteleft" unicode="&#x2018;" horiz-adv-x="153" 
d="M79 652h38v-106h-81v134q0 50 23.5 73.5t75.5 25.5l6 -41q-39 -2 -50.5 -13t-11.5 -47v-26z" />
    <glyph glyph-name="quoteright" unicode="&#x2019;" horiz-adv-x="153" 
d="M74 668h-38v106h81v-134q0 -49 -23.5 -73t-75.5 -26l-6 41q39 2 50.5 13t11.5 47v26z" />
    <glyph glyph-name="quotesinglbase" unicode="&#x201a;" horiz-adv-x="153" 
d="M12 0zM74 0h-38v106h81v-134q0 -49 -23.5 -73t-75.5 -26l-6 41q39 2 50.5 13t11.5 47v26z" />
    <glyph glyph-name="quotedblleft" unicode="&#x201c;" horiz-adv-x="288" 
d="M36 546zM79 652h38v-106h-81v134q0 50 23.5 73.5t75.5 25.5l6 -41q-39 -2 -50.5 -13t-11.5 -47v-26zM214 652h38v-106h-81v134q0 50 23.5 73.5t75.5 25.5l6 -41q-39 -2 -50.5 -13t-11.5 -47v-26z" />
    <glyph glyph-name="quotedblright" unicode="&#x201d;" horiz-adv-x="288" 
d="M12 541zM74 668h-38v106h81v-134q0 -49 -23.5 -73t-75.5 -26l-6 41q39 2 50.5 13t11.5 47v26zM209 668h-38v106h81v-134q0 -49 -23.5 -73t-75.5 -26l-6 41q39 2 50.5 13t11.5 47v26z" />
    <glyph glyph-name="quotedblbase" unicode="&#x201e;" horiz-adv-x="288" 
d="M12 0zM74 0h-38v106h81v-134q0 -49 -23.5 -73t-75.5 -26l-6 41q39 2 50.5 13t11.5 47v26zM209 0h-38v106h81v-134q0 -49 -23.5 -73t-75.5 -26l-6 41q39 2 50.5 13t11.5 47v26z" />
    <glyph glyph-name="dagger" unicode="&#x2020;" horiz-adv-x="466" 
d="M199 552h-157v51h157v171h58v-171h167v-51h-167v-392h-58v392z" />
    <glyph glyph-name="daggerdbl" unicode="&#x2021;" horiz-adv-x="466" 
d="M199 331h-157v51h158v170h-158v51h157v171h58v-171h167v-51h-168v-170h168v-51h-167v-171h-58v171z" />
    <glyph glyph-name="bullet" unicode="&#x2022;" horiz-adv-x="339" 
d="M255 313q0 -37 -24.5 -61.5t-60.5 -24.5t-61 25t-25 61q0 37 24.5 62t61.5 25t61 -24.5t24 -62.5z" />
    <glyph glyph-name="ellipsis" unicode="&#x2026;" horiz-adv-x="581" 
d="M117 0h-81v106h81v-106zM545 0h-81v106h81v-106zM331 0h-81v106h81v-106z" />
    <glyph glyph-name="perthousand" unicode="&#x2030;" horiz-adv-x="1395" 
d="M266 392q-76 0 -122 51.5t-46 139.5t47.5 143.5t122.5 55.5t121 -54.5t46 -143.5q0 -85 -47 -138.5t-122 -53.5zM733 774h70l-562 -774h-72zM268 730q-51 0 -80 -38.5t-29 -107.5q0 -65 29 -102.5t78 -37.5q52 0 80 36.5t28 103.5q0 69 -28 107.5t-78 38.5zM718 -8
q-76 0 -122 51.5t-46 139.5t47.5 143.5t122.5 55.5t121 -54.5t46 -143.5q0 -85 -47 -138.5t-122 -53.5zM1128 -8q-76 0 -122 51.5t-46 139.5t47.5 143.5t122.5 55.5t121 -54.5t46 -143.5q0 -85 -47 -138.5t-122 -53.5zM718 44q52 0 80 36.5t28 103.5q0 69 -28 107.5
t-78 38.5q-51 0 -80 -38.5t-29 -107.5q0 -65 29 -102.5t78 -37.5zM1128 44q52 0 80 36.5t28 103.5q0 69 -28 107.5t-78 38.5q-51 0 -80 -38.5t-29 -107.5q0 -65 29 -102.5t78 -37.5z" />
    <glyph glyph-name="uni2032" unicode="&#x2032;" horiz-adv-x="234" 
d="M65 507l46 267h70l-70 -267h-46z" />
    <glyph glyph-name="uni2033" unicode="&#x2033;" horiz-adv-x="374" 
d="M65 507l46 267h70l-70 -267h-46zM205 507l46 267h70l-70 -267h-46z" />
    <glyph glyph-name="uni2034" unicode="&#x2034;" horiz-adv-x="542" 
d="M82 527zM95 527l-13 247h70l-11 -247h-46zM249 527l-13 247h70l-11 -247h-46zM403 527l-13 247h70l-11 -247h-46z" />
    <glyph glyph-name="guilsinglleft" unicode="&#x2039;" horiz-adv-x="225" 
d="M147 495h70l-139 -198l141 -204h-71l-141 201z" />
    <glyph glyph-name="guilsinglright" unicode="&#x203a;" horiz-adv-x="225" 
d="M77 495l142 -201l-141 -201h-70l139 198l-140 204h70z" />
    <glyph glyph-name="exclamdbl" unicode="&#x203c;" horiz-adv-x="534" 
d="M93 0zM98 537v237h71v-237l-21 -353h-29zM174 0h-81v106h81v-106zM365 537v237h71v-237l-21 -353h-29zM441 0h-81v106h81v-106z" />
    <glyph glyph-name="uni203D" unicode="&#x203d;" horiz-adv-x="508" 
d="M370 382q-64 -50 -80 -79t-16 -92v-32h-52l-6 544q-62 -11 -98.5 -57.5t-53.5 -135.5l-61 15q21 118 88 179t176 61q103 0 166 -55.5t63 -146.5q0 -58 -27.5 -102t-98.5 -99zM333 424q57 44 77 77t20 81q0 63 -41.5 102t-111.5 43l-12 -366q12 14 28.5 29.5t39.5 33.5z
M288 0h-81v106h81v-106z" />
    <glyph glyph-name="fraction" unicode="&#x2044;" horiz-adv-x="234" 
d="M364 774h70l-562 -774h-72z" />
    <glyph glyph-name="uni2070" unicode="&#x2070;" horiz-adv-x="368" 
d="M27 463zM184 463q-76 0 -116.5 51t-40.5 147q0 93 43 146t117 53q72 0 113.5 -52.5t41.5 -146.5q0 -93 -42 -145.5t-116 -52.5zM185 510q49 0 74.5 38t25.5 112t-26 113.5t-73 39.5q-49 0 -75.5 -39t-26.5 -114q0 -73 26.5 -111.5t74.5 -38.5z" />
    <glyph glyph-name="uni2074" unicode="&#x2074;" horiz-adv-x="334" 
d="M16 470zM324 603v-46h-67v-87h-56v87h-185v51l183 244h58v-249h67zM203 791l-138 -188h138v188z" />
    <glyph glyph-name="uni2075" unicode="&#x2075;" horiz-adv-x="337" 
d="M21 464zM194 732q55 0 88 -35t33 -93q0 -64 -39 -102t-105 -38q-60 0 -99 30t-51 86l54 15q9 -42 33 -63t64 -21t63 24.5t23 68.5t-22 69t-61 25q-27 0 -49.5 -13t-36.5 -36l-50 5l31 198h220v-47h-176l-19 -114h2q18 20 42.5 30.5t54.5 10.5z" />
    <glyph glyph-name="uni2076" unicode="&#x2076;" horiz-adv-x="346" 
d="M26 464zM186 464q-76 0 -118 50t-42 139q0 93 47.5 149t126.5 56q40 0 72 -17t55 -51l-49 -31q-15 27 -35 39.5t-49 12.5q-52 0 -81.5 -43t-29.5 -120v-2h2q15 35 46 54.5t72 19.5q55 0 89 -33.5t34 -87.5q0 -61 -39 -98t-101 -37zM186 681q-40 0 -65.5 -24t-25.5 -62
q0 -36 25.5 -60t64.5 -24q38 0 61 23.5t23 63.5q0 39 -22 61t-61 22z" />
    <glyph glyph-name="uni2077" unicode="&#x2077;" horiz-adv-x="293" 
d="M14 470zM169 501v-31h-60v31q0 102 31 178t92 124h-218v49h273v-37q-62 -41 -90 -114t-28 -200z" />
    <glyph glyph-name="uni2078" unicode="&#x2078;" horiz-adv-x="350" 
d="M23 464zM327 577q0 -51 -42 -82t-109 -31q-71 0 -112 29.5t-41 80.5q0 37 22.5 62t65.5 36v1q-32 12 -49.5 33.5t-17.5 50.5q0 46 36.5 73t94.5 27q59 0 95 -26.5t36 -71.5q0 -29 -17.5 -51t-49.5 -34v-2q43 -10 65.5 -34.5t22.5 -60.5zM252 750q0 29 -21 45t-56 16
q-36 0 -56.5 -16t-20.5 -46q0 -29 21 -45.5t57 -16.5q35 0 55.5 16.5t20.5 46.5zM80 581q0 -33 26 -51.5t72 -18.5q43 0 67.5 19.5t24.5 53.5q0 32 -25.5 51t-68.5 19q-44 0 -70 -19.5t-26 -53.5z" />
    <glyph glyph-name="uni2079" unicode="&#x2079;" horiz-adv-x="346" 
d="M18 464zM163 859q73 0 115 -50.5t42 -137.5q0 -97 -44 -152t-122 -55q-46 0 -81 18t-55 52l47 27q14 -24 37.5 -37t53.5 -13q53 0 80 41.5t27 124.5h-3q-14 -33 -45 -52t-69 -19q-57 0 -91 33.5t-34 88.5q0 58 39.5 94.5t102.5 36.5zM166 643q34 0 59.5 24.5t25.5 60.5
q0 37 -23.5 60.5t-64.5 23.5q-39 0 -62 -23t-23 -61q0 -40 23.5 -62.5t64.5 -22.5z" />
    <glyph glyph-name="uni207A" unicode="&#x207a;" horiz-adv-x="265" 
d="M35 537zM111 615h-76v45h76v76h45v-76h74v-45h-74v-78h-45v78z" />
    <glyph glyph-name="uni207B" unicode="&#x207b;" horiz-adv-x="265" 
d="M35 615zM230 615h-195v45h195v-45z" />
    <glyph glyph-name="uni207C" unicode="&#x207c;" horiz-adv-x="265" 
d="M35 567zM230 658h-195v45h195v-45zM230 567h-195v45h195v-45z" />
    <glyph glyph-name="uni207D" unicode="&#x207d;" horiz-adv-x="172" 
d="M15 354zM15 639q0 85 31 162t79 119h45q-49 -55 -74 -126t-25 -155t24.5 -155.5t74.5 -129.5h-45q-49 45 -79.5 122.5t-30.5 162.5z" />
    <glyph glyph-name="uni207E" unicode="&#x207e;" horiz-adv-x="171" 
d="M2 354zM156 635q0 -86 -31 -163.5t-79 -117.5h-44q49 56 74 126.5t25 154.5q0 83 -25 154.5t-74 130.5h44q49 -45 79.5 -122.5t30.5 -162.5z" />
    <glyph glyph-name="uni2080" unicode="&#x2080;" horiz-adv-x="368" 
d="M27 0zM184 -87q-76 0 -116.5 51t-40.5 147q0 93 43 146t117 53q72 0 113.5 -52.5t41.5 -146.5q0 -93 -42 -145.5t-116 -52.5zM185 -40q49 0 74.5 38t25.5 112t-26 113.5t-73 39.5q-49 0 -75.5 -39t-26.5 -114q0 -73 26.5 -111.5t74.5 -38.5z" />
    <glyph glyph-name="uni2081" unicode="&#x2081;" horiz-adv-x="201" 
d="M6 0zM6 212v41h59q23 0 30 5.5t9 26.5l1 17h45v-382h-57v292h-87z" />
    <glyph glyph-name="uni2082" unicode="&#x2082;" horiz-adv-x="336" 
d="M34 0zM249 187q0 35 -19 54.5t-53 19.5q-43 0 -65 -28.5t-20 -81.5l-55 11q0 69 37.5 107.5t103.5 38.5q59 0 93.5 -31.5t34.5 -85.5q0 -44 -24.5 -81.5t-79.5 -78.5l-85 -64h200v-47h-283v42l124 93q47 36 69 67.5t22 64.5z" />
    <glyph glyph-name="uni2083" unicode="&#x2083;" horiz-adv-x="325" 
d="M21 0zM236 203q0 29 -17 43.5t-50 14.5q-37 0 -57.5 -19t-25.5 -56l-51 12q10 52 46 81t91 29q56 0 88.5 -26t32.5 -70q0 -32 -19.5 -55t-53.5 -33v-2q44 -8 67 -31.5t23 -61.5q0 -52 -38 -83.5t-100 -31.5q-65 0 -104.5 31.5t-46.5 88.5l54 14q3 -43 28 -65t69 -22
q39 0 60 19t21 54q0 33 -22 48.5t-71 15.5h-48v44h46q38 0 58 15.5t20 45.5z" />
    <glyph glyph-name="uni2084" unicode="&#x2084;" horiz-adv-x="334" 
d="M16 0zM324 53v-46h-67v-87h-56v87h-185v51l183 244h58v-249h67zM203 241l-138 -188h138v188z" />
    <glyph glyph-name="uni2085" unicode="&#x2085;" horiz-adv-x="337" 
d="M21 0zM194 182q55 0 88 -35t33 -93q0 -64 -39 -102t-105 -38q-60 0 -99 30t-51 86l54 15q9 -42 33 -63t64 -21t63 24.5t23 68.5t-22 69t-61 25q-27 0 -49.5 -13t-36.5 -36l-50 5l31 198h220v-47h-176l-19 -114h2q18 20 42.5 30.5t54.5 10.5z" />
    <glyph glyph-name="uni2086" unicode="&#x2086;" horiz-adv-x="346" 
d="M26 0zM186 -86q-76 0 -118 50t-42 139q0 93 47.5 149t126.5 56q40 0 72 -17t55 -51l-49 -31q-15 27 -35 39.5t-49 12.5q-52 0 -81.5 -43t-29.5 -120v-2h2q15 35 46 54.5t72 19.5q55 0 89 -33.5t34 -87.5q0 -61 -39 -98t-101 -37zM186 131q-40 0 -65.5 -24t-25.5 -62
q0 -36 25.5 -60t64.5 -24q38 0 61 23.5t23 63.5q0 39 -22 61t-61 22z" />
    <glyph glyph-name="uni2087" unicode="&#x2087;" horiz-adv-x="293" 
d="M14 0zM169 -49v-31h-60v31q0 102 31 178t92 124h-218v49h273v-37q-62 -41 -90 -114t-28 -200z" />
    <glyph glyph-name="uni2088" unicode="&#x2088;" horiz-adv-x="350" 
d="M23 0zM327 27q0 -51 -42 -82t-109 -31q-71 0 -112 29.5t-41 80.5q0 37 22.5 62t65.5 36v1q-32 12 -49.5 33.5t-17.5 50.5q0 46 36.5 73t94.5 27q59 0 95 -26.5t36 -71.5q0 -29 -17.5 -51t-49.5 -34v-2q43 -10 65.5 -34.5t22.5 -60.5zM252 200q0 29 -21 45t-56 16
q-36 0 -56.5 -16t-20.5 -46q0 -29 21 -45.5t57 -16.5q35 0 55.5 16.5t20.5 46.5zM80 31q0 -33 26 -51.5t72 -18.5q43 0 67.5 19.5t24.5 53.5q0 32 -25.5 51t-68.5 19q-44 0 -70 -19.5t-26 -53.5z" />
    <glyph glyph-name="uni2089" unicode="&#x2089;" horiz-adv-x="346" 
d="M18 0zM163 309q73 0 115 -50.5t42 -137.5q0 -97 -44 -152t-122 -55q-46 0 -81 18t-55 52l47 27q14 -24 37.5 -37t53.5 -13q53 0 80 41.5t27 124.5h-3q-14 -33 -45 -52t-69 -19q-57 0 -91 33.5t-34 88.5q0 58 39.5 94.5t102.5 36.5zM166 93q34 0 59.5 24.5t25.5 60.5
q0 37 -23.5 60.5t-64.5 23.5q-39 0 -62 -23t-23 -61q0 -40 23.5 -62.5t64.5 -22.5z" />
    <glyph glyph-name="uni208A" unicode="&#x208a;" horiz-adv-x="265" 
d="M111 101h-76v45h76v76h45v-76h74v-45h-74v-78h-45v78z" />
    <glyph glyph-name="uni208B" unicode="&#x208b;" horiz-adv-x="265" 
d="M230 101h-195v45h195v-45z" />
    <glyph glyph-name="uni208C" unicode="&#x208c;" horiz-adv-x="265" 
d="M230 144h-195v45h195v-45zM230 53h-195v45h195v-45z" />
    <glyph glyph-name="uni208D" unicode="&#x208d;" horiz-adv-x="172" 
d="M15 125q0 85 31 162t79 119h45q-49 -55 -74 -126t-25 -155t24.5 -155.5t74.5 -129.5h-45q-49 45 -79.5 122.5t-30.5 162.5z" />
    <glyph glyph-name="uni208E" unicode="&#x208e;" horiz-adv-x="171" 
d="M156 121q0 -86 -31 -163.5t-79 -117.5h-44q49 56 74 126.5t25 154.5q0 83 -25 154.5t-74 130.5h44q49 -45 79.5 -122.5t30.5 -162.5z" />
    <glyph glyph-name="uni20A1" unicode="&#x20a1;" horiz-adv-x="774" 
d="M131 -55l-58 29l67 129q-44 52 -66.5 122.5t-22.5 153.5q0 183 99 295t260 112q21 0 41 -2.5t39 -6.5l48 92l58 -30l-43 -83q20 -9 39 -20t38 -25l48 92l58 -30l-374 -719q10 -1 22 -2t24 -1q104 0 168.5 52t98.5 163l63 -21q-35 -125 -120.5 -191t-210.5 -66
q-22 0 -40.5 1.5t-35.5 5.5l-60 -116l-58 29l54 105q-22 9 -41.5 19.5t-36.5 23.5zM410 723q-137 0 -213 -90.5t-76 -253.5q0 -62 13.5 -115t40.5 -94l285 549q-11 2 -23 3t-27 1zM524 701l-303 -584q16 -15 35.5 -27t40.5 -20l304 584q-18 16 -37 27.5t-40 19.5z" />
    <glyph glyph-name="uni20A2" unicode="&#x20a2;" horiz-adv-x="774" 
d="M407 -12q-165 0 -260.5 105t-95.5 286q0 183 99 295t260 112q127 0 210.5 -71t112.5 -204l-66 -15q-22 110 -88 168.5t-169 58.5q-137 0 -213 -90.5t-76 -253.5q0 -124 53.5 -208.5t148.5 -110.5v386h64v-133h3q21 75 59 110t98 35q9 0 17.5 -0.5t26.5 -3.5v-59
q-19 3 -28.5 3.5t-21.5 0.5q-42 0 -71.5 -19t-48.5 -59q-16 -33 -24 -85.5t-8 -131.5v-54h19q103 0 168 52.5t99 163.5l63 -21q-35 -125 -120.5 -191t-210.5 -66z" />
    <glyph glyph-name="franc" unicode="&#x20a3;" horiz-adv-x="672" 
d="M137 196h-125v52h125v526h477v-60h-409v-214h353v-59h-353v-193h319v-52h-319v-196h-68v196z" />
    <glyph glyph-name="lira" unicode="&#x20a4;" horiz-adv-x="728" 
d="M237 265h-188v52h159q-3 5 -6 10.5l-9 16.5q-11 17 -16 26t-9 17h-119v52h93q-10 27 -15 54.5t-5 54.5q0 104 70.5 171t182.5 67q111 0 180.5 -66.5t80.5 -181.5l-66 -15q-11 100 -60.5 151.5t-134.5 51.5q-87 0 -137 -47.5t-50 -128.5q0 -28 5 -55t16 -56h358v-52h-334
q4 -7 8.5 -15.5t13.5 -24.5q6 -12 9.5 -18t6.5 -12h296v-52h-270q11 -28 16 -53t5 -49v-10t-1 -6q37 -30 60 -47.5t32 -23.5q28 -18 55.5 -26t55.5 -8q58 0 83 36.5t19 109.5l-1 12h55q1 -13 2 -24.5t1 -19.5q0 -82 -42 -125t-117 -43q-52 0 -97.5 19.5t-117.5 83.5
q-17 -45 -53 -70t-84 -25q-52 0 -83.5 29.5t-31.5 75.5q0 48 34 79t90 31q23 0 44 -6.5t44 -19.5q-3 19 -10 39t-18 41zM175 161q-30 0 -47 -15t-17 -40q0 -27 17 -42.5t46 -15.5q34 0 57 21t31 59q-25 18 -45.5 25.5t-41.5 7.5z" />
    <glyph glyph-name="uni20A6" unicode="&#x20a6;" horiz-adv-x="782" 
d="M103 367h-111v52h111v355h100l215 -355h196v355h65v-355h133v-52h-133v-367h-79l-224 367h-208v-367h-65v367zM344 419l-176 289v-289h176zM450 367l164 -271v271h-164z" />
    <glyph glyph-name="peseta" unicode="&#x20a7;" horiz-adv-x="693" 
d="M103 528h-111v52h111v194h254q125 0 193.5 -49.5t74.5 -144.5h88v-52h-89q-10 -95 -82 -143t-204 -48h-167v-337h-68v528zM350 715h-179v-135h384q-5 69 -55 102t-150 33zM171 394h159q111 0 163 31t61 103h-383v-134z" />
    <glyph glyph-name="uni20A8" unicode="&#x20a8;" horiz-adv-x="864" 
d="M355 277q-8 30 -25 41t-57 11h-116v-329h-66v774h184q99 0 149.5 -51.5t50.5 -152.5q0 -83 -35.5 -138t-99.5 -73v-1q43 -11 62.5 -45t31.5 -114q9 -60 18.5 -104.5t23.5 -89.5v-5h-75q-9 34 -15.5 73.5t-13.5 95.5q-7 61 -10 78.5t-7 29.5zM407 556q0 83 -34 121
t-106 38h-110v-331h113q68 0 102.5 43t34.5 129zM667 44q42 0 66 31t24 85q0 30 -11 48t-37 31q-14 6 -45.5 16.5t-48.5 17.5q-51 21 -72.5 53.5t-21.5 85.5q0 74 42.5 119.5t110.5 45.5t105 -43.5t40 -127.5l-57 -17q-2 70 -23 103t-67 33q-41 0 -66 -29.5t-25 -79.5
q0 -33 12 -53t41 -33q13 -6 47 -17.5t55 -20.5q44 -19 63 -50t19 -79q0 -78 -41 -125.5t-109 -47.5q-80 0 -126 46.5t-48 130.5l59 17q3 -71 31 -105.5t83 -34.5z" />
    <glyph glyph-name="uni20A9" unicode="&#x20a9;" horiz-adv-x="1094" 
d="M206 259h-176v52h162l-36 128h-126v52h111l-79 283h71l77 -283h222l76 283h80l79 -283h223l72 283h70l-76 -283h108v-52h-122l-34 -128h156v-52h-170l-70 -259h-80l-73 259h-241l-71 -259h-80zM548 691l-55 -200h112zM224 439l35 -128h125l34 128h-194zM479 439l-35 -128
h212l-37 128h-140zM682 439l36 -128h127l32 128h-195zM370 259h-97l49 -179zM831 259h-98l52 -185z" />
    <glyph glyph-name="uni20AA" unicode="&#x20aa;" horiz-adv-x="835" 
d="M91 0v774h342q55 0 85.5 -31.5t30.5 -85.5v-517h-68v574h-322v-714h-68zM744 774v-774h-342q-55 0 -85.5 31.5t-30.5 85.5v517h68v-574h322v714h68z" />
    <glyph glyph-name="Euro" unicode="&#x20ac;" horiz-adv-x="785" 
d="M117 278h-106v52h99q-1 8 -1 18v31q0 9 0.5 19.5t1.5 29.5h-100v52h106q25 141 113 223.5t213 82.5q116 0 192.5 -71t105.5 -204l-67 -16q-23 112 -82 170t-150 58q-102 0 -169 -63.5t-88 -179.5h302l-12 -52h-296l-1.5 -30t-0.5 -19t0.5 -19l1.5 -30h276l-12 -52h-257
q21 -108 87 -167.5t163 -59.5q94 0 153.5 51.5t94.5 163.5l62 -21q-36 -125 -115.5 -191t-195.5 -66q-126 0 -210 76.5t-108 213.5z" />
    <glyph glyph-name="uni20AE" unicode="&#x20ae;" horiz-adv-x="662" 
d="M134 198l-17 46l182 76v87l-165 -69l-17 46l182 76v255h-276v59h620v-59h-276v-231l162 67l17 -45l-179 -74v-88l162 67l17 -45l-179 -74v-292h-68v267z" />
    <glyph glyph-name="uni20B1" unicode="&#x20b1;" horiz-adv-x="693" 
d="M103 463h-111v52h111v74h-111v52h111v133h254q102 0 166.5 -33.5t88.5 -99.5h101v-52h-89q1 -11 1.5 -18.5t0.5 -13.5q0 -11 -0.5 -21.5t-2.5 -20.5h90v-52h-103q-25 -67 -93.5 -101.5t-178.5 -34.5h-167v-327h-68v463zM350 715h-179v-74h366q-22 37 -68 55.5t-119 18.5z
M556 557q0 6 -0.5 13.5t-1.5 18.5h-383v-74h382q2 10 2.5 20.5t0.5 21.5zM171 384h159q87 0 136.5 19t70.5 60h-366v-79z" />
    <glyph glyph-name="uni20B9" unicode="&#x20b9;" horiz-adv-x="646" 
d="M613 580v-52h-104q-11 -67 -65 -112.5t-133 -56.5v-2q27 -5 46.5 -14t36.5 -24q15 -14 27 -39t27 -81q17 -66 32 -111.5t33 -82.5v-5h-78q-11 24 -21.5 62t-25.5 107q-8 37 -16 64.5t-17 46.5q-16 31 -43.5 41t-94.5 10h-178v52h179q99 0 155.5 37t65.5 108h-400v52h401
q-7 66 -56.5 104t-125.5 38h-219v52h574v-52h-233v-2q58 -20 91 -55.5t39 -84.5h103z" />
    <glyph glyph-name="uni2113" unicode="&#x2113;" horiz-adv-x="396" 
d="M402 85l21 -57q-21 -17 -57 -28.5t-71 -11.5q-82 0 -133 60t-71 180q-19 -13 -41 -27t-49 -29l-26 47q37 21 62.5 36.5t45.5 30.5q-3 30 -4.5 62.5t-1.5 67.5q0 177 47 272.5t134 95.5q58 0 89 -38.5t31 -110.5q0 -100 -57.5 -195.5t-167.5 -179.5q14 -104 50 -155
t96 -51q26 0 51.5 7.5t51.5 23.5zM253 726q-49 0 -79 -85t-30 -224q0 -25 1 -48t2 -44q84 66 125 142.5t41 167.5q0 45 -15 68t-45 23z" />
    <glyph glyph-name="uni2116" unicode="&#x2116;" horiz-adv-x="1168" 
d="M91 0zM602 774h65v-774h-79l-432 708v-708h-65v774h100l411 -678v678zM962 384q-82 0 -129 53.5t-47 145.5q0 91 48.5 145t129.5 54t128.5 -53.5t47.5 -144.5q0 -94 -47.5 -147t-130.5 -53zM964 432q58 0 88 39t30 113q0 70 -31.5 109.5t-86.5 39.5q-56 0 -87.5 -39.5
t-31.5 -109.5q0 -71 32 -111.5t87 -40.5zM1149 268h-372v49h372v-49z" />
    <glyph glyph-name="uni2117" unicode="&#x2117;" horiz-adv-x="908" 
d="M454 -16q-171 0 -280.5 112.5t-109.5 287.5q0 176 110.5 289t283.5 113q169 0 277.5 -113t108.5 -289q0 -175 -109.5 -287.5t-280.5 -112.5zM458 737q-155 0 -247 -95.5t-92 -257.5q0 -156 93 -253.5t242 -97.5q152 0 243.5 96t91.5 255q0 161 -90 257t-241 96zM324 165
v448h165q74 0 116.5 -35.5t42.5 -97.5q0 -65 -43.5 -101t-120.5 -36h-94v-178h-66zM581 478q0 38 -25.5 58.5t-73.5 20.5h-92v-160h93q49 0 73.5 20.5t24.5 60.5z" />
    <glyph glyph-name="uni2120" unicode="&#x2120;" horiz-adv-x="849" 
d="M208 597q83 -14 109 -38.5t26 -70.5q0 -56 -40.5 -90t-108.5 -34q-67 0 -112 30.5t-60 86.5l56 17q11 -39 42 -61t75 -22q41 0 64.5 17.5t23.5 48.5q0 29 -18.5 43t-95.5 26q-67 10 -96.5 36t-29.5 74q0 53 40 87t103 34q60 0 99.5 -29t52.5 -84l-57 -14q-9 38 -33 57.5
t-62 19.5t-61 -18.5t-23 -49.5q0 -20 9 -32t29 -19q8 -3 19.5 -6t48.5 -9zM397 371v403h83l121 -332l118 332h80v-403h-60v325l-111 -325h-57l-116 327v-327h-58z" />
    <glyph glyph-name="trademark" unicode="&#x2122;" horiz-adv-x="847" 
d="M151 721h-132v53h331v-53h-132v-350h-67v350zM395 371v403h83l121 -332l118 332h80v-403h-60v325l-111 -325h-57l-116 327v-327h-58z" />
    <glyph glyph-name="estimated" unicode="&#x212e;" horiz-adv-x="857" 
d="M740 236l45 -15q-44 -116 -130 -175t-212 -59q-171 0 -270 96.5t-99 264.5q0 78 27.5 146.5t79.5 120.5t121 80.5t144 28.5q157 0 252 -96t95 -269h-622v-196q39 -66 108.5 -100t164.5 -34q115 0 187 51t109 156zM444 682q-87 0 -159 -40.5t-114 -112.5v-128h525v162
q-36 59 -100.5 89t-151.5 30z" />
    <glyph glyph-name="uni2150" unicode="&#x2150;" horiz-adv-x="702" 
d="M6 0zM570 774h70l-562 -774h-72zM14 392zM14 684v41h59q23 0 30 5.5t9 26.5l1 17h45v-382h-57v292h-87zM578 31v-31h-60v31q0 102 31 178t92 124h-218v49h273v-37q-62 -41 -90 -114t-28 -200z" />
    <glyph glyph-name="uni2153" unicode="&#x2153;" horiz-adv-x="719" 
d="M6 0zM570 774h70l-562 -774h-72zM14 392zM14 684v41h59q23 0 30 5.5t9 26.5l1 17h45v-382h-57v292h-87zM630 283q0 29 -17 43.5t-50 14.5q-37 0 -57.5 -19t-25.5 -56l-51 12q10 52 46 81t91 29q56 0 88.5 -26t32.5 -70q0 -32 -19.5 -55t-53.5 -33v-2q44 -8 67 -31.5
t23 -61.5q0 -52 -38 -83.5t-100 -31.5q-65 0 -104.5 31.5t-46.5 88.5l54 14q3 -43 28 -65t69 -22q39 0 60 19t21 54q0 33 -22 48.5t-71 15.5h-48v44h46q38 0 58 15.5t20 45.5z" />
    <glyph glyph-name="uni2154" unicode="&#x2154;" horiz-adv-x="839" 
d="M34 0zM690 774h70l-562 -774h-72zM34 392zM249 659q0 35 -19 54.5t-53 19.5q-43 0 -65 -28.5t-20 -81.5l-55 11q0 69 37.5 107.5t103.5 38.5q59 0 93.5 -31.5t34.5 -85.5q0 -44 -24.5 -81.5t-79.5 -78.5l-85 -64h200v-47h-283v42l124 93q47 36 69 67.5t22 64.5zM750 283
q0 29 -17 43.5t-50 14.5q-37 0 -57.5 -19t-25.5 -56l-51 12q10 52 46 81t91 29q56 0 88.5 -26t32.5 -70q0 -32 -19.5 -55t-53.5 -33v-2q44 -8 67 -31.5t23 -61.5q0 -52 -38 -83.5t-100 -31.5q-65 0 -104.5 31.5t-46.5 88.5l54 14q3 -43 28 -65t69 -22q39 0 60 19t21 54
q0 33 -22 48.5t-71 15.5h-48v44h46q38 0 58 15.5t20 45.5z" />
    <glyph glyph-name="uni2155" unicode="&#x2155;" horiz-adv-x="729" 
d="M6 0zM570 774h70l-562 -774h-72zM14 392zM14 684v41h59q23 0 30 5.5t9 26.5l1 17h45v-382h-57v292h-87zM586 262q55 0 88 -35t33 -93q0 -64 -39 -102t-105 -38q-60 0 -99 30t-51 86l54 15q9 -42 33 -63t64 -21t63 24.5t23 68.5t-22 69t-61 25q-27 0 -49.5 -13t-36.5 -36
l-50 5l31 198h220v-47h-176l-19 -114h2q18 20 42.5 30.5t54.5 10.5z" />
    <glyph glyph-name="uni2156" unicode="&#x2156;" horiz-adv-x="849" 
d="M34 0zM690 774h70l-562 -774h-72zM34 392zM249 659q0 35 -19 54.5t-53 19.5q-43 0 -65 -28.5t-20 -81.5l-55 11q0 69 37.5 107.5t103.5 38.5q59 0 93.5 -31.5t34.5 -85.5q0 -44 -24.5 -81.5t-79.5 -78.5l-85 -64h200v-47h-283v42l124 93q47 36 69 67.5t22 64.5zM706 262
q55 0 88 -35t33 -93q0 -64 -39 -102t-105 -38q-60 0 -99 30t-51 86l54 15q9 -42 33 -63t64 -21t63 24.5t23 68.5t-22 69t-61 25q-27 0 -49.5 -13t-36.5 -36l-50 5l31 198h220v-47h-176l-19 -114h2q18 20 42.5 30.5t54.5 10.5z" />
    <glyph glyph-name="uni2157" unicode="&#x2157;" horiz-adv-x="829" 
d="M21 0zM670 774h70l-562 -774h-72zM21 386zM236 675q0 29 -17 43.5t-50 14.5q-37 0 -57.5 -19t-25.5 -56l-51 12q10 52 46 81t91 29q56 0 88.5 -26t32.5 -70q0 -32 -19.5 -55t-53.5 -33v-2q44 -8 67 -31.5t23 -61.5q0 -52 -38 -83.5t-100 -31.5q-65 0 -104.5 31.5
t-46.5 88.5l54 14q3 -43 28 -65t69 -22q39 0 60 19t21 54q0 33 -22 48.5t-71 15.5h-48v44h46q38 0 58 15.5t20 45.5zM686 262q55 0 88 -35t33 -93q0 -64 -39 -102t-105 -38q-60 0 -99 30t-51 86l54 15q9 -42 33 -63t64 -21t63 24.5t23 68.5t-22 69t-61 25q-27 0 -49.5 -13
t-36.5 -36l-50 5l31 198h220v-47h-176l-19 -114h2q18 20 42.5 30.5t54.5 10.5z" />
    <glyph glyph-name="uni2158" unicode="&#x2158;" horiz-adv-x="833" 
d="M16 0zM674 774h70l-562 -774h-72zM16 392zM324 525v-46h-67v-87h-56v87h-185v51l183 244h58v-249h67zM203 713l-138 -188h138v188zM690 262q55 0 88 -35t33 -93q0 -64 -39 -102t-105 -38q-60 0 -99 30t-51 86l54 15q9 -42 33 -63t64 -21t63 24.5t23 68.5t-22 69t-61 25
q-27 0 -49.5 -13t-36.5 -36l-50 5l31 198h220v-47h-176l-19 -114h2q18 20 42.5 30.5t54.5 10.5z" />
    <glyph glyph-name="uni2159" unicode="&#x2159;" horiz-adv-x="729" 
d="M6 0zM570 774h70l-562 -774h-72zM14 392zM14 684v41h59q23 0 30 5.5t9 26.5l1 17h45v-382h-57v292h-87zM569 -6q-76 0 -118 50t-42 139q0 93 47.5 149t126.5 56q40 0 72 -17t55 -51l-49 -31q-15 27 -35 39.5t-49 12.5q-52 0 -81.5 -43t-29.5 -120v-2h2q15 35 46 54.5
t72 19.5q55 0 89 -33.5t34 -87.5q0 -61 -39 -98t-101 -37zM569 211q-40 0 -65.5 -24t-25.5 -62q0 -36 25.5 -60t64.5 -24q38 0 61 23.5t23 63.5q0 39 -22 61t-61 22z" />
    <glyph glyph-name="uni215A" unicode="&#x215a;" horiz-adv-x="831" 
d="M21 0zM672 774h70l-562 -774h-72zM21 386zM194 654q55 0 88 -35t33 -93q0 -64 -39 -102t-105 -38q-60 0 -99 30t-51 86l54 15q9 -42 33 -63t64 -21t63 24.5t23 68.5t-22 69t-61 25q-27 0 -49.5 -13t-36.5 -36l-50 5l31 198h220v-47h-176l-19 -114h2q18 20 42.5 30.5
t54.5 10.5zM671 -6q-76 0 -118 50t-42 139q0 93 47.5 149t126.5 56q40 0 72 -17t55 -51l-49 -31q-15 27 -35 39.5t-49 12.5q-52 0 -81.5 -43t-29.5 -120v-2h2q15 35 46 54.5t72 19.5q55 0 89 -33.5t34 -87.5q0 -61 -39 -98t-101 -37zM671 211q-40 0 -65.5 -24t-25.5 -62
q0 -36 25.5 -60t64.5 -24q38 0 61 23.5t23 63.5q0 39 -22 61t-61 22z" />
    <glyph glyph-name="uni215B" unicode="&#x215b;" horiz-adv-x="735" 
d="M6 0zM570 774h70l-562 -774h-72zM14 392zM14 684v41h59q23 0 30 5.5t9 26.5l1 17h45v-382h-57v292h-87zM712 107q0 -51 -42 -82t-109 -31q-71 0 -112 29.5t-41 80.5q0 37 22.5 62t65.5 36v1q-32 12 -49.5 33.5t-17.5 50.5q0 46 36.5 73t94.5 27q59 0 95 -26.5t36 -71.5
q0 -29 -17.5 -51t-49.5 -34v-2q43 -10 65.5 -34.5t22.5 -60.5zM637 280q0 29 -21 45t-56 16q-36 0 -56.5 -16t-20.5 -46q0 -29 21 -45.5t57 -16.5q35 0 55.5 16.5t20.5 46.5zM465 111q0 -33 26 -51.5t72 -18.5q43 0 67.5 19.5t24.5 53.5q0 32 -25.5 51t-68.5 19
q-44 0 -70 -19.5t-26 -53.5z" />
    <glyph glyph-name="uni215C" unicode="&#x215c;" horiz-adv-x="835" 
d="M21 0zM670 774h70l-562 -774h-72zM21 386zM236 675q0 29 -17 43.5t-50 14.5q-37 0 -57.5 -19t-25.5 -56l-51 12q10 52 46 81t91 29q56 0 88.5 -26t32.5 -70q0 -32 -19.5 -55t-53.5 -33v-2q44 -8 67 -31.5t23 -61.5q0 -52 -38 -83.5t-100 -31.5q-65 0 -104.5 31.5
t-46.5 88.5l54 14q3 -43 28 -65t69 -22q39 0 60 19t21 54q0 33 -22 48.5t-71 15.5h-48v44h46q38 0 58 15.5t20 45.5zM812 107q0 -51 -42 -82t-109 -31q-71 0 -112 29.5t-41 80.5q0 37 22.5 62t65.5 36v1q-32 12 -49.5 33.5t-17.5 50.5q0 46 36.5 73t94.5 27q59 0 95 -26.5
t36 -71.5q0 -29 -17.5 -51t-49.5 -34v-2q43 -10 65.5 -34.5t22.5 -60.5zM737 280q0 29 -21 45t-56 16q-36 0 -56.5 -16t-20.5 -46q0 -29 21 -45.5t57 -16.5q35 0 55.5 16.5t20.5 46.5zM565 111q0 -33 26 -51.5t72 -18.5q43 0 67.5 19.5t24.5 53.5q0 32 -25.5 51t-68.5 19
q-44 0 -70 -19.5t-26 -53.5z" />
    <glyph glyph-name="uni215D" unicode="&#x215d;" horiz-adv-x="837" 
d="M21 0zM672 774h70l-562 -774h-72zM21 386zM194 654q55 0 88 -35t33 -93q0 -64 -39 -102t-105 -38q-60 0 -99 30t-51 86l54 15q9 -42 33 -63t64 -21t63 24.5t23 68.5t-22 69t-61 25q-27 0 -49.5 -13t-36.5 -36l-50 5l31 198h220v-47h-176l-19 -114h2q18 20 42.5 30.5
t54.5 10.5zM814 107q0 -51 -42 -82t-109 -31q-71 0 -112 29.5t-41 80.5q0 37 22.5 62t65.5 36v1q-32 12 -49.5 33.5t-17.5 50.5q0 46 36.5 73t94.5 27q59 0 95 -26.5t36 -71.5q0 -29 -17.5 -51t-49.5 -34v-2q43 -10 65.5 -34.5t22.5 -60.5zM739 280q0 29 -21 45t-56 16
q-36 0 -56.5 -16t-20.5 -46q0 -29 21 -45.5t57 -16.5q35 0 55.5 16.5t20.5 46.5zM567 111q0 -33 26 -51.5t72 -18.5q43 0 67.5 19.5t24.5 53.5q0 32 -25.5 51t-68.5 19q-44 0 -70 -19.5t-26 -53.5z" />
    <glyph glyph-name="uni215E" unicode="&#x215e;" horiz-adv-x="790" 
d="M14 0zM625 774h70l-562 -774h-72zM14 392zM169 423v-31h-60v31q0 102 31 178t92 124h-218v49h273v-37q-62 -41 -90 -114t-28 -200zM767 107q0 -51 -42 -82t-109 -31q-71 0 -112 29.5t-41 80.5q0 37 22.5 62t65.5 36v1q-32 12 -49.5 33.5t-17.5 50.5q0 46 36.5 73t94.5 27
q59 0 95 -26.5t36 -71.5q0 -29 -17.5 -51t-49.5 -34v-2q43 -10 65.5 -34.5t22.5 -60.5zM692 280q0 29 -21 45t-56 16q-36 0 -56.5 -16t-20.5 -46q0 -29 21 -45.5t57 -16.5q35 0 55.5 16.5t20.5 46.5zM520 111q0 -33 26 -51.5t72 -18.5q43 0 67.5 19.5t24.5 53.5
q0 32 -25.5 51t-68.5 19q-44 0 -70 -19.5t-26 -53.5z" />
    <glyph glyph-name="uni215F" unicode="&#x215f;" horiz-adv-x="640" 
d="M6 0zM570 774h70l-562 -774h-72zM14 392zM14 684v41h59q23 0 30 5.5t9 26.5l1 17h45v-382h-57v292h-87z" />
    <glyph glyph-name="uni2190" unicode="&#x2190;" horiz-adv-x="742" 
d="M224 185l-223 197l223 197l39 -39l-151 -130h610v-56h-610l151 -130z" />
    <glyph glyph-name="arrowup" unicode="&#x2191;" horiz-adv-x="434" 
d="M20 539l197 223l197 -223l-39 -39l-130 151v-610h-56v610l-130 -151z" />
    <glyph glyph-name="uni2192" unicode="&#x2192;" horiz-adv-x="742" 
d="M518 579l223 -197l-223 -197l-39 39l151 130h-610v56h610l-151 130z" />
    <glyph glyph-name="arrowdown" unicode="&#x2193;" horiz-adv-x="434" 
d="M414 245l-197 -223l-197 223l39 39l130 -151v610h56v-610l130 151z" />
    <glyph glyph-name="uni2194" unicode="&#x2194;" horiz-adv-x="762" 
d="M224 185l-223 197l223 197l39 -39l-151 -130h538l-151 130l39 39l223 -197l-223 -197l-39 39l151 130h-538l151 -130z" />
    <glyph glyph-name="uni2195" unicode="&#x2195;" horiz-adv-x="434" 
d="M20 559l197 223l197 -223l-39 -39l-130 151v-538l130 151l39 -39l-197 -223l-197 223l39 39l130 -151v538l-130 -151z" />
    <glyph glyph-name="uni2196" unicode="&#x2196;" horiz-adv-x="568" 
d="M38 346l-18 297l297 -18v-55l-199 15l431 -432l-39 -39l-431 431l14 -199h-55z" />
    <glyph glyph-name="uni2197" unicode="&#x2197;" horiz-adv-x="568" 
d="M253 626l297 18l-19 -297h-55l15 199l-431 -432l-40 40l432 431l-199 -14v55z" />
    <glyph glyph-name="uni2198" unicode="&#x2198;" horiz-adv-x="569" 
d="M532 417l18 -297l-297 19v55l199 -15l-432 431l40 40l431 -432l-14 199h55z" />
    <glyph glyph-name="uni2199" unicode="&#x2199;" horiz-adv-x="568" 
d="M317 139l-297 -18l18 297h55l-15 -199l432 431l39 -39l-431 -431l199 14v-55z" />
    <glyph glyph-name="uni21A9" unicode="&#x21a9;" horiz-adv-x="696" 
d="M112 330h342q89 0 128 28.5t39 93.5t-36 93.5t-116 28.5h-66v54h73q101 0 152.5 -44.5t51.5 -130.5q0 -87 -55.5 -133t-162.5 -46h-350l151 -130l-39 -39l-223 197l223 197l39 -39z" />
    <glyph glyph-name="uni21AA" unicode="&#x21aa;" horiz-adv-x="696" 
d="M75 452q0 -65 39 -93.5t128 -28.5h342l-151 130l39 39l223 -197l-223 -197l-39 39l151 130h-350q-107 0 -162.5 46t-55.5 133q0 86 51.5 130.5t152.5 44.5h73v-54h-66q-80 0 -116 -28.5t-36 -93.5z" />
    <glyph glyph-name="uni21AF" unicode="&#x21af;" horiz-adv-x="453" 
d="M410 507v-37l-227 -361l191 61l13 -54l-285 -87l-51 294l54 12l31 -194l200 316h-258v37l168 271l48 -29l-142 -229h258z" />
    <glyph glyph-name="uni21B0" unicode="&#x21b0;" horiz-adv-x="662" 
d="M112 605h470v-564h-58v508h-412l151 -130l-39 -39l-223 197l223 197l39 -39z" />
    <glyph glyph-name="uni21B1" unicode="&#x21b1;" horiz-adv-x="662" 
d="M438 380l-39 39l151 130h-412v-508h-58v564h470l-151 130l39 39l223 -197z" />
    <glyph glyph-name="uni21B2" unicode="&#x21b2;" horiz-adv-x="662" 
d="M112 210l151 -130l-39 -39l-223 197l223 197l39 -39l-151 -130h412v508h58v-564h-470z" />
    <glyph glyph-name="uni21B3" unicode="&#x21b3;" horiz-adv-x="662" 
d="M438 435l223 -197l-223 -197l-39 39l151 130h-470v564h58v-508h412l-151 130z" />
    <glyph glyph-name="partialdiff" unicode="&#x2202;" horiz-adv-x="643" 
d="M359 783q106 0 165.5 -87t59.5 -229q0 -224 -81 -350.5t-228 -126.5q-103 0 -167 69t-64 180q0 122 75.5 205t188.5 83q77 0 130.5 -44.5t70.5 -125.5h4q3 31 4.5 53.5t1.5 42.5q0 132 -42.5 201t-122.5 69q-54 0 -102.5 -29t-81.5 -80l-51 41q49 65 108.5 96.5
t131.5 31.5zM314 475q-88 0 -145 -64.5t-57 -161.5q0 -93 45.5 -146t127.5 -53q87 0 143 67t56 164q0 91 -45 142.5t-125 51.5z" />
    <glyph glyph-name="uni2206" unicode="&#x2206;" horiz-adv-x="724" 
d="M707 0h-690v30l307 744h59l324 -744v-30zM352 697l-254 -637h526z" />
    <glyph glyph-name="product" unicode="&#x220f;" horiz-adv-x="831" 
d="M114 -185v959h603v-959h-68v899h-467v-899h-68z" />
    <glyph glyph-name="summation" unicode="&#x2211;" horiz-adv-x="619" 
d="M49 717v57h549v-60h-468l344 -409v-15l-348 -415h472v-60h-559v46l367 436z" />
    <glyph glyph-name="minus" unicode="&#x2212;" horiz-adv-x="596" 
d="M503 361h-410v55h410v-55z" />
    <glyph glyph-name="radical" unicode="&#x221a;" horiz-adv-x="669" 
d="M606 774h70l-293 -774h-59l-179 376h-146v55h189l162 -352z" />
    <glyph glyph-name="infinity" unicode="&#x221e;" horiz-adv-x="878" 
d="M432 326q-56 -66 -108.5 -96t-106.5 -30q-79 0 -129 45.5t-50 118.5q0 81 48.5 129.5t128.5 48.5q56 0 108 -29t110 -97q56 66 108.5 96t106.5 30q79 0 129 -45.5t50 -118.5q0 -81 -48.5 -129.5t-128.5 -48.5q-56 0 -108 29t-110 97zM216 482q-50 0 -80 -30t-30 -83
q0 -52 30 -80.5t85 -28.5q43 0 86.5 25.5t91.5 80.5q-62 69 -101.5 92.5t-81.5 23.5zM649 260q50 0 80 30t30 83q0 52 -30 80.5t-85 28.5q-43 0 -86.5 -25.5t-91.5 -80.5q62 -69 101.5 -92.5t81.5 -23.5z" />
    <glyph glyph-name="integral" unicode="&#x222b;" horiz-adv-x="292" 
d="M270 728q-47 0 -69 -27t-22 -86v-640q0 -89 -37 -130.5t-116 -41.5q-16 0 -37.5 2.5t-36.5 6.5l10 58q14 -4 31.5 -6t32.5 -2q46 0 66.5 26t20.5 83v647q0 81 40.5 123.5t117.5 42.5q17 0 35.5 -2t31.5 -5l-10 -55q-16 3 -28.5 4.5t-29.5 1.5z" />
    <glyph glyph-name="approxequal" unicode="&#x2248;" horiz-adv-x="596" 
d="M389 400q-21 0 -43 5.5t-62 22.5q-34 15 -52 19.5t-34 4.5q-27 0 -52 -12.5t-53 -38.5v66q30 22 57.5 32t57.5 10q19 0 40.5 -5.5t62.5 -22.5q36 -15 53.5 -19.5t31.5 -4.5q26 0 52 12.5t55 39.5v-65q-25 -23 -52.5 -33.5t-61.5 -10.5zM389 200q-21 0 -43 5.5t-62 22.5
q-34 15 -52 19.5t-34 4.5q-27 0 -52 -12.5t-53 -38.5v66q30 22 57.5 32t57.5 10q19 0 40.5 -5.5t62.5 -22.5q36 -15 53.5 -19.5t31.5 -4.5q26 0 52 12.5t55 39.5v-65q-25 -23 -52.5 -33.5t-61.5 -10.5z" />
    <glyph glyph-name="notequal" unicode="&#x2260;" horiz-adv-x="596" 
d="M211 234h-118v55h151l56 123h-207v55h235l81 173h56l-81 -173h119v-55h-149l-56 -123h205v-55h-236l-80 -173h-56z" />
    <glyph glyph-name="equivalence" unicode="&#x2261;" horiz-adv-x="468" 
d="M406 433h-344v60h344v-60zM406 273h-344v60h344v-60zM406 113h-344v60h344v-60z" />
    <glyph glyph-name="lessequal" unicode="&#x2264;" horiz-adv-x="596" 
d="M513 100l-430 236v36l430 235v-65l-347 -187l347 -188v-67zM513 0h-430v55h430v-55z" />
    <glyph glyph-name="greaterequal" unicode="&#x2265;" horiz-adv-x="596" 
d="M83 607l430 -236v-36l-430 -235v65l347 187l-347 188v67zM513 55v-55h-430v55h430z" />
    <glyph glyph-name="house" unicode="&#x2302;" horiz-adv-x="904" 
d="M789 427v-427h-674v427l337 323z" />
    <glyph glyph-name="uni25A0" unicode="&#x25a0;" horiz-adv-x="956" 
d="M841 0h-726v730h726v-730z" />
    <glyph glyph-name="uni25A1" unicode="&#x25a1;" horiz-adv-x="956" 
d="M841 0h-726v730h726v-730zM792 684h-628v-638h628v638z" />
    <glyph glyph-name="uni25AA" unicode="&#x25aa;" horiz-adv-x="730" 
d="M615 0h-500v500h500v-500z" />
    <glyph glyph-name="uni25AB" unicode="&#x25ab;" horiz-adv-x="730" 
d="M615 0h-500v500h500v-500zM565 453h-400v-406h400v406z" />
    <glyph glyph-name="triagup" unicode="&#x25b2;" horiz-adv-x="927" 
d="M464 742l428 -742h-857z" />
    <glyph glyph-name="triagrt" unicode="&#x25ba;" horiz-adv-x="927" 
d="M857 372l-742 -429v857z" />
    <glyph glyph-name="triagdn" unicode="&#x25bc;" horiz-adv-x="927" 
d="M464 -12l-429 742h857z" />
    <glyph glyph-name="triaglf" unicode="&#x25c4;" horiz-adv-x="927" 
d="M70 372l742 428v-857z" />
    <glyph glyph-name="lozenge" unicode="&#x25ca;" horiz-adv-x="680" 
d="M366 774l234 -376v-14l-234 -384h-60l-226 384v14l226 376h60zM336 724l-193 -331l195 -339l202 337z" />
    <glyph glyph-name="uni25CB" unicode="&#x25cb;" horiz-adv-x="827" 
d="M769 350q0 -151 -103.5 -255.5t-251.5 -104.5q-149 0 -252.5 104.5t-103.5 255.5q0 150 103.5 254.5t252.5 104.5q148 0 251.5 -104.5t103.5 -254.5zM95 350q0 -137 92.5 -232t226.5 -95q133 0 225.5 95t92.5 232t-92.5 231.5t-225.5 94.5q-134 0 -226.5 -95t-92.5 -231z
" />
    <glyph glyph-name="uni25CE" unicode="&#x25ce;" horiz-adv-x="957" 
d="M854 365q0 -155 -110 -265t-265 -110t-265 110t-110 265t110 265t265 110t265 -110t110 -265zM148 365q0 -141 95.5 -238t235.5 -97t235.5 97t95.5 238t-95.5 238t-235.5 97t-235.5 -97t-95.5 -238zM693 364q0 -90 -62 -152t-152 -62q-89 0 -151 62t-62 152t62 152
t151 62q90 0 152 -62t62 -152zM309 364q0 -73 49.5 -123.5t120.5 -50.5t121.5 50.5t50.5 123.5t-50.5 123.5t-121.5 50.5t-120.5 -50.5t-49.5 -123.5zM479 312q-22 0 -37.5 15.5t-15.5 37.5q0 23 15.5 38.5t37.5 15.5q23 0 38.5 -15.5t15.5 -38.5q0 -22 -15.5 -37.5
t-38.5 -15.5z" />
    <glyph glyph-name="uni25CF" unicode="&#x25cf;" horiz-adv-x="827" 
d="M769 350q0 -151 -103.5 -255.5t-251.5 -104.5q-149 0 -252.5 104.5t-103.5 255.5q0 150 103.5 254.5t252.5 104.5q148 0 251.5 -104.5t103.5 -254.5z" />
    <glyph glyph-name="uni25E2" unicode="&#x25e2;" horiz-adv-x="927" 
d="M60 755l828 -222l-606 -606z" />
    <glyph glyph-name="uni25E3" unicode="&#x25e3;" horiz-adv-x="927" 
d="M869 755l-222 -828l-606 606z" />
    <glyph glyph-name="uni25E4" unicode="&#x25e4;" horiz-adv-x="927" 
d="M650 774l222 -828l-828 222z" />
    <glyph glyph-name="uni25E5" unicode="&#x25e5;" horiz-adv-x="927" 
d="M282 770l605 -607l-828 -221z" />
    <glyph glyph-name="uni2605" unicode="&#x2605;" horiz-adv-x="930" 
d="M534 438l230 -1l-187 -134l72 -218l-187 136l-186 -136l72 219l-186 135l229 -1l72 218z" />
    <glyph glyph-name="uni2608" unicode="&#x2608;" horiz-adv-x="662" 
d="M107 724l102 -157l-110 -235v-404h-58v415l108 224l-108 160v47h519v-47l-190 -256l208 -335l30 199l53 -13l-48 -293l-286 83l13 54l188 -58l-224 362l191 254h-388z" />
    <glyph glyph-name="uni263C" unicode="&#x263c;" horiz-adv-x="958" 
d="M486 577h-20l-17 142h54zM378 554l-15 -10l-87 115l47 28zM589 544l-15 10l55 133l47 -28zM298 479l-10 -15l-133 55l28 47zM664 464l-10 16l113 86l30 -46zM476 191q-71 0 -122.5 51.5t-51.5 122.5t51.5 122.5t122.5 51.5t122.5 -51.5t51.5 -122.5t-51.5 -122.5
t-122.5 -51.5zM265 376v-20l-142 -17v54zM687 356v20l142 17v-54zM288 268l10 -16l-113 -86l-30 46zM654 253l10 15l133 -55l-28 -47zM363 188l15 -10l-55 -133l-47 28zM574 178l15 10l87 -115l-47 -28zM466 155h20l17 -142h-54z" />
    <glyph glyph-name="uni263E" unicode="&#x263e;" horiz-adv-x="817" 
d="M620 604q-27 7 -42.5 9.5t-28.5 2.5q-99 0 -169 -73.5t-70 -177.5t70 -177.5t169 -73.5q16 0 33.5 3t37.5 9q-39 -28 -85 -42.5t-93 -14.5q-122 0 -209 87t-87 209t87 209t209 87q47 0 93 -14.5t85 -42.5z" />
    <glyph glyph-name="spade" unicode="&#x2660;" horiz-adv-x="950" 
d="M541 140q7 -20 16 -39.5t54 -96.5l-2 -4h-259l-2 4q37 67 48 90t19 46q14 38 21 75.5t8 74.5q-26 -66 -69.5 -101t-100.5 -35q-72 0 -121.5 45t-49.5 113q0 78 46 143t189 180l140 112h1l140 -112q136 -109 182 -175.5t46 -147.5q0 -68 -45 -112.5t-112 -44.5
q-63 0 -109.5 34.5t-71.5 99.5q1 -37 9 -74.5t23 -74.5z" />
    <glyph glyph-name="club" unicode="&#x2663;" horiz-adv-x="950" 
d="M569 81q9 -20 24 -46.5t17 -30.5l-2 -4h-255l-2 4q50 94 68 145.5t23 98.5q-21 -54 -66 -86t-101 -32q-73 0 -125 52t-52 125q0 74 52 125.5t125 51.5q10 0 20 -1.5t22 -5.5q-9 23 -14 45t-5 42q0 73 51 124.5t124 51.5t124.5 -51.5t51.5 -124.5q0 -23 -5 -45.5
t-14 -42.5q11 4 22.5 6t23.5 2q73 0 124.5 -51.5t51.5 -125.5q0 -73 -51.5 -125t-125.5 -52q-54 0 -97.5 31t-64.5 85q3 -20 8 -41.5t13 -43.5q7 -19 15.5 -39t19.5 -41z" />
    <glyph glyph-name="heart" unicode="&#x2665;" horiz-adv-x="950" 
d="M104 550q0 85 51 137.5t132 52.5q76 0 126.5 -43.5t58.5 -116.5q8 73 58.5 116.5t126.5 43.5q82 0 135.5 -53t53.5 -137q0 -85 -52 -177t-180 -233l-142 -157l-141 157q-125 139 -176 231.5t-51 178.5z" />
    <glyph glyph-name="diamond" unicode="&#x2666;" horiz-adv-x="950" 
d="M475 -10l-327 400l327 401l327 -401z" />
    <glyph glyph-name="uni267B" unicode="&#x267b;" horiz-adv-x="884" 
d="M379 728v1h182q35 0 53.5 -9.5t32.5 -34.5l26 -46l41 23l-58 -157l-162 30l38 22l-67 118q-14 26 -34.5 38.5t-51.5 14.5zM437 666l-109 -189l-141 81l63 112q11 21 34 32t53 11q33 0 59.5 -12.5t40.5 -34.5zM717 232l-109 189l140 81l66 -110q5 -9 7.5 -19t2.5 -21
q0 -44 -30 -77t-77 -43zM158 172q0 -12 3.5 -24.5t9.5 -25.5h-1l-91 157q-10 17 -14.5 29.5t-4.5 24.5q0 10 3 20t11 23l27 45l-41 24l165 28l55 -155l-38 22l-68 -117q-8 -13 -12 -25.5t-4 -25.5zM799 251l1 -1l-91 -157q-17 -30 -34 -41t-47 -11h-53v-47l-107 129l107 125
v-45h136q30 0 50.5 11.5t37.5 36.5zM195 203h219v-162h-120q-48 0 -78 35t-30 85q0 11 2.5 21.5t6.5 20.5z" />
    <glyph glyph-name="uni267C" unicode="&#x267c;" horiz-adv-x="951" 
d="M742 633q53 -54 81.5 -123t28.5 -144q0 -156 -109.5 -265.5t-265.5 -109.5q-157 0 -267 109.5t-110 265.5q0 75 28.5 144t81.5 123q53 53 122 81.5t145 28.5q75 0 143.5 -28.5t121.5 -81.5zM424 643v-1q23 -2 38 -11.5t27 -29.5l51 -88l-29 -17l122 -22l45 119l-32 -19
l-20 35q-9 19 -23.5 26.5t-41.5 7.5h-137zM279 514l106 -62l84 143q-11 17 -31 26t-45 9q-23 0 -40 -8t-26 -24zM703 471l-106 -61l82 -142q36 8 59 32.5t23 57.5q0 7 -2 14t-6 16zM266 185h1q-5 9 -7 18t-2 19q0 11 3 20.5t9 18.5l51 89l28 -18l-41 117l-124 -21l30 -18
l-20 -33q-6 -12 -8 -19t-2 -14q0 -10 3.5 -19t11.5 -22zM742 281l-1 1q-13 -19 -28.5 -27.5t-37.5 -8.5h-103v33l-80 -94l80 -96v34h41q22 0 34.5 8.5t25.5 31.5zM450 123v123h-164q-4 -8 -6 -16t-2 -17q0 -37 23 -63.5t59 -26.5h90z" />
    <glyph glyph-name="uni267D" unicode="&#x267d;" horiz-adv-x="952" 
d="M742 633q53 -54 81.5 -123t28.5 -144q0 -156 -109.5 -265.5t-265.5 -109.5q-157 0 -267 109.5t-110 265.5q0 75 28.5 144t81.5 123q53 53 122 81.5t145 28.5q75 0 143.5 -28.5t121.5 -81.5zM477 27q141 0 240 99t99 240t-99.5 241t-239.5 100q-141 0 -241 -100t-100 -241
t99.5 -240t241.5 -99zM424 642v1h137q27 0 41.5 -7.5t23.5 -26.5l20 -35l32 19l-45 -119l-122 22l29 17l-51 88q-12 20 -27 29.5t-38 11.5zM469 595l-84 -143l-106 62l48 84q9 16 26 24t40 8q25 0 45 -9t31 -26zM679 268l-82 142l106 61l50 -83q4 -9 6 -16t2 -14
q0 -33 -23 -57.5t-59 -32.5zM258 222q0 -10 2 -19t7 -18h-1l-67 118q-8 13 -11.5 22t-3.5 19q0 7 2 14t8 19l20 33l-30 18l124 21l41 -117l-28 18l-51 -89q-6 -9 -9 -18.5t-3 -20.5zM741 282l1 -1l-69 -118q-13 -23 -25.5 -31.5t-34.5 -8.5h-41v-34l-80 96l80 94v-33h103
q22 0 37.5 8.5t28.5 27.5zM286 246h164v-123h-90q-36 0 -59 26.5t-23 63.5q0 9 2 17t6 16z" />
    <glyph glyph-name="uni3008" unicode="&#x3008;" horiz-adv-x="395" 
d="M94 304l223 511h75l-228 -506l228 -540h-75z" />
    <glyph glyph-name="uni3009" unicode="&#x3009;" horiz-adv-x="395" 
d="M301 280l-223 -511h-75l228 506l-228 540h75z" />
    <glyph glyph-name="uniFB00" unicode="&#xfb00;" horiz-adv-x="679" 
d="M194 0h-66v510h-117v55h117v78q0 89 38 134t113 45q22 0 43.5 -3.5t38.5 -10.5l-16 -54q-14 6 -31 9t-33 3q-46 0 -66.5 -29t-20.5 -93v-79h261v78q0 89 38 134t113 45q22 0 43.5 -3.5t38.5 -10.5l-16 -54q-14 6 -31 9t-33 3q-46 0 -66.5 -29t-20.5 -93v-79h156v-55h-156
v-510h-66v510h-261v-510z" />
    <glyph glyph-name="uniFB01" unicode="&#xfb01;" horiz-adv-x="588" 
d="M11 0zM128 510h-117v55h117v100q0 79 37 117t113 38q14 0 25.5 -1t22.5 -3v-52q-10 1 -19 1.5t-26 0.5q-50 0 -68.5 -23.5t-18.5 -84.5v-93h132v-55h-132v-510h-66v510zM507 726h-77v89h77v-89zM435 0v565h66v-565h-66z" />
    <glyph glyph-name="uniFB02" unicode="&#xfb02;" horiz-adv-x="584" 
d="M11 0zM128 510h-117v55h117v100q0 79 37 117t113 38q14 0 25.5 -1t22.5 -3v-52q-10 1 -19 1.5t-26 0.5q-50 0 -68.5 -23.5t-18.5 -84.5v-93h132v-55h-132v-510h-66v510zM433 0v815h66v-815h-66z" />
    <glyph glyph-name="uniFF3F" unicode="&#xff3f;" 
d="M620 -130h-620v50h620v-50z" />
    <glyph glyph-name="Q.alt" horiz-adv-x="820" 
d="M718 43q38 0 57.5 20.5t29.5 70.5l50 -18q-11 -63 -45.5 -95t-91.5 -32q-42 0 -74.5 12t-57.5 37q-39 -25 -85.5 -37.5t-99.5 -12.5q-165 0 -257.5 105t-92.5 291q0 182 97 292t258 110q158 0 251 -109t93 -293q0 -97 -30 -176.5t-87 -132.5q17 -16 38 -24t47 -8z
M680 384q0 156 -74 247.5t-200 91.5q-73 0 -129 -26.5t-92 -77.5q-32 -43 -48 -102.5t-16 -132.5q0 -116 38 -193.5t113 -114.5l2 3q-14 15 -21 35.5t-7 44.5q0 48 35.5 78.5t91.5 30.5q57 0 101 -30t116 -118q44 43 67 110.5t23 153.5zM366 210q-35 0 -53.5 -18t-18.5 -51
q0 -43 30.5 -66.5t85.5 -23.5q37 0 70.5 8t61.5 24q-61 76 -96.5 101.5t-79.5 25.5z" />
    <glyph glyph-name="R.alt" horiz-adv-x="674" 
d="M91 774h322q112 0 175 -52t63 -144q0 -94 -59.5 -146t-173.5 -58l172 -374h-75l-164 372h-192v-372h-68v774zM584 577q0 68 -47 103t-137 35h-241v-289h229q100 0 148 37t48 114z" />
    <glyph glyph-name="A.nocross" horiz-adv-x="710" 
d="M100 0h-70l277 774h79l294 -774h-71l-262 710z" />
    <glyph glyph-name="Ccedilla.alt" horiz-adv-x="770" 
d="M51 0zM407 -12q-165 0 -260.5 105t-95.5 286q0 183 99 295t260 112q127 0 211 -71.5t112 -203.5l-66 -15q-22 110 -88 168.5t-169 58.5q-137 0 -213 -90.5t-76 -253.5q0 -152 77 -240t210 -88q104 0 168.5 52t98.5 163l63 -21q-35 -125 -120.5 -191t-210.5 -66zM495 -116
l-255 -42l-7 50l255 42z" />
    <glyph glyph-name="Racute.alt" horiz-adv-x="674" 
d="M91 0zM91 774h322q112 0 175 -52t63 -144q0 -94 -59.5 -146t-173.5 -58l172 -374h-75l-164 372h-192v-372h-68v774zM584 577q0 68 -47 103t-137 35h-241v-289h229q100 0 148 37t48 114zM384 832h-54l51 138h70z" />
    <glyph glyph-name="Rcaron.alt" horiz-adv-x="674" 
d="M91 0zM91 774h322q112 0 175 -52t63 -144q0 -94 -59.5 -146t-173.5 -58l172 -374h-75l-164 372h-192v-372h-68v774zM584 577q0 68 -47 103t-137 35h-241v-289h229q100 0 148 37t48 114zM429 966h61l-111 -138h-45l-120 138h64l78 -81z" />
    <glyph glyph-name="uni0156.alt" horiz-adv-x="674" 
d="M91 0zM91 774h322q112 0 175 -52t63 -144q0 -94 -59.5 -146t-173.5 -58l172 -374h-75l-164 372h-192v-372h-68v774zM584 577q0 68 -47 103t-137 35h-241v-289h229q100 0 148 37t48 114zM335 -152h-38v96h81v-106q0 -53 -23 -75t-76 -24l-6 41q40 2 51 13t11 47v8z" />
    <glyph glyph-name="uni015E.alt" horiz-adv-x="636" 
d="M18 0zM546 348q27 -24 39.5 -56t12.5 -77q0 -104 -74 -165.5t-199 -61.5q-132 0 -211 60.5t-96 174.5l64 20q11 -95 74 -145.5t171 -50.5q97 0 151.5 43.5t54.5 121.5q0 52 -28 82t-100 47q-16 4 -84.5 17t-113.5 27q-34 10 -59 24t-42 31q-22 22 -34.5 55.5t-12.5 71.5
q0 100 69 159.5t185 59.5q112 0 181 -54.5t92 -161.5l-63 -16q-17 86 -71 129.5t-142 43.5q-87 0 -136.5 -41t-49.5 -114q0 -52 28.5 -82t97.5 -48q21 -5 88 -18.5t108 -26.5q35 -10 57.5 -21t42.5 -28zM416 -116l-255 -42l-7 50l255 42z" />
    <glyph glyph-name="IJacute" horiz-adv-x="692" 
d="M84 0zM349 -12q-113 0 -179.5 57t-82.5 167l67 28q9 -96 58 -142.5t141 -46.5q91 0 139 55.5t48 159.5v508h68v-505q0 -136 -67 -208.5t-192 -72.5zM152 774v-443h-68v443h68zM145 832h-54l51 138h70zM601 832h-54l51 138h70z" />
    <glyph glyph-name="f.alt" horiz-adv-x="333" 
d="M128 510h-117v55h117v100q0 79 37 117t113 38q14 0 25.5 -1t22.5 -3v-52q-10 1 -19 1.5t-26 0.5q-50 0 -68.5 -23.5t-18.5 -84.5v-93h132v-55h-132v-510h-66v510z" />
    <glyph glyph-name="g.short" horiz-adv-x="584" 
d="M301 -198q-134 0 -206 35.5t-72 101.5q0 41 29.5 68.5t86.5 40.5v2q-38 11 -57 31.5t-19 51.5q0 30 21 56t57 41v2q-34 24 -52 61t-18 83q0 89 61 145t158 56q43 0 81 -12t66 -35l80 110l50 -44l-107 -88q21 -25 32.5 -55.5t11.5 -65.5q0 -91 -57.5 -144t-155.5 -53
q-34 0 -65 6.5t-57 18.5q-22 -9 -34.5 -24.5t-12.5 -34.5q0 -28 21.5 -41t66.5 -13h232q75 0 112 -28.5t37 -85.5q0 -87 -77 -136.5t-213 -49.5zM139 377q0 -62 40 -96.5t111 -34.5t108.5 37t37.5 107q0 61 -39 96t-107 35q-71 0 -111 -38t-40 -106zM526 -25q0 34 -21 48.5
t-71 14.5h-206q-68 0 -101.5 -21t-33.5 -64q0 -46 54 -70t157 -24t162.5 31t59.5 85z" />
    <glyph glyph-name="g_g" horiz-adv-x="1146" 
d="M281 -198q-124 0 -191 35.5t-67 101.5q0 41 29.5 68.5t86.5 40.5v2q-38 11 -57 31.5t-19 51.5q0 30 21 56t57 41v2q-34 24 -52 61t-18 83q0 89 61 145t158 56q43 0 81 -12t66 -35l80 110l50 -44l-107 -88q21 -25 32.5 -55.5t11.5 -65.5q0 -91 -57.5 -144t-155.5 -53
q-34 0 -65 6.5t-57 18.5q-22 -9 -34.5 -24.5t-12.5 -34.5q0 -28 21.5 -41t66.5 -13h212q75 0 112 -28.5t37 -85.5q0 -87 -77 -136.5t-213 -49.5zM863 -198q-124 0 -191 35.5t-67 101.5q0 41 28.5 68.5t84.5 40.5v2q-42 11 -62.5 32t-20.5 55q0 28 19.5 52.5t52.5 37.5v2
q-36 24 -55 62t-19 85q0 89 61 145t158 56q43 0 81 -12t66 -35l80 110l50 -44l-107 -88q21 -25 32.5 -55.5t11.5 -65.5q0 -91 -57.5 -144t-155.5 -53q-33 0 -62.5 6t-53.5 17q-20 -9 -31.5 -24t-11.5 -33q0 -28 21.5 -41t66.5 -13h222q75 0 112 -28.5t37 -85.5
q0 -87 -77 -136.5t-213 -49.5zM139 377q0 -62 40 -96.5t111 -34.5t108.5 37t37.5 107q0 61 -39 96t-107 35q-71 0 -111 -38t-40 -106zM701 377q0 -62 40 -96.5t111 -34.5t108.5 37t37.5 107q0 61 -39 96t-107 35q-71 0 -111 -38t-40 -106zM506 -25q0 34 -21 48.5t-71 14.5
h-186q-68 0 -101.5 -21t-33.5 -64q0 -46 49 -70t142 -24q103 0 162.5 31t59.5 85zM1088 -25q0 34 -21 48.5t-71 14.5h-196q-63 0 -94 -21t-31 -64q0 -46 49 -70t142 -24q103 0 162.5 31t59.5 85z" />
    <glyph glyph-name="g_g.short" horiz-adv-x="1146" 
d="M281 -198q-124 0 -191 35.5t-67 101.5q0 41 29.5 68.5t86.5 40.5v2q-38 11 -57 31.5t-19 51.5q0 30 21 56t57 41v2q-34 24 -52 61t-18 83q0 89 61 145t158 56q43 0 81 -12t66 -35l80 110l50 -44l-107 -88q21 -25 32.5 -55.5t11.5 -65.5q0 -91 -57.5 -144t-155.5 -53
q-34 0 -65 6.5t-57 18.5q-22 -9 -34.5 -24.5t-12.5 -34.5q0 -28 21.5 -41t66.5 -13h212q75 0 112 -28.5t37 -85.5q0 -87 -77 -136.5t-213 -49.5zM863 -198q-124 0 -191 35.5t-67 101.5q0 41 28.5 68.5t84.5 40.5v2q-42 11 -62.5 32t-20.5 55q0 28 19.5 52.5t52.5 37.5v2
q-36 24 -55 62t-19 85q0 89 61 145t158 56q43 0 81 -12t66 -35l80 110l50 -44l-107 -88q21 -25 32.5 -55.5t11.5 -65.5q0 -91 -57.5 -144t-155.5 -53q-33 0 -62.5 6t-53.5 17q-20 -9 -31.5 -24t-11.5 -33q0 -28 21.5 -41t66.5 -13h222q75 0 112 -28.5t37 -85.5
q0 -87 -77 -136.5t-213 -49.5zM139 377q0 -62 40 -96.5t111 -34.5t108.5 37t37.5 107q0 61 -39 96t-107 35q-71 0 -111 -38t-40 -106zM701 377q0 -62 40 -96.5t111 -34.5t108.5 37t37.5 107q0 61 -39 96t-107 35q-71 0 -111 -38t-40 -106zM506 -25q0 34 -21 48.5t-71 14.5
h-186q-68 0 -101.5 -21t-33.5 -64q0 -46 49 -70t142 -24q103 0 162.5 31t59.5 85zM1088 -25q0 34 -21 48.5t-71 14.5h-196q-63 0 -94 -21t-31 -64q0 -46 49 -70t142 -24q103 0 162.5 31t59.5 85z" />
    <glyph glyph-name="g.alt" horiz-adv-x="629" 
d="M305 -138q91 0 135.5 52.5t44.5 161.5v76h-3q-28 -64 -78.5 -99t-116.5 -35q-112 0 -177.5 74t-65.5 201q0 125 69.5 204.5t178.5 79.5q66 0 115.5 -35.5t75.5 -100.5h4v124h64v-492q0 -131 -63 -200t-183 -69q-92 0 -152.5 33t-94.5 101l56 36q31 -60 75.5 -86
t115.5 -26zM305 519q-89 0 -140.5 -61t-51.5 -165q0 -100 49.5 -158.5t134.5 -58.5q89 0 138 58t49 162q0 103 -48.5 163t-130.5 60z" />
    <glyph glyph-name="r.alt" horiz-adv-x="369" 
d="M183 440q-16 -33 -24 -85.5t-8 -131.5v-223h-66v565h64v-133h3q22 75 62.5 110t104.5 35q10 0 19 -0.5t28 -3.5v-59q-20 3 -30.5 3.5t-22.5 0.5q-46 0 -78.5 -19.5t-51.5 -58.5z" />
    <glyph glyph-name="ccedilla.alt" horiz-adv-x="585" 
d="M44 0zM306 519q-90 0 -142 -63t-52 -172q0 -110 52.5 -174t143.5 -64q71 0 115.5 36t69.5 114l57 -22q-25 -88 -89.5 -137t-154.5 -49q-122 0 -192 79t-70 217q0 130 73.5 211.5t190.5 81.5q91 0 152.5 -53t86.5 -153l-64 -18q-17 81 -62.5 123.5t-114.5 42.5zM402 -117
l-255 -42l-7 50l255 42z" />
    <glyph glyph-name="gbreve_g" horiz-adv-x="1146" 
d="M23 0zM281 -198q-124 0 -191 35.5t-67 101.5q0 41 29.5 68.5t86.5 40.5v2q-38 11 -57 31.5t-19 51.5q0 30 21 56t57 41v2q-34 24 -52 61t-18 83q0 89 61 145t158 56q43 0 81 -12t66 -35l80 110l50 -44l-107 -88q21 -25 32.5 -55.5t11.5 -65.5q0 -91 -57.5 -144
t-155.5 -53q-34 0 -65 6.5t-57 18.5q-22 -9 -34.5 -24.5t-12.5 -34.5q0 -28 21.5 -41t66.5 -13h212q75 0 112 -28.5t37 -85.5q0 -87 -77 -136.5t-213 -49.5zM863 -198q-124 0 -191 35.5t-67 101.5q0 41 28.5 68.5t84.5 40.5v2q-42 11 -62.5 32t-20.5 55q0 28 19.5 52.5
t52.5 37.5v2q-36 24 -55 62t-19 85q0 89 61 145t158 56q43 0 81 -12t66 -35l80 110l50 -44l-107 -88q21 -25 32.5 -55.5t11.5 -65.5q0 -91 -57.5 -144t-155.5 -53q-33 0 -62.5 6t-53.5 17q-20 -9 -31.5 -24t-11.5 -33q0 -28 21.5 -41t66.5 -13h222q75 0 112 -28.5t37 -85.5
q0 -87 -77 -136.5t-213 -49.5zM139 377q0 -62 40 -96.5t111 -34.5t108.5 37t37.5 107q0 61 -39 96t-107 35q-71 0 -111 -38t-40 -106zM701 377q0 -62 40 -96.5t111 -34.5t108.5 37t37.5 107q0 61 -39 96t-107 35q-71 0 -111 -38t-40 -106zM506 -25q0 34 -21 48.5t-71 14.5
h-186q-68 0 -101.5 -21t-33.5 -64q0 -46 49 -70t142 -24q103 0 162.5 31t59.5 85zM1088 -25q0 34 -21 48.5t-71 14.5h-196q-63 0 -94 -21t-31 -64q0 -46 49 -70t142 -24q103 0 162.5 31t59.5 85zM298 635q-68 0 -107 39t-39 106v13h56v-8q0 -47 23 -72t67 -25
q43 0 64.5 23.5t21.5 70.5v11h54v-9q0 -68 -38 -108.5t-102 -40.5z" />
    <glyph glyph-name="gdotaccent_g" horiz-adv-x="1146" 
d="M23 0zM281 -198q-124 0 -191 35.5t-67 101.5q0 41 29.5 68.5t86.5 40.5v2q-38 11 -57 31.5t-19 51.5q0 30 21 56t57 41v2q-34 24 -52 61t-18 83q0 89 61 145t158 56q43 0 81 -12t66 -35l80 110l50 -44l-107 -88q21 -25 32.5 -55.5t11.5 -65.5q0 -91 -57.5 -144
t-155.5 -53q-34 0 -65 6.5t-57 18.5q-22 -9 -34.5 -24.5t-12.5 -34.5q0 -28 21.5 -41t66.5 -13h212q75 0 112 -28.5t37 -85.5q0 -87 -77 -136.5t-213 -49.5zM863 -198q-124 0 -191 35.5t-67 101.5q0 41 28.5 68.5t84.5 40.5v2q-42 11 -62.5 32t-20.5 55q0 28 19.5 52.5
t52.5 37.5v2q-36 24 -55 62t-19 85q0 89 61 145t158 56q43 0 81 -12t66 -35l80 110l50 -44l-107 -88q21 -25 32.5 -55.5t11.5 -65.5q0 -91 -57.5 -144t-155.5 -53q-33 0 -62.5 6t-53.5 17q-20 -9 -31.5 -24t-11.5 -33q0 -28 21.5 -41t66.5 -13h222q75 0 112 -28.5t37 -85.5
q0 -87 -77 -136.5t-213 -49.5zM139 377q0 -62 40 -96.5t111 -34.5t108.5 37t37.5 107q0 61 -39 96t-107 35q-71 0 -111 -38t-40 -106zM701 377q0 -62 40 -96.5t111 -34.5t108.5 37t37.5 107q0 61 -39 96t-107 35q-71 0 -111 -38t-40 -106zM506 -25q0 34 -21 48.5t-71 14.5
h-186q-68 0 -101.5 -21t-33.5 -64q0 -46 49 -70t142 -24q103 0 162.5 31t59.5 85zM1088 -25q0 34 -21 48.5t-71 14.5h-196q-63 0 -94 -21t-31 -64q0 -46 49 -70t142 -24q103 0 162.5 31t59.5 85zM333 726h-77v89h77v-89z" />
    <glyph glyph-name="gdotaccent_gdotaccent" horiz-adv-x="1146" 
d="M23 0zM281 -198q-124 0 -191 35.5t-67 101.5q0 41 29.5 68.5t86.5 40.5v2q-38 11 -57 31.5t-19 51.5q0 30 21 56t57 41v2q-34 24 -52 61t-18 83q0 89 61 145t158 56q43 0 81 -12t66 -35l80 110l50 -44l-107 -88q21 -25 32.5 -55.5t11.5 -65.5q0 -91 -57.5 -144
t-155.5 -53q-34 0 -65 6.5t-57 18.5q-22 -9 -34.5 -24.5t-12.5 -34.5q0 -28 21.5 -41t66.5 -13h212q75 0 112 -28.5t37 -85.5q0 -87 -77 -136.5t-213 -49.5zM863 -198q-124 0 -191 35.5t-67 101.5q0 41 28.5 68.5t84.5 40.5v2q-42 11 -62.5 32t-20.5 55q0 28 19.5 52.5
t52.5 37.5v2q-36 24 -55 62t-19 85q0 89 61 145t158 56q43 0 81 -12t66 -35l80 110l50 -44l-107 -88q21 -25 32.5 -55.5t11.5 -65.5q0 -91 -57.5 -144t-155.5 -53q-33 0 -62.5 6t-53.5 17q-20 -9 -31.5 -24t-11.5 -33q0 -28 21.5 -41t66.5 -13h222q75 0 112 -28.5t37 -85.5
q0 -87 -77 -136.5t-213 -49.5zM139 377q0 -62 40 -96.5t111 -34.5t108.5 37t37.5 107q0 61 -39 96t-107 35q-71 0 -111 -38t-40 -106zM701 377q0 -62 40 -96.5t111 -34.5t108.5 37t37.5 107q0 61 -39 96t-107 35q-71 0 -111 -38t-40 -106zM506 -25q0 34 -21 48.5t-71 14.5
h-186q-68 0 -101.5 -21t-33.5 -64q0 -46 49 -70t142 -24q103 0 162.5 31t59.5 85zM1088 -25q0 34 -21 48.5t-71 14.5h-196q-63 0 -94 -21t-31 -64q0 -46 49 -70t142 -24q103 0 162.5 31t59.5 85zM333 726h-77v89h77v-89zM895 726h-77v89h77v-89z" />
    <glyph glyph-name="g_gdotaccent" horiz-adv-x="1146" 
d="M23 0zM281 -198q-124 0 -191 35.5t-67 101.5q0 41 29.5 68.5t86.5 40.5v2q-38 11 -57 31.5t-19 51.5q0 30 21 56t57 41v2q-34 24 -52 61t-18 83q0 89 61 145t158 56q43 0 81 -12t66 -35l80 110l50 -44l-107 -88q21 -25 32.5 -55.5t11.5 -65.5q0 -91 -57.5 -144
t-155.5 -53q-34 0 -65 6.5t-57 18.5q-22 -9 -34.5 -24.5t-12.5 -34.5q0 -28 21.5 -41t66.5 -13h212q75 0 112 -28.5t37 -85.5q0 -87 -77 -136.5t-213 -49.5zM863 -198q-124 0 -191 35.5t-67 101.5q0 41 28.5 68.5t84.5 40.5v2q-42 11 -62.5 32t-20.5 55q0 28 19.5 52.5
t52.5 37.5v2q-36 24 -55 62t-19 85q0 89 61 145t158 56q43 0 81 -12t66 -35l80 110l50 -44l-107 -88q21 -25 32.5 -55.5t11.5 -65.5q0 -91 -57.5 -144t-155.5 -53q-33 0 -62.5 6t-53.5 17q-20 -9 -31.5 -24t-11.5 -33q0 -28 21.5 -41t66.5 -13h222q75 0 112 -28.5t37 -85.5
q0 -87 -77 -136.5t-213 -49.5zM139 377q0 -62 40 -96.5t111 -34.5t108.5 37t37.5 107q0 61 -39 96t-107 35q-71 0 -111 -38t-40 -106zM701 377q0 -62 40 -96.5t111 -34.5t108.5 37t37.5 107q0 61 -39 96t-107 35q-71 0 -111 -38t-40 -106zM506 -25q0 34 -21 48.5t-71 14.5
h-186q-68 0 -101.5 -21t-33.5 -64q0 -46 49 -70t142 -24q103 0 162.5 31t59.5 85zM1088 -25q0 34 -21 48.5t-71 14.5h-196q-63 0 -94 -21t-31 -64q0 -46 49 -70t142 -24q103 0 162.5 31t59.5 85zM895 726h-77v89h77v-89z" />
    <glyph glyph-name="gbreve.alt" horiz-adv-x="629" 
d="M44 0zM305 -138q91 0 135.5 52.5t44.5 161.5v76h-3q-28 -64 -78.5 -99t-116.5 -35q-112 0 -177.5 74t-65.5 201q0 125 69.5 204.5t178.5 79.5q66 0 115.5 -35.5t75.5 -100.5h4v124h64v-492q0 -131 -63 -200t-183 -69q-92 0 -152.5 33t-94.5 101l56 36q31 -60 75.5 -86
t115.5 -26zM305 519q-89 0 -140.5 -61t-51.5 -165q0 -100 49.5 -158.5t134.5 -58.5q89 0 138 58t49 162q0 103 -48.5 163t-130.5 60zM314 635q-68 0 -107 39t-39 106v13h56v-8q0 -47 23 -72t67 -25q43 0 64.5 23.5t21.5 70.5v11h54v-9q0 -68 -38 -108.5t-102 -40.5z" />
    <glyph glyph-name="gcircumflex.alt" horiz-adv-x="629" 
d="M44 0zM305 -138q91 0 135.5 52.5t44.5 161.5v76h-3q-28 -64 -78.5 -99t-116.5 -35q-112 0 -177.5 74t-65.5 201q0 125 69.5 204.5t178.5 79.5q66 0 115.5 -35.5t75.5 -100.5h4v124h64v-492q0 -131 -63 -200t-183 -69q-92 0 -152.5 33t-94.5 101l56 36q31 -60 75.5 -86
t115.5 -26zM305 519q-89 0 -140.5 -61t-51.5 -165q0 -100 49.5 -158.5t134.5 -58.5q89 0 138 58t49 162q0 103 -48.5 163t-130.5 60zM230 632h-61l117 178h45l122 -178h-64l-82 118z" />
    <glyph glyph-name="uni0123.alt" horiz-adv-x="629" 
d="M44 0zM305 -138q91 0 135.5 52.5t44.5 161.5v76h-3q-28 -64 -78.5 -99t-116.5 -35q-112 0 -177.5 74t-65.5 201q0 125 69.5 204.5t178.5 79.5q66 0 115.5 -35.5t75.5 -100.5h4v124h64v-492q0 -131 -63 -200t-183 -69q-92 0 -152.5 33t-94.5 101l56 36q31 -60 75.5 -86
t115.5 -26zM305 519q-89 0 -140.5 -61t-51.5 -165q0 -100 49.5 -158.5t134.5 -58.5q89 0 138 58t49 162q0 103 -48.5 163t-130.5 60zM313 759h38v-96h-81v106q0 51 23.5 74t75.5 25l6 -41q-40 -2 -51 -13t-11 -47v-8z" />
    <glyph glyph-name="gdotaccent.alt" horiz-adv-x="629" 
d="M44 0zM305 -138q91 0 135.5 52.5t44.5 161.5v76h-3q-28 -64 -78.5 -99t-116.5 -35q-112 0 -177.5 74t-65.5 201q0 125 69.5 204.5t178.5 79.5q66 0 115.5 -35.5t75.5 -100.5h4v124h64v-492q0 -131 -63 -200t-183 -69q-92 0 -152.5 33t-94.5 101l56 36q31 -60 75.5 -86
t115.5 -26zM305 519q-89 0 -140.5 -61t-51.5 -165q0 -100 49.5 -158.5t134.5 -58.5q89 0 138 58t49 162q0 103 -48.5 163t-130.5 60zM349 726h-77v89h77v-89z" />
    <glyph glyph-name="i.dot" horiz-adv-x="240" 
d="M82 0zM159 726h-77v89h77v-89zM87 0v565h66v-565h-66z" />
    <glyph glyph-name="racute.alt" horiz-adv-x="369" 
d="M85 0zM183 440q-16 -33 -24 -85.5t-8 -131.5v-223h-66v565h64v-133h3q22 75 62.5 110t104.5 35q10 0 19 -0.5t28 -3.5v-59q-20 3 -30.5 3.5t-22.5 0.5q-46 0 -78.5 -19.5t-51.5 -58.5zM255 632h-54l69 178h70z" />
    <glyph glyph-name="rcaron.alt" horiz-adv-x="369" 
d="M83 0zM183 440q-16 -33 -24 -85.5t-8 -131.5v-223h-66v565h64v-133h3q22 75 62.5 110t104.5 35q10 0 19 -0.5t28 -3.5v-59q-20 3 -30.5 3.5t-22.5 0.5q-46 0 -78.5 -19.5t-51.5 -58.5zM306 810h61l-117 -178h-45l-122 178h64l82 -118z" />
    <glyph glyph-name="uni0157.alt" horiz-adv-x="369" 
d="M53 0zM183 440q-16 -33 -24 -85.5t-8 -131.5v-223h-66v565h64v-133h3q22 75 62.5 110t104.5 35q10 0 19 -0.5t28 -3.5v-59q-20 3 -30.5 3.5t-22.5 0.5q-46 0 -78.5 -19.5t-51.5 -58.5zM115 -162h-38v96h81v-106q0 -53 -23 -75t-76 -24l-6 41q40 2 51 13t11 47v8z" />
    <glyph glyph-name="uni015F.alt" horiz-adv-x="522" 
d="M24 0zM275 49q68 0 106.5 29.5t38.5 81.5q0 37 -23 55.5t-100 32.5q-90 16 -134.5 30t-67.5 37q-18 17 -27 41.5t-9 55.5q0 73 54.5 119t141.5 46q89 0 146.5 -44.5t73.5 -126.5l-60 -17q-13 64 -53.5 97.5t-106.5 33.5q-62 0 -97.5 -27.5t-35.5 -76.5q0 -39 27 -61
t96 -35q117 -23 151 -34t56 -33q15 -15 23.5 -39t8.5 -51q0 -77 -58.5 -125t-152.5 -48q-105 0 -168.5 45.5t-80.5 131.5l63 17q16 -69 62 -102t126 -33zM367 -116l-255 -42l-7 50l255 42z" />
    <glyph glyph-name="ijacute" horiz-adv-x="480" 
d="M87 0zM87 0zM87 0v565h66v-565h-66zM147 632h-54l69 178h70zM206 -182l-9 65q11 -4 27.5 -7t30.5 -3q39 0 55.5 21.5t16.5 74.5v596h66v-601q0 -82 -31 -118.5t-101 -36.5q-15 0 -29 2.5t-26 6.5zM387 632h-54l69 178h70z" />
    <glyph glyph-name="cordinal" horiz-adv-x="410" 
d="M208 733q-56 0 -88.5 -39.5t-32.5 -109.5q0 -71 32.5 -111t89.5 -40q44 0 71.5 22.5t44.5 72.5l51 -16q-16 -60 -60.5 -94t-107.5 -34q-84 0 -132 53t-48 146q0 89 49.5 144t131.5 55q64 0 106 -36t59 -106l-56 -13q-11 53 -39 79.5t-71 26.5zM391 268h-372v49h372v-49z
" />
    <glyph glyph-name="a.sup" horiz-adv-x="410" 
d="M369 387q-41 0 -62.5 21t-21.5 62h-3q-18 -41 -52.5 -63.5t-78.5 -22.5q-54 0 -85.5 28.5t-31.5 76.5q0 52 30.5 80.5t93.5 36.5l59 8q37 5 53 17.5t16 36.5q0 31 -22 49t-59 18q-41 0 -66.5 -21.5t-37.5 -67.5l-54 11q16 60 57.5 92.5t100.5 32.5q66 0 101 -35.5
t35 -101.5v-160q0 -29 10 -40.5t36 -11.5q4 0 9 0.5t8 1.5v-43q-4 -2 -14 -3.5t-21 -1.5zM92 494q0 -32 19.5 -49.5t56.5 -17.5q54 0 86.5 39.5t32.5 105.5v29q-8 -8 -23.5 -13.5t-40.5 -9.5l-51 -8q-42 -7 -61 -25t-19 -51z" />
    <glyph glyph-name="b.sup" horiz-adv-x="432" 
d="M245 782q72 0 115 -54t43 -144q0 -92 -43.5 -146t-116.5 -54q-45 0 -79 23.5t-52 67.5h-3v-83h-55v549h57v-248h3q19 43 53 66t78 23zM344 584q0 69 -30.5 109.5t-82.5 40.5q-56 0 -88 -40t-32 -111q0 -69 33 -110t88 -41q53 0 82.5 40t29.5 112z" />
    <glyph glyph-name="c.sup" horiz-adv-x="395" 
d="M208 733q-56 0 -88.5 -39.5t-32.5 -109.5q0 -71 32.5 -111t89.5 -40q44 0 71.5 22.5t44.5 72.5l51 -16q-16 -60 -60.5 -94t-107.5 -34q-84 0 -132 53t-48 146q0 89 49.5 144t131.5 55q64 0 106 -36t59 -106l-56 -13q-11 53 -39 79.5t-71 26.5z" />
    <glyph glyph-name="d.sup" horiz-adv-x="432" 
d="M28 580q0 89 46.5 145.5t120.5 56.5q40 0 72 -22.5t50 -63.5h3v245h57v-549h-55v86h-3q-18 -45 -51.5 -69.5t-77.5 -24.5q-74 0 -118 53.5t-44 142.5zM321 582q0 70 -30.5 111t-82.5 41q-56 0 -88.5 -41.5t-32.5 -112.5q0 -68 31.5 -108t84.5 -40q55 0 86.5 40.5
t31.5 109.5z" />
    <glyph glyph-name="e.sup" horiz-adv-x="396" 
d="M210 384q-84 0 -133 54t-49 146q0 87 50.5 142.5t128.5 55.5q77 0 120 -55.5t43 -153.5h-284q2 -64 36 -102.5t89 -38.5q44 0 72 21t44 66l48 -18q-21 -57 -63.5 -87t-101.5 -30zM204 734q-49 0 -80 -32t-37 -88h223q-4 58 -31 89t-75 31z" />
    <glyph glyph-name="f.sup" horiz-adv-x="247" 
d="M142 392h-57v337h-78v45h78v39q0 64 29 98.5t82 34.5q16 0 30 -2.5t26 -7.5l-11 -45q-10 4 -20.5 6t-22.5 2q-31 0 -44.5 -20.5t-13.5 -66.5v-38h104v-45h-102v-337z" />
    <glyph glyph-name="g.sup" horiz-adv-x="401" 
d="M200 259q-91 0 -139 23t-48 66q0 28 20 46t59 26v2q-26 7 -39.5 21t-13.5 36t14 38t43 28v2q-24 16 -37 41.5t-13 57.5q0 61 41.5 98.5t107.5 37.5q30 0 56 -8t46 -23l52 75l39 -33l-73 -59q14 -17 21.5 -37.5t7.5 -44.5q0 -60 -40 -96t-107 -36q-23 0 -43.5 4t-36.5 11
q-14 -6 -22 -15.5t-8 -20.5q0 -17 15 -25t49 -8h148q52 0 78 -20t26 -60q0 -60 -53.5 -93.5t-149.5 -33.5zM103 648q0 -39 25 -61.5t69 -22.5t67 23t23 66q0 40 -24 62.5t-67 22.5q-44 0 -68.5 -24t-24.5 -66zM348 373q0 21 -14 30t-47 9h-127q-47 0 -68.5 -12.5
t-21.5 -39.5q0 -28 34.5 -42.5t99.5 -14.5q68 0 106 18.5t38 51.5z" />
    <glyph glyph-name="g.supalt" horiz-adv-x="427" 
d="M211 310q57 0 83.5 31.5t26.5 99.5v49h-3q-19 -40 -52 -61t-76 -21q-74 0 -118 50t-44 134t46.5 137t120.5 53q42 0 74.5 -22.5t50.5 -63.5h3v78h55v-334q0 -89 -43 -134.5t-128 -45.5q-57 0 -103 24t-67 64l48 32q19 -35 51 -52.5t75 -17.5zM208 735q-56 0 -88.5 -38.5
t-32.5 -104.5q0 -64 31.5 -101t84.5 -37q56 0 87 36.5t31 103.5q0 65 -30.5 103t-82.5 38z" />
    <glyph glyph-name="h.sup" horiz-adv-x="431" 
d="M324 392v226q0 58 -23.5 87t-70.5 29q-55 0 -87 -42t-32 -114v-186h-57v549h57v-252h3q21 44 56.5 68.5t79.5 24.5q62 0 96.5 -40.5t34.5 -113.5v-236h-57z" />
    <glyph glyph-name="i.sup" horiz-adv-x="168" 
d="M113 873h-58v68h58v-68zM56 392v382h57v-382h-57z" />
    <glyph glyph-name="j.sup" horiz-adv-x="168" 
d="M113 873h-58v68h58v-68zM20 259q-12 0 -22.5 1.5t-17.5 4.5l-3 50q8 -2 17 -3.5t18 -1.5q25 0 34.5 13t9.5 46v405h57v-402q0 -61 -21.5 -87t-71.5 -26z" />
    <glyph glyph-name="k.sup" horiz-adv-x="391" 
d="M383 392h-64l-134 212l-74 -74v-138h-57v549h57v-353l184 186h67l-135 -138z" />
    <glyph glyph-name="l.sup" horiz-adv-x="166" 
d="M54 392v549h57v-549h-57z" />
    <glyph glyph-name="m.sup" horiz-adv-x="658" 
d="M220 734q-50 0 -79.5 -41.5t-29.5 -113.5v-187h-57v382h56v-86h3q19 45 52 69.5t74 24.5q47 0 76.5 -26.5t38.5 -76.5h4q18 49 52 76t77 27q58 0 89.5 -39t31.5 -112v-239h-57v230q0 56 -20 84t-60 28q-53 0 -82.5 -41t-29.5 -114v-187h-56v230q0 57 -20.5 84.5
t-62.5 27.5z" />
    <glyph glyph-name="n.sup" horiz-adv-x="431" 
d="M54 392v382h56v-87h3q20 45 55.5 70t81.5 25q62 0 96.5 -40.5t34.5 -113.5v-236h-57v226q0 58 -23.5 87t-70.5 29q-55 0 -87 -42t-32 -114v-186h-57z" />
    <glyph glyph-name="o.sup" horiz-adv-x="410" 
d="M204 384q-82 0 -129 53.5t-47 145.5q0 91 48.5 145t129.5 54t128.5 -53.5t47.5 -144.5q0 -94 -47.5 -147t-130.5 -53zM206 432q58 0 88 39t30 113q0 70 -31.5 109.5t-86.5 39.5q-56 0 -87.5 -39.5t-31.5 -109.5q0 -71 32 -111.5t87 -40.5z" />
    <glyph glyph-name="p.sup" horiz-adv-x="432" 
d="M111 267h-57v507h55v-86h3q20 45 54.5 69.5t78.5 24.5q72 0 115 -54t43 -144q0 -92 -43 -146t-116 -54q-43 0 -76.5 22t-53.5 64h-3v-203zM231 734q-56 0 -88 -40t-32 -111q0 -69 33 -110t88 -41q53 0 82.5 40t29.5 112q0 69 -30.5 109.5t-82.5 40.5z" />
    <glyph glyph-name="q.sup" horiz-adv-x="432" 
d="M28 580q0 89 46.5 145.5t120.5 56.5q42 0 74 -23.5t50 -67.5h3v83h55v-507h-57v206h-3q-19 -43 -52 -66t-75 -23q-74 0 -118 53.5t-44 142.5zM321 582q0 70 -30.5 111t-82.5 41q-56 0 -88.5 -41.5t-32.5 -112.5q0 -68 31.5 -108t84.5 -40q55 0 86.5 40.5t31.5 109.5z" />
    <glyph glyph-name="r.sup" horiz-adv-x="326" 
d="M218 780q44 0 68 -29t24 -81q0 -15 -1.5 -29.5t-4.5 -23.5l-54 -7q3 16 4.5 29t1.5 25q0 38 -14 56.5t-43 18.5q-41 0 -64.5 -42t-23.5 -116v-189h-57v382h56v-76h3q15 40 42.5 61t62.5 21z" />
    <glyph glyph-name="s.sup" horiz-adv-x="370" 
d="M200 432q43 0 68 18t25 51q0 18 -9.5 29t-32.5 18q-8 2 -18 4t-51 9q-45 8 -64 14t-31 15q-18 13 -27.5 32t-9.5 45q0 51 38 83t98 32q62 0 101.5 -31t49.5 -87l-51 -12q-8 42 -33 63t-67 21q-39 0 -61.5 -18t-22.5 -48q0 -29 22 -42t81 -22q50 -7 73 -14t36 -17
q16 -12 23.5 -29t7.5 -42q0 -54 -40 -86.5t-106 -32.5q-72 0 -116.5 30.5t-56.5 88.5l54 14q10 -43 40 -64.5t80 -21.5z" />
    <glyph glyph-name="t.sup" horiz-adv-x="282" 
d="M8 729v45h81v82l56 29v-111h119v-45h-119v-226q0 -39 15 -54t55 -15q13 0 24 1.5t24 4.5v-48q-14 -4 -29.5 -6t-30.5 -2q-60 0 -87.5 27.5t-27.5 87.5v230h-80z" />
    <glyph glyph-name="u.sup" horiz-adv-x="428" 
d="M374 774v-382h-56v87h-3q-20 -45 -55 -70t-79 -25q-63 0 -97 36t-34 102v252h57v-242q0 -50 23.5 -75t70.5 -25q53 0 84.5 42t31.5 113v187h57z" />
    <glyph glyph-name="v.sup" horiz-adv-x="368" 
d="M305 774h58l-142 -382h-68l-148 382h59l125 -332z" />
    <glyph glyph-name="w.sup" horiz-adv-x="531" 
d="M424 392h-63l-96 307l-92 -307h-63l-105 382h59l81 -321l97 321h48l102 -323l78 323h56z" />
    <glyph glyph-name="x.sup" horiz-adv-x="358" 
d="M352 392h-63l-113 159l-105 -159h-64l136 196l-131 186h62l105 -153l99 153h61l-127 -190z" />
    <glyph glyph-name="y.sup" horiz-adv-x="368" 
d="M363 774l-144 -378q-31 -79 -61.5 -107.5t-85.5 -28.5q-23 0 -49 6t-44 15l18 48q20 -9 40 -14t39 -5q22 0 38 10.5t30 33.5q5 8 9 16.5t7 17.5l-155 386h59l126 -322l115 322h58z" />
    <glyph glyph-name="z.sup" horiz-adv-x="361" 
d="M276 728h-236v46h297v-48l-251 -288h255v-46h-318v48z" />
    <glyph glyph-name="uniFB00.alt" horiz-adv-x="660" 
d="M194 0h-66v510h-117v55h117v78q0 89 38 134t113 45q22 0 43.5 -3.5t38.5 -10.5l-16 -54q-14 6 -31 9t-33 3q-46 0 -66.5 -29t-20.5 -93v-79h261v100q0 79 37 117t113 38q14 0 25.5 -1t22.5 -3v-52q-10 1 -19 1.5t-26 0.5q-50 0 -68.5 -23.5t-18.5 -84.5v-93h132v-55h-132
v-510h-66v510h-261v-510z" />
    <glyph glyph-name="caron.slovak" horiz-adv-x="500" 
d="M303 758q0 -53 -10 -100t-31 -90h-44q11 31 16.5 67t5.5 81q0 22 -2 46.5t-6 52.5h68q2 -14 2.5 -28.5t0.5 -28.5z" />
    <glyph glyph-name="cedilla.alt" horiz-adv-x="500" 
d="M381 -116l-255 -42l-7 50l255 42z" />
    <glyph glyph-name="uni00200326" horiz-adv-x="500" 
d="M260 -162h-38v96h81v-106q0 -53 -23 -75t-76 -24l-6 41q40 2 51 13t11 47v8z" />
    <glyph glyph-name="dotaccent.alt" horiz-adv-x="500" 
d="M217 376v89h72v-89h-72z" />
    <glyph glyph-name="uni00200326.alt" horiz-adv-x="500" 
d="M241 759h38v-96h-81v106q0 51 23.5 74t75.5 25l6 -41q-40 -2 -51 -13t-11 -47v-8z" />
    <glyph glyph-name="acute.cap" horiz-adv-x="500" 
d="M244 832h-54l51 138h70z" />
    <glyph glyph-name="breve.cap" horiz-adv-x="500" 
d="M253 828q-67 0 -106.5 33.5t-39.5 91.5v13h56v-8q0 -37 23 -57t67 -20q43 0 64.5 18.5t21.5 55.5v11h54v-9q0 -59 -38 -94t-102 -35z" />
    <glyph glyph-name="caron.cap" horiz-adv-x="500" 
d="M327 966h61l-111 -138h-45l-120 138h64l78 -81z" />
    <glyph glyph-name="circumflex.cap" horiz-adv-x="500" 
d="M173 828h-61l115 138h45l116 -138h-64l-75 81z" />
    <glyph glyph-name="dieresis.cap" horiz-adv-x="500" 
d="M202 838h-72v81h72v-81zM370 838h-72v81h72v-81z" />
    <glyph glyph-name="dotaccent.cap" horiz-adv-x="500" 
d="M289 839h-77v89h77v-89z" />
    <glyph glyph-name="doublegrave.cap" horiz-adv-x="500" 
d="M203 970l51 -138h-54l-67 138h70zM317 970l51 -138h-54l-67 138h70z" />
    <glyph glyph-name="grave.cap" horiz-adv-x="500" 
d="M260 970l51 -138h-54l-67 138h70z" />
    <glyph glyph-name="hungarumlaut.cap" horiz-adv-x="500" 
d="M187 832h-54l51 138h70zM301 832h-54l51 138h70z" />
    <glyph glyph-name="invertedbreve.cap" horiz-adv-x="500" 
d="M247 963q67 0 106.5 -33.5t39.5 -91.5v-13h-56v8q0 37 -23 57t-67 20q-43 0 -64.5 -18.5t-21.5 -55.5v-11h-54v9q0 59 38 94t102 35z" />
    <glyph glyph-name="macron.cap" horiz-adv-x="500" 
d="M396 846h-291v50h291v-50z" />
    <glyph glyph-name="ring.cap" horiz-adv-x="500" 
d="M343 901q0 -41 -26.5 -68.5t-66.5 -27.5q-41 0 -67 26.5t-26 67.5t26.5 68.5t66.5 27.5t66.5 -26.5t26.5 -67.5zM199 899q0 -24 14.5 -39.5t38.5 -15.5q23 0 37 15.5t14 41.5t-14.5 41.5t-38.5 15.5q-23 0 -37 -16.5t-14 -42.5z" />
    <glyph glyph-name="tilde.cap" horiz-adv-x="500" 
d="M179 954q21 0 41 -9t52 -36q24 -21 36.5 -27t24.5 -6q20 0 29 18.5t7 57.5l48 -8q0 -57 -21 -87t-61 -30q-22 0 -42.5 9t-53.5 37q-24 20 -36 26t-23 6q-23 0 -34 -19t-10 -59l-48 8q0 57 24 88t67 31z" />
    <glyph glyph-name="exclamdown.cap" horiz-adv-x="267" 
d="M93 0zM169 237v-237h-71v237l21 353h29zM93 774h81v-106h-81v106z" />
    <glyph glyph-name="questiondown.cap" horiz-adv-x="508" 
d="M12 0zM244 47q86 0 133 46.5t67 150.5l61 -15q-21 -118 -88 -179t-176 -61q-103 0 -166 55.5t-63 146.5q0 58 27.5 102t98.5 99q61 47 76.5 76t15.5 95v32h62v-40q0 -69 -23.5 -110t-93.5 -95q-57 -44 -77 -77t-20 -81q0 -66 45 -105.5t121 -39.5zM220 774h81v-106h-81
v106z" />
    <glyph glyph-name="interrobangdown" horiz-adv-x="508" 
d="M138 183q64 50 80 79t16 92v32h52l6 -544q62 11 98.5 57.5t53.5 135.5l61 -15q-21 -118 -88 -179t-176 -61q-103 0 -166 55.5t-63 146.5q0 58 27.5 102t98.5 99zM175 141q-57 -44 -77 -77t-20 -81q0 -63 41.5 -102t111.5 -43l12 366q-12 -14 -28.5 -29.5t-39.5 -33.5z
M220 565h81v-106h-81v106z" />
    <glyph glyph-name="interrobangdown.cap" horiz-adv-x="508" 
d="M12 0zM138 392q64 50 80 79t16 92v32h52l6 -544q62 11 98.5 57.5t53.5 135.5l61 -15q-21 -118 -88 -179t-176 -61q-103 0 -166 55.5t-63 146.5q0 58 27.5 102t98.5 99zM175 350q-57 -44 -77 -77t-20 -81q0 -63 41.5 -102t111.5 -43l12 366q-12 -14 -28.5 -29.5
t-39.5 -33.5zM220 774h81v-106h-81v106z" />
    <glyph glyph-name="reversequoteleft" horiz-adv-x="154" 
d="M117 774v-106h-38v-26q0 -36 11 -47t51 -13l-6 -41q-51 2 -75 25.5t-24 73.5v134h81z" />
    <glyph glyph-name="reversequotedblleft" horiz-adv-x="288" 
d="M36 541zM117 774v-106h-38v-26q0 -36 11 -47t51 -13l-6 -41q-51 2 -75 25.5t-24 73.5v134h81zM252 774v-106h-38v-26q0 -36 11 -47t51 -13l-6 -41q-51 2 -75 25.5t-24 73.5v134h81z" />
    <glyph glyph-name="guilsinglleft.cap" horiz-adv-x="225" 
d="M7 173zM147 575h70l-139 -198l141 -204h-71l-141 201z" />
    <glyph glyph-name="guilsinglright.cap" horiz-adv-x="225" 
d="M7 173zM77 575l142 -201l-141 -201h-70l139 198l-140 204h70z" />
    <glyph glyph-name="guillemotleft.cap" horiz-adv-x="400" 
d="M7 173zM7 173zM147 575h70l-139 -198l141 -204h-71l-141 201zM322 575h70l-139 -198l141 -204h-71l-141 201z" />
    <glyph glyph-name="guillemotright.cap" horiz-adv-x="400" 
d="M7 173zM7 173zM77 575l142 -201l-141 -201h-70l139 198l-140 204h70zM252 575l142 -201l-141 -201h-70l139 198l-140 204h70z" />
    <glyph glyph-name="slash.cap" horiz-adv-x="422" 
d="M104 -121h-68l282 964h68z" />
    <glyph glyph-name="backslash.cap" horiz-adv-x="422" 
d="M104 843l282 -964h-68l-282 964h68z" />
    <glyph glyph-name="bar.cap" horiz-adv-x="226" 
d="M82 -121v964h62v-964h-62z" />
    <glyph glyph-name="uni2016.cap" horiz-adv-x="416" 
d="M82 0zM82 -121v964h62v-964h-62zM272 -121v964h62v-964h-62z" />
    <glyph glyph-name="brokenbar.cap" horiz-adv-x="226" 
d="M82 433v410h62v-410h-62zM82 -121v424h62v-424h-62z" />
    <glyph glyph-name="bullet.cap" horiz-adv-x="339" 
d="M84 317zM255 403q0 -37 -24.5 -61.5t-60.5 -24.5t-61 25t-25 61q0 37 24.5 62t61.5 25t61 -24.5t24 -62.5z" />
    <glyph glyph-name="onethirdemdash" horiz-adv-x="404" 
d="M339 300h-274v50h274v-50z" />
    <glyph glyph-name="threequarteremdash" horiz-adv-x="747" 
d="M682 300h-617v50h617v-50z" />
    <glyph glyph-name="periodcentered.cap" horiz-adv-x="153" 
d="M36 333zM117 333h-81v106h81v-106z" />
    <glyph glyph-name="hyphen.cap" horiz-adv-x="409" 
d="M48 365zM361 365h-313v60h313v-60z" />
    <glyph glyph-name="onethirdemdash.cap" horiz-adv-x="404" 
d="M65 370zM339 370h-274v50h274v-50z" />
    <glyph glyph-name="endash.cap" horiz-adv-x="774" 
d="M65 370zM709 370h-644v50h644v-50z" />
    <glyph glyph-name="threequarteremdash.cap" horiz-adv-x="747" 
d="M65 370zM682 370h-617v50h617v-50z" />
    <glyph glyph-name="emdash.cap" horiz-adv-x="953" 
d="M65 370zM888 370h-823v50h823v-50z" />
    <glyph glyph-name="figuredash.cap" 
d="M50 370zM570 370h-520v50h520v-50z" />
    <glyph glyph-name="uni2015.cap" horiz-adv-x="747" 
d="M65 370zM65 370zM682 370h-617v50h617v-50z" />
    <glyph glyph-name="parenleft.cap" horiz-adv-x="301" 
d="M77 366q0 147 50 281.5t135 215.5h63q-88 -94 -133 -219t-45 -278t44.5 -279.5t133.5 -227.5h-63q-86 92 -135.5 227.5t-49.5 279.5z" />
    <glyph glyph-name="parenright.cap" horiz-adv-x="301" 
d="M224 356q0 -147 -50 -281.5t-135 -215.5h-63q88 94 133 219t45 278t-44.5 279.5t-133.5 227.5h63q86 -92 135.5 -227.5t49.5 -279.5z" />
    <glyph glyph-name="bracketleft.cap" horiz-adv-x="408" 
d="M114 -141v1004h288v-60h-220v-884h223v-60h-291z" />
    <glyph glyph-name="bracketright.cap" horiz-adv-x="408" 
d="M294 863v-1004h-288v60h220v884h-223v60h291z" />
    <glyph glyph-name="braceleft.cap" horiz-adv-x="378" 
d="M290 -81h80v-60h-82q-75 0 -107 27.5t-30 90.5l7 268q2 50 -18.5 68t-77.5 18h-59v60h59q57 0 77.5 18t18.5 68l-7 268q-2 63 30 90.5t107 27.5h82v-60h-80q-43 0 -58 -14t-15 -55v-248q0 -60 -24 -88.5t-82 -35.5v-2q58 -7 82 -35.5t24 -88.5v-248q0 -41 15 -55t58 -14z
" />
    <glyph glyph-name="braceright.cap" horiz-adv-x="378" 
d="M88 803h-80v60h82q75 0 107 -27.5t30 -90.5l-7 -268q-2 -50 18.5 -68t77.5 -18h59v-60h-59q-57 0 -77.5 -18t-18.5 -68l7 -268q2 -63 -30 -90.5t-107 -27.5h-82v60h80q43 0 58 14t15 55v248q0 60 24 88.5t82 35.5v2q-58 7 -82 35.5t-24 88.5v248q0 41 -15 55t-58 14z" />
    <glyph glyph-name="uni3008.cap" horiz-adv-x="395" 
d="M94 374l223 489h75l-227 -485l227 -519h-75z" />
    <glyph glyph-name="uni3009.cap" horiz-adv-x="395" 
d="M301 348l-223 -489h-75l227 485l-227 519h75z" />
    <glyph glyph-name="underscore" horiz-adv-x="534" 
d="M484 -130h-434v50h434v-50z" />
    <glyph glyph-name="at.cap" horiz-adv-x="901" 
d="M41 0zM705 211q50 0 77 50t27 144q0 168 -88.5 261.5t-248.5 93.5q-162 0 -268 -115t-106 -290q0 -168 98.5 -260t279.5 -92q62 0 112 9.5t100 31.5v-51q-45 -20 -99.5 -30t-113.5 -10q-206 0 -320 104.5t-114 294.5q0 94 31 177t89 146q60 65 141 99.5t173 34.5
q175 0 282 -110.5t107 -291.5q0 -115 -44.5 -179.5t-123.5 -64.5q-55 0 -85 26.5t-30 74.5h-2q-22 -55 -65.5 -84.5t-103.5 -29.5q-69 0 -108.5 35.5t-39.5 96.5q0 31 11 56t34 45q19 16 47.5 26.5t69.5 17.5l70 11q48 8 67.5 23t19.5 44q0 40 -27.5 63t-75.5 23
q-56 0 -89 -27.5t-48 -86.5l-64 14q23 75 74.5 115t124.5 40q82 0 126 -43.5t44 -124.5v-193q0 -41 13 -57.5t46 -16.5zM331 286q0 -40 26.5 -62.5t73.5 -22.5q70 0 111 50t41 135v39q-10 -9 -29 -16t-54 -13l-64 -11q-54 -9 -79.5 -33t-25.5 -66z" />
    <glyph glyph-name="registered.cap" horiz-adv-x="908" 
d="M454 -16q-171 0 -280.5 112.5t-109.5 287.5q0 176 110.5 289t283.5 113q169 0 277.5 -113t108.5 -289q0 -175 -109.5 -287.5t-280.5 -112.5zM458 737q-155 0 -247 -95.5t-92 -257.5q0 -156 93 -253.5t242 -97.5q152 0 243.5 96t91.5 255q0 161 -90 257t-241 96zM534 318
q-8 15 -21.5 20t-46.5 5h-91v-178h-66v448h178q77 0 119 -32.5t42 -90.5q0 -48 -32 -80.5t-86 -39.5v-2q15 -2 27 -8t22 -16t17.5 -26t14.5 -41q10 -38 18.5 -63.5t17.5 -45.5v-3h-70q-6 11 -11.5 31t-13.5 61q-5 23 -9 37t-9 24zM581 479q0 39 -24.5 58.5t-72.5 19.5h-109
v-163h93q56 0 84.5 21.5t28.5 63.5z" />
    <glyph glyph-name="zero.LT" 
d="M313 786q136 0 212 -106t76 -296q0 -187 -77 -291.5t-215 -104.5q-140 0 -215 102t-75 294q0 190 77.5 296t216.5 106zM313 727q-65 0 -113.5 -33.5t-76.5 -97.5q-17 -40 -25.5 -91t-8.5 -112v-13q0 -162 57 -247.5t163 -85.5q66 0 113 32t75 95q17 40 25.5 91.5
t8.5 114.5v13q0 161 -57 247.5t-161 86.5z" />
    <glyph glyph-name="one.LT" 
d="M576 0h-520v60h228v559h-201v51h131q49 0 64 11.5t17 53.5l2 39h55v-714h224v-60z" />
    <glyph glyph-name="two.LT" 
d="M484 549q0 83 -45.5 130.5t-124.5 47.5q-98 0 -150.5 -64.5t-48.5 -180.5l-66 17q-1 133 70 210t193 77q110 0 174.5 -63t64.5 -169q0 -87 -50 -165t-161 -163l-216 -167h454v-59h-537v64l250 196q100 78 146.5 147.5t46.5 141.5z" />
    <glyph glyph-name="three.LT" 
d="M484 581q0 70 -44 108.5t-122 38.5q-85 0 -132.5 -45.5t-55.5 -134.5l-64 19q16 106 82 162.5t174 56.5q102 0 164.5 -53t62.5 -141q0 -66 -40 -113t-111 -67v-2q92 -18 140 -67t48 -125q0 -103 -73 -166.5t-190 -63.5q-124 0 -198 60.5t-92 176.5l65 20q9 -97 66 -147.5
t157 -50.5q92 0 145.5 47.5t53.5 130.5q0 76 -56 114.5t-166 38.5h-92v56h92q84 0 135 39.5t51 107.5z" />
    <glyph glyph-name="four.LT" 
d="M606 251v-60h-142v-191h-67v191h-383v65l373 518h77v-523h142zM397 694l-316 -443h316v443z" />
    <glyph glyph-name="five.LT" 
d="M347 511q107 0 174 -67.5t67 -178.5q0 -126 -73.5 -201t-195.5 -75q-115 0 -189.5 58t-98.5 165l63 23q21 -94 77.5 -141t147.5 -47q93 0 146.5 58t53.5 159q0 92 -51.5 144t-140.5 52q-64 0 -113 -25.5t-85 -77.5l-63 8l62 409h409v-60h-353l-47 -301h3q35 48 88.5 73
t118.5 25z" />
    <glyph glyph-name="six.LT" 
d="M344 509q110 0 179.5 -71t69.5 -184q0 -118 -75 -192t-191 -74q-143 0 -222.5 100.5t-79.5 276.5q0 191 88.5 306t235.5 115q76 0 137 -32.5t108 -97.5l-53 -41q-33 56 -82 84.5t-111 28.5q-118 0 -187 -99.5t-69 -271.5v-26.5t1 -14.5h3q23 91 90 142t158 51zM331 455
q-91 0 -153 -59.5t-62 -150.5q0 -80 60.5 -139.5t151.5 -59.5q88 0 142 57t54 147q0 96 -51 150.5t-142 54.5z" />
    <glyph glyph-name="seven.LT" 
d="M311 72v-72h-68v72q0 223 67.5 386t199.5 256h-462v60h523v-54q-130 -94 -195 -256t-65 -392z" />
    <glyph glyph-name="eight.LT" 
d="M312 -13q-132 0 -210 59t-78 160q0 76 45.5 128.5t130.5 75.5v2q-61 22 -96 67t-35 103q0 91 68.5 146t172.5 55q105 0 173 -53.5t68 -143.5q0 -58 -35 -104t-96 -70v-2q85 -23 130.5 -73.5t45.5 -124.5q0 -102 -77.5 -163.5t-206.5 -61.5zM485 579q0 67 -48 106.5
t-126 39.5q-82 0 -129 -39.5t-47 -110.5q0 -67 48 -105t129 -38q78 0 125.5 39.5t47.5 107.5zM90 217q0 -80 60.5 -126t166.5 -46q99 0 156 48t57 129q0 76 -59.5 121t-158.5 45q-101 0 -161.5 -46t-60.5 -125z" />
    <glyph glyph-name="nine.LT" 
d="M297 787q138 0 217.5 -102t79.5 -276q0 -198 -81 -309.5t-228 -111.5q-86 0 -152 34.5t-107 100.5l54 38q32 -55 86 -84.5t121 -29.5q119 0 179.5 94t60.5 278q0 9 -0.5 18.5t-1.5 26.5h-3q-18 -86 -85 -139.5t-152 -53.5q-118 0 -188.5 69t-70.5 182q0 117 75.5 191
t195.5 74zM303 325q78 0 138.5 59t60.5 145q0 85 -57.5 142.5t-153.5 57.5q-87 0 -141.5 -56.5t-54.5 -143.5q0 -95 55.5 -149.5t152.5 -54.5z" />
    <glyph glyph-name="Euro.LT" 
d="M76 278h-77v52h72q-1 8 -1 18v31q0 9 0.5 19.5t1.5 29.5h-73v52h77q23 145 97.5 225.5t183.5 80.5q98 0 160.5 -69.5t85.5 -205.5l-67 -16q-15 112 -61.5 172t-118.5 60q-87 0 -140.5 -62t-71.5 -185h283l-12 -52h-278l-1.5 -30t-0.5 -19t0.5 -19l1.5 -30h258l-12 -52
h-238q18 -115 69.5 -173.5t133.5 -58.5q76 0 124.5 53.5t73.5 166.5l62 -21q-29 -128 -95 -192.5t-168 -64.5q-110 0 -178.5 74t-90.5 216z" />
    <glyph glyph-name="dollar.LT" 
d="M350 -11v-114h-59v114q-113 8 -180.5 67.5t-83.5 166.5l64 20q10 -87 61.5 -136.5t138.5 -57.5v319q-21 4 -39.5 9t-35.5 10q-36 11 -60.5 24t-40.5 29q-22 22 -34.5 55.5t-12.5 71.5q0 95 60.5 154t162.5 64v80h59v-81q91 -9 147.5 -62.5t77.5 -151.5l-63 -16
q-15 75 -55.5 117.5t-106.5 52.5v-308q26 -6 46.5 -11t38.5 -11q40 -12 61.5 -22t38.5 -24q27 -24 39.5 -56t12.5 -77q0 -98 -63.5 -158.5t-173.5 -67.5zM133 572q0 -57 33 -89.5t125 -53.5v297q-74 -4 -116 -44.5t-42 -109.5zM522 212q0 37 -13 63t-41 42
q-17 11 -42.5 19.5t-75.5 18.5v-307q82 5 127 48t45 116z" />
    <glyph glyph-name="cent.LT" 
d="M352 -11v-156h-59v156q-110 10 -171.5 88t-61.5 207q0 121 64 200.5t169 90.5v128h59v-127q80 -8 134 -60.5t77 -144.5l-64 -18q-15 72 -52.5 113.5t-94.5 50.5v-469q58 6 96 42t61 106l57 -22q-22 -80 -78.5 -128.5t-135.5 -56.5zM128 284q0 -100 43.5 -162.5
t121.5 -73.5v469q-78 -10 -121.5 -71.5t-43.5 -161.5z" />
    <glyph glyph-name="sterling.LT" 
d="M153 342h-127v52h97q-21 42 -31 79t-10 75q0 104 67.5 171t175.5 67q111 0 174.5 -65t66.5 -183l-66 -15q-3 101 -47 152t-128 51q-82 0 -129.5 -47.5t-47.5 -128.5q0 -39 10 -76t33 -80h306v-52h-277q34 -58 46 -98t12 -81v-13.5t-1 -8.5q48 -42 60.5 -51t23.5 -17
q26 -16 51 -23.5t51 -7.5q48 0 68.5 36.5t14.5 109.5l-1 12h61q1 -13 2 -24.5t1 -19.5q0 -82 -38.5 -125t-107.5 -43q-49 0 -92 19.5t-107 79.5q-18 -43 -54 -67t-82 -24q-52 0 -83.5 29.5t-31.5 75.5q0 48 34 79t90 31q22 0 43 -7t43 -21q-3 26 -14 54.5t-56 104.5z
M135 161q-30 0 -47 -15t-17 -40q0 -27 17 -42.5t46 -15.5q33 0 55.5 20.5t30.5 57.5q-22 18 -43 26.5t-42 8.5z" />
    <glyph glyph-name="uni0192.LT" 
d="M116 -149q52 0 81 32.5t38 103.5l49 357h-161v55h168l26 187q12 94 60 145t125 51q32 0 59.5 -6.5t56.5 -21.5l-22 -54q-22 12 -45 17.5t-49 5.5q-50 0 -80 -34t-39 -102l-26 -188h174v-55h-181l-49 -356q-14 -101 -59 -148.5t-126 -47.5q-32 0 -59.5 6.5t-56.5 21.5
l24 55q23 -12 45.5 -18t46.5 -6z" />
    </font>
</defs>
</svg>
